<ttFont>
<head>
    <!-- Most of this table will be recalculated by the compiler -->
    <tableVersion value="1.0"/>
    <fontRevision value="1.0"/>
    <checkSumAdjustment value="0x8c0122f6"/>
    <magicNumber value="0x5f0f3cf5"/>
    <flags value="00000000 00011011"/>
    <unitsPerEm value="1000"/>
    <created value="Sat Dec  6 13:43:37 2025"/>
    <modified value="Sat Dec  6 13:50:32 2025"/>
    <xMin value="-57"/>
    <yMin value="-219"/>
    <xMax value="1311"/>
    <yMax value="871"/>
    <macStyle value="00000000 00000000"/>
    <lowestRecPPEM value="6"/>
    <fontDirectionHint value="2"/>
    <indexToLocFormat value="0"/>
    <glyphDataFormat value="0"/>
  </head>
    <TTGlyph name="A" xMin="47" yMin="0" xMax="900" yMax="851">
      <contour>
        <pt x="817" y="89" on="1"/>
        <pt x="823" y="74" on="0"/>
        <pt x="835" y="57" on="0"/>
        <pt x="853" y="48" on="0"/>
        <pt x="880" y="45" on="0"/>
        <pt x="900" y="45" on="1"/>
        <pt x="900" y="0" on="1"/>
        <pt x="866" y="2" on="0"/>
        <pt x="801" y="3" on="0"/>
        <pt x="777" y="3" on="1"/>
        <pt x="756" y="3" on="0"/>
        <pt x="728" y="3" on="0"/>
        <pt x="702" y="2" on="0"/>
        <pt x="672" y="1" on="0"/>
        <pt x="649" y="0" on="1"/>
        <pt x="649" y="45" on="1"/>
        <pt x="653" y="45" on="0"/>
        <pt x="669" y="46" on="0"/>
        <pt x="684" y="51" on="0"/>
        <pt x="696" y="63" on="0"/>
        <pt x="696" y="74" on="1"/>
        <pt x="696" y="81" on="0"/>
        <pt x="687" y="107" on="0"/>
        <pt x="682" y="118" on="1"/>
        <pt x="622" y="268" on="1"/>
        <pt x="280" y="268" on="1"/>
        <pt x="227" y="133" on="1"/>
        <pt x="223" y="124" on="0"/>
        <pt x="217" y="104" on="0"/>
        <pt x="217" y="92" on="1"/>
        <pt x="217" y="76" on="0"/>
        <pt x="226" y="58" on="0"/>
        <pt x="239" y="48" on="0"/>
        <pt x="251" y="45" on="0"/>
        <pt x="254" y="45" on="1"/>
        <pt x="254" y="0" on="1"/>
        <pt x="224" y="2" on="0"/>
        <pt x="161" y="3" on="0"/>
        <pt x="147" y="3" on="1"/>
        <pt x="140" y="3" on="0"/>
        <pt x="116" y="3" on="0"/>
        <pt x="88" y="2" on="0"/>
        <pt x="59" y="1" on="0"/>
        <pt x="47" y="0" on="1"/>
        <pt x="47" y="45" on="1"/>
        <pt x="59" y="45" on="0"/>
        <pt x="84" y="51" on="0"/>
        <pt x="110" y="69" on="0"/>
        <pt x="135" y="102" on="0"/>
        <pt x="146" y="130" on="1"/>
        <pt x="423" y="822" on="1"/>
        <pt x="431" y="842" on="0"/>
        <pt x="450" y="851" on="0"/>
        <pt x="470" y="851" on="1"/>
        <pt x="477" y="851" on="1"/>
        <pt x="503" y="851" on="0"/>
        <pt x="518" y="836" on="0"/>
        <pt x="525" y="819" on="1"/>
      </contour>
      <contour>
        <pt x="298" y="313" on="1"/>
        <pt x="604" y="313" on="1"/>
        <pt x="451" y="696" on="1"/>
      </contour>
    </TTGlyph>
    <TTGlyph name="AE" xMin="48" yMin="0" xMax="1130" yMax="809">
      <contour>
        <pt x="1062" y="0" on="1"/>
        <pt x="473" y="0" on="1"/>
        <pt x="473" y="45" on="1"/>
        <pt x="491" y="45" on="0"/>
        <pt x="513" y="48" on="0"/>
        <pt x="524" y="59" on="0"/>
        <pt x="528" y="79" on="0"/>
        <pt x="528" y="95" on="1"/>
        <pt x="528" y="367" on="1"/>
        <pt x="330" y="367" on="1"/>
        <pt x="230" y="131" on="1"/>
        <pt x="222" y="114" on="0"/>
        <pt x="220" y="93" on="0"/>
        <pt x="220" y="90" on="1"/>
        <pt x="220" y="75" on="0"/>
        <pt x="229" y="57" on="0"/>
        <pt x="240" y="48" on="0"/>
        <pt x="252" y="45" on="0"/>
        <pt x="255" y="45" on="1"/>
        <pt x="255" y="0" on="1"/>
        <pt x="225" y="2" on="0"/>
        <pt x="162" y="3" on="0"/>
        <pt x="148" y="3" on="1"/>
        <pt x="141" y="3" on="0"/>
        <pt x="117" y="3" on="0"/>
        <pt x="89" y="2" on="0"/>
        <pt x="60" y="1" on="0"/>
        <pt x="48" y="0" on="1"/>
        <pt x="48" y="45" on="1"/>
        <pt x="55" y="45" on="0"/>
        <pt x="78" y="49" on="0"/>
        <pt x="106" y="65" on="0"/>
        <pt x="135" y="97" on="0"/>
        <pt x="148" y="127" on="1"/>
        <pt x="419" y="764" on="1"/>
        <pt x="382" y="764" on="1"/>
        <pt x="382" y="809" on="1"/>
        <pt x="1048" y="809" on="1"/>
        <pt x="1093" y="573" on="1"/>
        <pt x="1020" y="573" on="1"/>
        <pt x="1011" y="620" on="0"/>
        <pt x="988" y="691" on="0"/>
        <pt x="943" y="739" on="0"/>
        <pt x="869" y="764" on="0"/>
        <pt x="809" y="764" on="1"/>
        <pt x="682" y="764" on="1"/>
        <pt x="669" y="764" on="0"/>
        <pt x="653" y="762" on="0"/>
        <pt x="644" y="753" on="0"/>
        <pt x="641" y="733" on="0"/>
        <pt x="641" y="716" on="1"/>
        <pt x="641" y="412" on="1"/>
        <pt x="741" y="412" on="1"/>
        <pt x="776" y="412" on="0"/>
        <pt x="823" y="422" on="0"/>
        <pt x="851" y="448" on="0"/>
        <pt x="863" y="493" on="0"/>
        <pt x="863" y="527" on="1"/>
        <pt x="936" y="527" on="1"/>
        <pt x="936" y="252" on="1"/>
        <pt x="863" y="252" on="1"/>
        <pt x="863" y="287" on="0"/>
        <pt x="851" y="331" on="0"/>
        <pt x="823" y="357" on="0"/>
        <pt x="776" y="367" on="0"/>
        <pt x="741" y="367" on="1"/>
        <pt x="641" y="367" on="1"/>
        <pt x="641" y="93" on="1"/>
        <pt x="641" y="76" on="0"/>
        <pt x="644" y="56" on="0"/>
        <pt x="653" y="47" on="0"/>
        <pt x="669" y="45" on="0"/>
        <pt x="682" y="45" on="1"/>
        <pt x="809" y="45" on="1"/>
        <pt x="878" y="45" on="0"/>
        <pt x="963" y="76" on="0"/>
        <pt x="1015" y="134" on="0"/>
        <pt x="1044" y="217" on="0"/>
        <pt x="1057" y="268" on="1"/>
        <pt x="1130" y="268" on="1"/>
      </contour>
      <contour>
        <pt x="349" y="412" on="1"/>
        <pt x="528" y="412" on="1"/>
        <pt x="528" y="704" on="1"/>
        <pt x="528" y="710" on="0"/>
        <pt x="527" y="727" on="0"/>
        <pt x="521" y="743" on="0"/>
        <pt x="507" y="756" on="0"/>
        <pt x="495" y="758" on="1"/>
      </contour>
    </TTGlyph>
    <TTGlyph name="B" xMin="90" yMin="0" xMax="837" yMax="809">
      <contour>
        <pt x="513" y="809" on="1"/>
        <pt x="572" y="809" on="0"/>
        <pt x="677" y="777" on="0"/>
        <pt x="755" y="722" on="0"/>
        <pt x="801" y="649" on="0"/>
        <pt x="801" y="608" on="1"/>
        <pt x="801" y="575" on="0"/>
        <pt x="770" y="516" on="0"/>
        <pt x="714" y="468" on="0"/>
        <pt x="638" y="432" on="0"/>
        <pt x="594" y="423" on="1"/>
        <pt x="647" y="417" on="0"/>
        <pt x="736" y="380" on="0"/>
        <pt x="801" y="324" on="0"/>
        <pt x="837" y="255" on="0"/>
        <pt x="837" y="217" on="1"/>
        <pt x="837" y="174" on="0"/>
        <pt x="792" y="95" on="0"/>
        <pt x="714" y="35" on="0"/>
        <pt x="609" y="0" on="0"/>
        <pt x="548" y="0" on="1"/>
        <pt x="90" y="0" on="1"/>
        <pt x="90" y="45" on="1"/>
        <pt x="114" y="45" on="0"/>
        <pt x="143" y="48" on="0"/>
        <pt x="158" y="59" on="0"/>
        <pt x="163" y="80" on="0"/>
        <pt x="163" y="97" on="1"/>
        <pt x="163" y="712" on="1"/>
        <pt x="163" y="729" on="0"/>
        <pt x="158" y="750" on="0"/>
        <pt x="143" y="761" on="0"/>
        <pt x="114" y="764" on="0"/>
        <pt x="90" y="764" on="1"/>
        <pt x="90" y="809" on="1"/>
      </contour>
      <contour>
        <pt x="468" y="443" on="1"/>
        <pt x="517" y="443" on="0"/>
        <pt x="593" y="472" on="0"/>
        <pt x="646" y="519" on="0"/>
        <pt x="673" y="578" on="0"/>
        <pt x="673" y="608" on="1"/>
        <pt x="673" y="636" on="0"/>
        <pt x="651" y="691" on="0"/>
        <pt x="608" y="736" on="0"/>
        <pt x="546" y="764" on="0"/>
        <pt x="505" y="764" on="1"/>
        <pt x="315" y="764" on="1"/>
        <pt x="302" y="764" on="0"/>
        <pt x="286" y="762" on="0"/>
        <pt x="277" y="753" on="0"/>
        <pt x="274" y="733" on="0"/>
        <pt x="274" y="716" on="1"/>
        <pt x="274" y="443" on="1"/>
      </contour>
      <contour>
        <pt x="507" y="45" on="1"/>
        <pt x="549" y="45" on="0"/>
        <pt x="621" y="72" on="0"/>
        <pt x="675" y="118" on="0"/>
        <pt x="705" y="182" on="0"/>
        <pt x="705" y="218" on="1"/>
        <pt x="705" y="254" on="0"/>
        <pt x="679" y="319" on="0"/>
        <pt x="631" y="369" on="0"/>
        <pt x="565" y="398" on="0"/>
        <pt x="525" y="398" on="1"/>
        <pt x="274" y="398" on="1"/>
        <pt x="274" y="93" on="1"/>
        <pt x="274" y="76" on="0"/>
        <pt x="277" y="56" on="0"/>
        <pt x="286" y="47" on="0"/>
        <pt x="302" y="45" on="0"/>
        <pt x="315" y="45" on="1"/>
      </contour>
    </TTGlyph>
    <TTGlyph name="C" xMin="73" yMin="-28" xMax="874" yMax="837">
      <contour>
        <pt x="874" y="520" on="1"/>
        <pt x="874" y="495" on="0"/>
        <pt x="859" y="485" on="0"/>
        <pt x="837" y="485" on="1"/>
        <pt x="827" y="485" on="0"/>
        <pt x="804" y="489" on="0"/>
        <pt x="802" y="503" on="1"/>
        <pt x="799" y="522" on="0"/>
        <pt x="789" y="572" on="0"/>
        <pt x="768" y="629" on="0"/>
        <pt x="730" y="690" on="0"/>
        <pt x="699" y="721" on="1"/>
        <pt x="692" y="727" on="0"/>
        <pt x="663" y="751" on="0"/>
        <pt x="618" y="775" on="0"/>
        <pt x="559" y="792" on="0"/>
        <pt x="523" y="792" on="1"/>
        <pt x="467" y="792" on="0"/>
        <pt x="354" y="743" on="0"/>
        <pt x="264" y="645" on="0"/>
        <pt x="208" y="500" on="0"/>
        <pt x="208" y="404" on="1"/>
        <pt x="208" y="311" on="0"/>
        <pt x="263" y="166" on="0"/>
        <pt x="352" y="68" on="0"/>
        <pt x="465" y="17" on="0"/>
        <pt x="524" y="17" on="1"/>
        <pt x="577" y="17" on="0"/>
        <pt x="675" y="55" on="0"/>
        <pt x="751" y="124" on="0"/>
        <pt x="799" y="221" on="0"/>
        <pt x="801" y="280" on="1"/>
        <pt x="802" y="302" on="0"/>
        <pt x="820" y="309" on="0"/>
        <pt x="837" y="309" on="1"/>
        <pt x="854" y="309" on="0"/>
        <pt x="874" y="302" on="0"/>
        <pt x="874" y="279" on="1"/>
        <pt x="874" y="222" on="0"/>
        <pt x="823" y="111" on="0"/>
        <pt x="730" y="25" on="0"/>
        <pt x="601" y="-28" on="0"/>
        <pt x="523" y="-28" on="1"/>
        <pt x="430" y="-28" on="0"/>
        <pt x="267" y="40" on="0"/>
        <pt x="144" y="157" on="0"/>
        <pt x="73" y="315" on="0"/>
        <pt x="73" y="405" on="1"/>
        <pt x="73" y="495" on="0"/>
        <pt x="144" y="652" on="0"/>
        <pt x="266" y="769" on="0"/>
        <pt x="430" y="837" on="0"/>
        <pt x="522" y="837" on="1"/>
        <pt x="588" y="837" on="0"/>
        <pt x="709" y="790" on="0"/>
        <pt x="763" y="740" on="1"/>
        <pt x="821" y="822" on="1"/>
        <pt x="826" y="830" on="0"/>
        <pt x="836" y="837" on="0"/>
        <pt x="847" y="837" on="1"/>
        <pt x="867" y="837" on="0"/>
        <pt x="874" y="816" on="0"/>
        <pt x="874" y="802" on="1"/>
      </contour>
    </TTGlyph>
    <TTGlyph name="D" xMin="88" yMin="0" xMax="910" yMax="809">
      <contour>
        <pt x="511" y="809" on="1"/>
        <pt x="593" y="809" on="0"/>
        <pt x="738" y="744" on="0"/>
        <pt x="847" y="633" on="0"/>
        <pt x="910" y="483" on="0"/>
        <pt x="910" y="398" on="1"/>
        <pt x="910" y="313" on="0"/>
        <pt x="845" y="167" on="0"/>
        <pt x="736" y="61" on="0"/>
        <pt x="592" y="0" on="0"/>
        <pt x="512" y="0" on="1"/>
        <pt x="88" y="0" on="1"/>
        <pt x="88" y="45" on="1"/>
        <pt x="112" y="45" on="0"/>
        <pt x="141" y="48" on="0"/>
        <pt x="156" y="59" on="0"/>
        <pt x="161" y="80" on="0"/>
        <pt x="161" y="97" on="1"/>
        <pt x="161" y="712" on="1"/>
        <pt x="161" y="729" on="0"/>
        <pt x="156" y="750" on="0"/>
        <pt x="141" y="761" on="0"/>
        <pt x="112" y="764" on="0"/>
        <pt x="88" y="764" on="1"/>
        <pt x="88" y="809" on="1"/>
      </contour>
      <contour>
        <pt x="475" y="45" on="1"/>
        <pt x="523" y="45" on="0"/>
        <pt x="629" y="80" on="0"/>
        <pt x="719" y="162" on="0"/>
        <pt x="778" y="297" on="0"/>
        <pt x="778" y="398" on="1"/>
        <pt x="778" y="500" on="0"/>
        <pt x="720" y="640" on="0"/>
        <pt x="631" y="726" on="0"/>
        <pt x="524" y="764" on="0"/>
        <pt x="475" y="764" on="1"/>
        <pt x="317" y="764" on="1"/>
        <pt x="304" y="764" on="0"/>
        <pt x="288" y="762" on="0"/>
        <pt x="279" y="753" on="0"/>
        <pt x="276" y="733" on="0"/>
        <pt x="276" y="716" on="1"/>
        <pt x="276" y="93" on="1"/>
        <pt x="276" y="76" on="0"/>
        <pt x="279" y="56" on="0"/>
        <pt x="288" y="47" on="0"/>
        <pt x="304" y="45" on="0"/>
        <pt x="317" y="45" on="1"/>
      </contour>
    </TTGlyph>
    <TTGlyph name="E" xMin="87" yMin="0" xMax="838" yMax="806">
      <contour>
        <pt x="770" y="0" on="1"/>
        <pt x="87" y="0" on="1"/>
        <pt x="87" y="45" on="1"/>
        <pt x="111" y="45" on="0"/>
        <pt x="140" y="48" on="0"/>
        <pt x="155" y="59" on="0"/>
        <pt x="160" y="80" on="0"/>
        <pt x="160" y="97" on="1"/>
        <pt x="160" y="709" on="1"/>
        <pt x="160" y="726" on="0"/>
        <pt x="155" y="747" on="0"/>
        <pt x="140" y="758" on="0"/>
        <pt x="111" y="761" on="0"/>
        <pt x="87" y="761" on="1"/>
        <pt x="87" y="806" on="1"/>
        <pt x="756" y="806" on="1"/>
        <pt x="801" y="570" on="1"/>
        <pt x="728" y="570" on="1"/>
        <pt x="717" y="624" on="0"/>
        <pt x="686" y="697" on="0"/>
        <pt x="632" y="742" on="0"/>
        <pt x="550" y="761" on="0"/>
        <pt x="488" y="761" on="1"/>
        <pt x="319" y="761" on="1"/>
        <pt x="306" y="761" on="0"/>
        <pt x="290" y="759" on="0"/>
        <pt x="281" y="750" on="0"/>
        <pt x="278" y="730" on="0"/>
        <pt x="278" y="713" on="1"/>
        <pt x="278" y="441" on="1"/>
        <pt x="388" y="441" on="1"/>
        <pt x="422" y="441" on="0"/>
        <pt x="471" y="450" on="0"/>
        <pt x="502" y="475" on="0"/>
        <pt x="517" y="520" on="0"/>
        <pt x="517" y="556" on="1"/>
        <pt x="590" y="556" on="1"/>
        <pt x="590" y="281" on="1"/>
        <pt x="517" y="281" on="1"/>
        <pt x="517" y="317" on="0"/>
        <pt x="502" y="362" on="0"/>
        <pt x="471" y="387" on="0"/>
        <pt x="422" y="396" on="0"/>
        <pt x="388" y="396" on="1"/>
        <pt x="278" y="396" on="1"/>
        <pt x="278" y="93" on="1"/>
        <pt x="278" y="76" on="0"/>
        <pt x="281" y="56" on="0"/>
        <pt x="290" y="47" on="0"/>
        <pt x="306" y="45" on="0"/>
        <pt x="319" y="45" on="1"/>
        <pt x="496" y="45" on="1"/>
        <pt x="566" y="45" on="0"/>
        <pt x="657" y="72" on="0"/>
        <pt x="715" y="127" on="0"/>
        <pt x="751" y="211" on="0"/>
        <pt x="765" y="268" on="1"/>
        <pt x="838" y="268" on="1"/>
      </contour>
    </TTGlyph>
    <TTGlyph name="F" xMin="87" yMin="0" xMax="783" yMax="806">
      <contour>
        <pt x="783" y="570" on="1"/>
        <pt x="710" y="570" on="1"/>
        <pt x="700" y="626" on="0"/>
        <pt x="667" y="700" on="0"/>
        <pt x="613" y="743" on="0"/>
        <pt x="534" y="761" on="0"/>
        <pt x="477" y="761" on="1"/>
        <pt x="319" y="761" on="1"/>
        <pt x="306" y="761" on="0"/>
        <pt x="290" y="759" on="0"/>
        <pt x="281" y="750" on="0"/>
        <pt x="278" y="730" on="0"/>
        <pt x="278" y="713" on="1"/>
        <pt x="278" y="426" on="1"/>
        <pt x="383" y="426" on="1"/>
        <pt x="418" y="426" on="0"/>
        <pt x="466" y="435" on="0"/>
        <pt x="496" y="460" on="0"/>
        <pt x="510" y="505" on="0"/>
        <pt x="510" y="541" on="1"/>
        <pt x="583" y="541" on="1"/>
        <pt x="583" y="266" on="1"/>
        <pt x="510" y="266" on="1"/>
        <pt x="510" y="302" on="0"/>
        <pt x="496" y="347" on="0"/>
        <pt x="466" y="372" on="0"/>
        <pt x="418" y="381" on="0"/>
        <pt x="383" y="381" on="1"/>
        <pt x="278" y="381" on="1"/>
        <pt x="278" y="100" on="1"/>
        <pt x="278" y="82" on="0"/>
        <pt x="283" y="60" on="0"/>
        <pt x="302" y="48" on="0"/>
        <pt x="338" y="45" on="0"/>
        <pt x="369" y="45" on="1"/>
        <pt x="369" y="0" on="1"/>
        <pt x="337" y="1" on="0"/>
        <pt x="299" y="2" on="0"/>
        <pt x="272" y="3" on="0"/>
        <pt x="245" y="3" on="0"/>
        <pt x="224" y="3" on="1"/>
        <pt x="199" y="3" on="0"/>
        <pt x="169" y="3" on="0"/>
        <pt x="143" y="2" on="0"/>
        <pt x="113" y="1" on="0"/>
        <pt x="87" y="0" on="1"/>
        <pt x="87" y="45" on="1"/>
        <pt x="111" y="45" on="0"/>
        <pt x="140" y="48" on="0"/>
        <pt x="155" y="59" on="0"/>
        <pt x="160" y="80" on="0"/>
        <pt x="160" y="97" on="1"/>
        <pt x="160" y="709" on="1"/>
        <pt x="160" y="726" on="0"/>
        <pt x="155" y="747" on="0"/>
        <pt x="140" y="758" on="0"/>
        <pt x="111" y="761" on="0"/>
        <pt x="87" y="761" on="1"/>
        <pt x="87" y="806" on="1"/>
        <pt x="738" y="806" on="1"/>
      </contour>
    </TTGlyph>
    <TTGlyph name="G" xMin="73" yMin="-28" xMax="965" yMax="837">
      <contour>
        <pt x="874" y="35" on="1"/>
        <pt x="874" y="30" on="0"/>
        <pt x="873" y="18" on="0"/>
        <pt x="869" y="7" on="0"/>
        <pt x="860" y="0" on="0"/>
        <pt x="852" y="0" on="1"/>
        <pt x="845" y="0" on="0"/>
        <pt x="827" y="14" on="0"/>
        <pt x="809" y="32" on="0"/>
        <pt x="794" y="51" on="0"/>
        <pt x="791" y="55" on="1"/>
        <pt x="766" y="30" on="0"/>
        <pt x="704" y="-3" on="0"/>
        <pt x="635" y="-21" on="0"/>
        <pt x="563" y="-28" on="0"/>
        <pt x="527" y="-28" on="1"/>
        <pt x="429" y="-28" on="0"/>
        <pt x="263" y="42" on="0"/>
        <pt x="141" y="160" on="0"/>
        <pt x="73" y="318" on="0"/>
        <pt x="73" y="405" on="1"/>
        <pt x="73" y="495" on="0"/>
        <pt x="144" y="652" on="0"/>
        <pt x="266" y="769" on="0"/>
        <pt x="430" y="837" on="0"/>
        <pt x="522" y="837" on="1"/>
        <pt x="588" y="837" on="0"/>
        <pt x="709" y="790" on="0"/>
        <pt x="763" y="740" on="1"/>
        <pt x="821" y="822" on="1"/>
        <pt x="826" y="830" on="0"/>
        <pt x="836" y="837" on="0"/>
        <pt x="847" y="837" on="1"/>
        <pt x="867" y="837" on="0"/>
        <pt x="874" y="816" on="0"/>
        <pt x="874" y="802" on="1"/>
        <pt x="874" y="520" on="1"/>
        <pt x="874" y="495" on="0"/>
        <pt x="859" y="485" on="0"/>
        <pt x="837" y="485" on="1"/>
        <pt x="827" y="485" on="0"/>
        <pt x="804" y="489" on="0"/>
        <pt x="802" y="503" on="1"/>
        <pt x="799" y="522" on="0"/>
        <pt x="789" y="572" on="0"/>
        <pt x="768" y="629" on="0"/>
        <pt x="730" y="690" on="0"/>
        <pt x="699" y="721" on="1"/>
        <pt x="692" y="727" on="0"/>
        <pt x="663" y="751" on="0"/>
        <pt x="618" y="775" on="0"/>
        <pt x="559" y="792" on="0"/>
        <pt x="523" y="792" on="1"/>
        <pt x="467" y="792" on="0"/>
        <pt x="354" y="743" on="0"/>
        <pt x="264" y="645" on="0"/>
        <pt x="208" y="500" on="0"/>
        <pt x="208" y="404" on="1"/>
        <pt x="208" y="313" on="0"/>
        <pt x="261" y="169" on="0"/>
        <pt x="350" y="70" on="0"/>
        <pt x="465" y="17" on="0"/>
        <pt x="526" y="17" on="1"/>
        <pt x="530" y="17" on="0"/>
        <pt x="568" y="18" on="0"/>
        <pt x="619" y="26" on="0"/>
        <pt x="676" y="44" on="0"/>
        <pt x="724" y="76" on="0"/>
        <pt x="756" y="126" on="0"/>
        <pt x="756" y="162" on="1"/>
        <pt x="756" y="246" on="1"/>
        <pt x="756" y="264" on="0"/>
        <pt x="750" y="287" on="0"/>
        <pt x="725" y="301" on="0"/>
        <pt x="676" y="307" on="0"/>
        <pt x="633" y="307" on="1"/>
        <pt x="592" y="307" on="1"/>
        <pt x="592" y="352" on="1"/>
        <pt x="606" y="351" on="0"/>
        <pt x="661" y="350" on="0"/>
        <pt x="721" y="349" on="0"/>
        <pt x="779" y="349" on="0"/>
        <pt x="796" y="349" on="1"/>
        <pt x="826" y="349" on="0"/>
        <pt x="863" y="349" on="0"/>
        <pt x="895" y="350" on="0"/>
        <pt x="933" y="351" on="0"/>
        <pt x="965" y="352" on="1"/>
        <pt x="965" y="307" on="1"/>
        <pt x="934" y="307" on="0"/>
        <pt x="898" y="304" on="0"/>
        <pt x="879" y="292" on="0"/>
        <pt x="874" y="270" on="0"/>
        <pt x="874" y="252" on="1"/>
      </contour>
    </TTGlyph>
    <TTGlyph name="Gamma" xMin="87" yMin="0" xMax="746" yMax="806">
      <contour>
        <pt x="746" y="570" on="1"/>
        <pt x="673" y="570" on="1"/>
        <pt x="664" y="620" on="0"/>
        <pt x="638" y="692" on="0"/>
        <pt x="590" y="738" on="0"/>
        <pt x="514" y="761" on="0"/>
        <pt x="455" y="761" on="1"/>
        <pt x="319" y="761" on="1"/>
        <pt x="306" y="761" on="0"/>
        <pt x="290" y="759" on="0"/>
        <pt x="281" y="750" on="0"/>
        <pt x="278" y="730" on="0"/>
        <pt x="278" y="713" on="1"/>
        <pt x="278" y="100" on="1"/>
        <pt x="278" y="82" on="0"/>
        <pt x="283" y="60" on="0"/>
        <pt x="302" y="48" on="0"/>
        <pt x="338" y="45" on="0"/>
        <pt x="369" y="45" on="1"/>
        <pt x="369" y="0" on="1"/>
        <pt x="337" y="1" on="0"/>
        <pt x="299" y="2" on="0"/>
        <pt x="272" y="3" on="0"/>
        <pt x="245" y="3" on="0"/>
        <pt x="224" y="3" on="1"/>
        <pt x="199" y="3" on="0"/>
        <pt x="169" y="3" on="0"/>
        <pt x="143" y="2" on="0"/>
        <pt x="113" y="1" on="0"/>
        <pt x="87" y="0" on="1"/>
        <pt x="87" y="45" on="1"/>
        <pt x="111" y="45" on="0"/>
        <pt x="140" y="48" on="0"/>
        <pt x="155" y="59" on="0"/>
        <pt x="160" y="80" on="0"/>
        <pt x="160" y="97" on="1"/>
        <pt x="160" y="709" on="1"/>
        <pt x="160" y="726" on="0"/>
        <pt x="155" y="747" on="0"/>
        <pt x="140" y="758" on="0"/>
        <pt x="111" y="761" on="0"/>
        <pt x="87" y="761" on="1"/>
        <pt x="87" y="806" on="1"/>
        <pt x="701" y="806" on="1"/>
      </contour>
    </TTGlyph>
    <TTGlyph name="H" xMin="87" yMin="0" xMax="860" yMax="809">
      <contour>
        <pt x="787" y="97" on="1"/>
        <pt x="787" y="80" on="0"/>
        <pt x="792" y="59" on="0"/>
        <pt x="807" y="48" on="0"/>
        <pt x="836" y="45" on="0"/>
        <pt x="860" y="45" on="1"/>
        <pt x="860" y="0" on="1"/>
        <pt x="835" y="1" on="0"/>
        <pt x="804" y="2" on="0"/>
        <pt x="779" y="3" on="0"/>
        <pt x="751" y="3" on="0"/>
        <pt x="728" y="3" on="1"/>
        <pt x="705" y="3" on="0"/>
        <pt x="677" y="3" on="0"/>
        <pt x="652" y="2" on="0"/>
        <pt x="622" y="1" on="0"/>
        <pt x="596" y="0" on="1"/>
        <pt x="596" y="45" on="1"/>
        <pt x="620" y="45" on="0"/>
        <pt x="649" y="48" on="0"/>
        <pt x="664" y="59" on="0"/>
        <pt x="669" y="80" on="0"/>
        <pt x="669" y="97" on="1"/>
        <pt x="669" y="398" on="1"/>
        <pt x="278" y="398" on="1"/>
        <pt x="278" y="97" on="1"/>
        <pt x="278" y="80" on="0"/>
        <pt x="283" y="59" on="0"/>
        <pt x="298" y="48" on="0"/>
        <pt x="327" y="45" on="0"/>
        <pt x="351" y="45" on="1"/>
        <pt x="351" y="0" on="1"/>
        <pt x="326" y="1" on="0"/>
        <pt x="295" y="2" on="0"/>
        <pt x="270" y="3" on="0"/>
        <pt x="242" y="3" on="0"/>
        <pt x="219" y="3" on="1"/>
        <pt x="196" y="3" on="0"/>
        <pt x="168" y="3" on="0"/>
        <pt x="143" y="2" on="0"/>
        <pt x="113" y="1" on="0"/>
        <pt x="87" y="0" on="1"/>
        <pt x="87" y="45" on="1"/>
        <pt x="111" y="45" on="0"/>
        <pt x="140" y="48" on="0"/>
        <pt x="155" y="59" on="0"/>
        <pt x="160" y="80" on="0"/>
        <pt x="160" y="97" on="1"/>
        <pt x="160" y="712" on="1"/>
        <pt x="160" y="729" on="0"/>
        <pt x="155" y="750" on="0"/>
        <pt x="140" y="761" on="0"/>
        <pt x="111" y="764" on="0"/>
        <pt x="87" y="764" on="1"/>
        <pt x="87" y="809" on="1"/>
        <pt x="113" y="808" on="0"/>
        <pt x="143" y="807" on="0"/>
        <pt x="168" y="806" on="0"/>
        <pt x="196" y="806" on="0"/>
        <pt x="219" y="806" on="1"/>
        <pt x="242" y="806" on="0"/>
        <pt x="270" y="806" on="0"/>
        <pt x="295" y="807" on="0"/>
        <pt x="326" y="808" on="0"/>
        <pt x="351" y="809" on="1"/>
        <pt x="351" y="764" on="1"/>
        <pt x="327" y="764" on="0"/>
        <pt x="298" y="761" on="0"/>
        <pt x="283" y="750" on="0"/>
        <pt x="278" y="729" on="0"/>
        <pt x="278" y="712" on="1"/>
        <pt x="278" y="443" on="1"/>
        <pt x="669" y="443" on="1"/>
        <pt x="669" y="712" on="1"/>
        <pt x="669" y="729" on="0"/>
        <pt x="664" y="750" on="0"/>
        <pt x="649" y="761" on="0"/>
        <pt x="620" y="764" on="0"/>
        <pt x="596" y="764" on="1"/>
        <pt x="596" y="809" on="1"/>
        <pt x="622" y="808" on="0"/>
        <pt x="652" y="807" on="0"/>
        <pt x="677" y="806" on="0"/>
        <pt x="705" y="806" on="0"/>
        <pt x="728" y="806" on="1"/>
        <pt x="751" y="806" on="0"/>
        <pt x="779" y="806" on="0"/>
        <pt x="804" y="807" on="0"/>
        <pt x="835" y="808" on="0"/>
        <pt x="860" y="809" on="1"/>
        <pt x="860" y="764" on="1"/>
        <pt x="836" y="764" on="0"/>
        <pt x="807" y="761" on="0"/>
        <pt x="792" y="750" on="0"/>
        <pt x="787" y="729" on="0"/>
        <pt x="787" y="712" on="1"/>
      </contour>
    </TTGlyph>
    <TTGlyph name="I" xMin="82" yMin="0" xMax="354" yMax="809">
      <contour>
        <pt x="277" y="97" on="1"/>
        <pt x="277" y="80" on="0"/>
        <pt x="281" y="60" on="0"/>
        <pt x="297" y="49" on="0"/>
        <pt x="328" y="45" on="0"/>
        <pt x="354" y="45" on="1"/>
        <pt x="354" y="0" on="1"/>
        <pt x="327" y="1" on="0"/>
        <pt x="295" y="2" on="0"/>
        <pt x="269" y="3" on="0"/>
        <pt x="241" y="3" on="0"/>
        <pt x="218" y="3" on="1"/>
        <pt x="195" y="3" on="0"/>
        <pt x="167" y="3" on="0"/>
        <pt x="141" y="2" on="0"/>
        <pt x="109" y="1" on="0"/>
        <pt x="82" y="0" on="1"/>
        <pt x="82" y="45" on="1"/>
        <pt x="108" y="45" on="0"/>
        <pt x="139" y="49" on="0"/>
        <pt x="155" y="60" on="0"/>
        <pt x="159" y="80" on="0"/>
        <pt x="159" y="97" on="1"/>
        <pt x="159" y="712" on="1"/>
        <pt x="159" y="729" on="0"/>
        <pt x="155" y="749" on="0"/>
        <pt x="139" y="760" on="0"/>
        <pt x="108" y="764" on="0"/>
        <pt x="82" y="764" on="1"/>
        <pt x="82" y="809" on="1"/>
        <pt x="109" y="808" on="0"/>
        <pt x="141" y="807" on="0"/>
        <pt x="167" y="806" on="0"/>
        <pt x="195" y="806" on="0"/>
        <pt x="218" y="806" on="1"/>
        <pt x="241" y="806" on="0"/>
        <pt x="269" y="806" on="0"/>
        <pt x="295" y="807" on="0"/>
        <pt x="327" y="808" on="0"/>
        <pt x="354" y="809" on="1"/>
        <pt x="354" y="764" on="1"/>
        <pt x="328" y="764" on="0"/>
        <pt x="297" y="760" on="0"/>
        <pt x="281" y="749" on="0"/>
        <pt x="277" y="729" on="0"/>
        <pt x="277" y="712" on="1"/>
      </contour>
    </TTGlyph>
    <TTGlyph name="J" xMin="83" yMin="-28" xMax="564" yMax="809">
      <contour>
        <pt x="394" y="708" on="1"/>
        <pt x="394" y="727" on="0"/>
        <pt x="389" y="749" on="0"/>
        <pt x="369" y="761" on="0"/>
        <pt x="332" y="764" on="0"/>
        <pt x="299" y="764" on="1"/>
        <pt x="299" y="809" on="1"/>
        <pt x="329" y="808" on="0"/>
        <pt x="364" y="807" on="0"/>
        <pt x="391" y="806" on="0"/>
        <pt x="419" y="806" on="0"/>
        <pt x="441" y="806" on="1"/>
        <pt x="465" y="806" on="0"/>
        <pt x="534" y="807" on="0"/>
        <pt x="564" y="809" on="1"/>
        <pt x="564" y="764" on="1"/>
        <pt x="543" y="764" on="0"/>
        <pt x="521" y="760" on="0"/>
        <pt x="511" y="746" on="0"/>
        <pt x="509" y="720" on="0"/>
        <pt x="509" y="697" on="1"/>
        <pt x="509" y="235" on="1"/>
        <pt x="509" y="223" on="0"/>
        <pt x="509" y="195" on="0"/>
        <pt x="509" y="169" on="0"/>
        <pt x="508" y="148" on="0"/>
        <pt x="507" y="143" on="1"/>
        <pt x="501" y="105" on="0"/>
        <pt x="461" y="42" on="0"/>
        <pt x="401" y="-3" on="0"/>
        <pt x="326" y="-28" on="0"/>
        <pt x="285" y="-28" on="1"/>
        <pt x="244" y="-28" on="0"/>
        <pt x="170" y="-4" on="0"/>
        <pt x="115" y="39" on="0"/>
        <pt x="83" y="98" on="0"/>
        <pt x="83" y="132" on="1"/>
        <pt x="83" y="151" on="0"/>
        <pt x="96" y="175" on="0"/>
        <pt x="115" y="189" on="0"/>
        <pt x="135" y="194" on="0"/>
        <pt x="142" y="194" on="1"/>
        <pt x="164" y="194" on="0"/>
        <pt x="201" y="164" on="0"/>
        <pt x="201" y="135" on="1"/>
        <pt x="201" y="122" on="0"/>
        <pt x="193" y="104" on="0"/>
        <pt x="183" y="91" on="0"/>
        <pt x="173" y="84" on="0"/>
        <pt x="170" y="82" on="1"/>
        <pt x="189" y="47" on="0"/>
        <pt x="255" y="17" on="0"/>
        <pt x="284" y="17" on="1"/>
        <pt x="304" y="17" on="0"/>
        <pt x="344" y="38" on="0"/>
        <pt x="375" y="78" on="0"/>
        <pt x="394" y="137" on="0"/>
        <pt x="394" y="174" on="1"/>
      </contour>
    </TTGlyph>
    <TTGlyph name="K" xMin="87" yMin="0" xMax="929" yMax="809">
      <contour>
        <pt x="823" y="109" on="1"/>
        <pt x="840" y="87" on="0"/>
        <pt x="866" y="62" on="0"/>
        <pt x="890" y="49" on="0"/>
        <pt x="914" y="45" on="0"/>
        <pt x="929" y="45" on="1"/>
        <pt x="929" y="0" on="1"/>
        <pt x="916" y="1" on="0"/>
        <pt x="883" y="2" on="0"/>
        <pt x="852" y="3" on="0"/>
        <pt x="824" y="3" on="0"/>
        <pt x="815" y="3" on="1"/>
        <pt x="796" y="3" on="0"/>
        <pt x="773" y="3" on="0"/>
        <pt x="748" y="2" on="0"/>
        <pt x="715" y="1" on="0"/>
        <pt x="687" y="0" on="1"/>
        <pt x="687" y="45" on="1"/>
        <pt x="695" y="46" on="0"/>
        <pt x="707" y="55" on="0"/>
        <pt x="707" y="63" on="1"/>
        <pt x="707" y="77" on="0"/>
        <pt x="685" y="109" on="0"/>
        <pt x="676" y="120" on="1"/>
        <pt x="444" y="415" on="1"/>
        <pt x="278" y="272" on="1"/>
        <pt x="278" y="97" on="1"/>
        <pt x="278" y="80" on="0"/>
        <pt x="283" y="59" on="0"/>
        <pt x="298" y="48" on="0"/>
        <pt x="327" y="45" on="0"/>
        <pt x="351" y="45" on="1"/>
        <pt x="351" y="0" on="1"/>
        <pt x="326" y="1" on="0"/>
        <pt x="295" y="2" on="0"/>
        <pt x="270" y="3" on="0"/>
        <pt x="242" y="3" on="0"/>
        <pt x="219" y="3" on="1"/>
        <pt x="196" y="3" on="0"/>
        <pt x="168" y="3" on="0"/>
        <pt x="143" y="2" on="0"/>
        <pt x="113" y="1" on="0"/>
        <pt x="87" y="0" on="1"/>
        <pt x="87" y="45" on="1"/>
        <pt x="111" y="45" on="0"/>
        <pt x="140" y="48" on="0"/>
        <pt x="155" y="59" on="0"/>
        <pt x="160" y="80" on="0"/>
        <pt x="160" y="97" on="1"/>
        <pt x="160" y="712" on="1"/>
        <pt x="160" y="729" on="0"/>
        <pt x="155" y="750" on="0"/>
        <pt x="140" y="761" on="0"/>
        <pt x="111" y="764" on="0"/>
        <pt x="87" y="764" on="1"/>
        <pt x="87" y="809" on="1"/>
        <pt x="113" y="808" on="0"/>
        <pt x="143" y="807" on="0"/>
        <pt x="168" y="806" on="0"/>
        <pt x="196" y="806" on="0"/>
        <pt x="219" y="806" on="1"/>
        <pt x="242" y="806" on="0"/>
        <pt x="270" y="806" on="0"/>
        <pt x="295" y="807" on="0"/>
        <pt x="326" y="808" on="0"/>
        <pt x="351" y="809" on="1"/>
        <pt x="351" y="764" on="1"/>
        <pt x="327" y="764" on="0"/>
        <pt x="298" y="761" on="0"/>
        <pt x="283" y="750" on="0"/>
        <pt x="278" y="729" on="0"/>
        <pt x="278" y="712" on="1"/>
        <pt x="278" y="368" on="1"/>
        <pt x="643" y="682" on="1"/>
        <pt x="676" y="710" on="0"/>
        <pt x="697" y="749" on="0"/>
        <pt x="697" y="755" on="1"/>
        <pt x="697" y="757" on="0"/>
        <pt x="695" y="763" on="0"/>
        <pt x="690" y="764" on="1"/>
        <pt x="690" y="809" on="1"/>
        <pt x="716" y="808" on="0"/>
        <pt x="745" y="807" on="0"/>
        <pt x="768" y="806" on="0"/>
        <pt x="791" y="806" on="0"/>
        <pt x="810" y="806" on="1"/>
        <pt x="830" y="806" on="0"/>
        <pt x="887" y="807" on="0"/>
        <pt x="910" y="809" on="1"/>
        <pt x="910" y="764" on="1"/>
        <pt x="887" y="763" on="0"/>
        <pt x="839" y="742" on="0"/>
        <pt x="799" y="717" on="0"/>
        <pt x="768" y="692" on="0"/>
        <pt x="762" y="687" on="1"/>
        <pt x="526" y="485" on="1"/>
      </contour>
    </TTGlyph>
    <TTGlyph name="L" xMin="87" yMin="0" xMax="746" yMax="809">
      <contour>
        <pt x="701" y="0" on="1"/>
        <pt x="87" y="0" on="1"/>
        <pt x="87" y="45" on="1"/>
        <pt x="111" y="45" on="0"/>
        <pt x="140" y="48" on="0"/>
        <pt x="155" y="59" on="0"/>
        <pt x="160" y="80" on="0"/>
        <pt x="160" y="97" on="1"/>
        <pt x="160" y="712" on="1"/>
        <pt x="160" y="729" on="0"/>
        <pt x="155" y="750" on="0"/>
        <pt x="140" y="761" on="0"/>
        <pt x="111" y="764" on="0"/>
        <pt x="87" y="764" on="1"/>
        <pt x="87" y="809" on="1"/>
        <pt x="113" y="808" on="0"/>
        <pt x="143" y="807" on="0"/>
        <pt x="169" y="806" on="0"/>
        <pt x="199" y="806" on="0"/>
        <pt x="224" y="806" on="1"/>
        <pt x="245" y="806" on="0"/>
        <pt x="272" y="806" on="0"/>
        <pt x="299" y="807" on="0"/>
        <pt x="337" y="808" on="0"/>
        <pt x="369" y="809" on="1"/>
        <pt x="369" y="764" on="1"/>
        <pt x="338" y="764" on="0"/>
        <pt x="302" y="761" on="0"/>
        <pt x="283" y="749" on="0"/>
        <pt x="278" y="727" on="0"/>
        <pt x="278" y="709" on="1"/>
        <pt x="278" y="93" on="1"/>
        <pt x="278" y="76" on="0"/>
        <pt x="281" y="56" on="0"/>
        <pt x="290" y="47" on="0"/>
        <pt x="306" y="45" on="0"/>
        <pt x="319" y="45" on="1"/>
        <pt x="431" y="45" on="1"/>
        <pt x="499" y="45" on="0"/>
        <pt x="586" y="82" on="0"/>
        <pt x="640" y="144" on="0"/>
        <pt x="666" y="225" on="0"/>
        <pt x="673" y="268" on="1"/>
        <pt x="746" y="268" on="1"/>
      </contour>
    </TTGlyph>
    <TTGlyph name="Lambda" xMin="46" yMin="0" xMax="828" yMax="851">
      <contour>
        <pt x="754" y="89" on="1"/>
        <pt x="760" y="74" on="0"/>
        <pt x="772" y="56" on="0"/>
        <pt x="789" y="47" on="0"/>
        <pt x="812" y="45" on="0"/>
        <pt x="828" y="45" on="1"/>
        <pt x="828" y="0" on="1"/>
        <pt x="798" y="2" on="0"/>
        <pt x="729" y="3" on="0"/>
        <pt x="709" y="3" on="1"/>
        <pt x="687" y="3" on="0"/>
        <pt x="661" y="3" on="0"/>
        <pt x="637" y="2" on="0"/>
        <pt x="607" y="1" on="0"/>
        <pt x="581" y="0" on="1"/>
        <pt x="581" y="45" on="1"/>
        <pt x="587" y="45" on="0"/>
        <pt x="603" y="46" on="0"/>
        <pt x="619" y="52" on="0"/>
        <pt x="630" y="64" on="0"/>
        <pt x="630" y="76" on="1"/>
        <pt x="630" y="82" on="0"/>
        <pt x="629" y="89" on="0"/>
        <pt x="624" y="100" on="1"/>
        <pt x="413" y="679" on="1"/>
        <pt x="214" y="135" on="1"/>
        <pt x="213" y="133" on="0"/>
        <pt x="206" y="107" on="0"/>
        <pt x="206" y="95" on="1"/>
        <pt x="206" y="78" on="0"/>
        <pt x="216" y="59" on="0"/>
        <pt x="229" y="48" on="0"/>
        <pt x="242" y="45" on="0"/>
        <pt x="245" y="45" on="1"/>
        <pt x="245" y="0" on="1"/>
        <pt x="230" y="1" on="0"/>
        <pt x="197" y="2" on="0"/>
        <pt x="168" y="3" on="0"/>
        <pt x="145" y="3" on="0"/>
        <pt x="141" y="3" on="1"/>
        <pt x="126" y="3" on="0"/>
        <pt x="69" y="2" on="0"/>
        <pt x="46" y="0" on="1"/>
        <pt x="46" y="45" on="1"/>
        <pt x="106" y="48" on="0"/>
        <pt x="134" y="127" on="1"/>
        <pt x="387" y="821" on="1"/>
        <pt x="395" y="844" on="0"/>
        <pt x="417" y="851" on="0"/>
        <pt x="434" y="851" on="1"/>
        <pt x="440" y="851" on="1"/>
        <pt x="457" y="851" on="0"/>
        <pt x="479" y="844" on="0"/>
        <pt x="487" y="821" on="1"/>
      </contour>
    </TTGlyph>
    <TTGlyph name="M" xMin="92" yMin="0" xMax="1074" yMax="809">
      <contour>
        <pt x="846" y="781" on="1"/>
        <pt x="854" y="802" on="0"/>
        <pt x="880" y="809" on="0"/>
        <pt x="894" y="809" on="1"/>
        <pt x="1074" y="809" on="1"/>
        <pt x="1074" y="764" on="1"/>
        <pt x="1050" y="764" on="0"/>
        <pt x="1021" y="761" on="0"/>
        <pt x="1006" y="750" on="0"/>
        <pt x="1001" y="729" on="0"/>
        <pt x="1001" y="712" on="1"/>
        <pt x="1001" y="97" on="1"/>
        <pt x="1001" y="80" on="0"/>
        <pt x="1006" y="59" on="0"/>
        <pt x="1021" y="48" on="0"/>
        <pt x="1050" y="45" on="0"/>
        <pt x="1074" y="45" on="1"/>
        <pt x="1074" y="0" on="1"/>
        <pt x="1033" y="2" on="0"/>
        <pt x="976" y="3" on="0"/>
        <pt x="947" y="3" on="1"/>
        <pt x="918" y="3" on="0"/>
        <pt x="861" y="2" on="0"/>
        <pt x="820" y="0" on="1"/>
        <pt x="820" y="45" on="1"/>
        <pt x="844" y="45" on="0"/>
        <pt x="873" y="48" on="0"/>
        <pt x="888" y="59" on="0"/>
        <pt x="893" y="80" on="0"/>
        <pt x="893" y="97" on="1"/>
        <pt x="893" y="720" on="1"/>
        <pt x="892" y="721" on="1"/>
        <pt x="612" y="30" on="1"/>
        <pt x="606" y="15" on="0"/>
        <pt x="591" y="0" on="0"/>
        <pt x="565" y="0" on="1"/>
        <pt x="553" y="0" on="0"/>
        <pt x="527" y="7" on="0"/>
        <pt x="519" y="27" on="1"/>
        <pt x="242" y="713" on="1"/>
        <pt x="241" y="712" on="1"/>
        <pt x="241" y="135" on="1"/>
        <pt x="241" y="122" on="0"/>
        <pt x="245" y="90" on="0"/>
        <pt x="259" y="63" on="0"/>
        <pt x="289" y="45" on="0"/>
        <pt x="314" y="45" on="1"/>
        <pt x="314" y="0" on="1"/>
        <pt x="299" y="1" on="0"/>
        <pt x="267" y="2" on="0"/>
        <pt x="236" y="3" on="0"/>
        <pt x="211" y="3" on="0"/>
        <pt x="203" y="3" on="1"/>
        <pt x="196" y="3" on="0"/>
        <pt x="171" y="3" on="0"/>
        <pt x="140" y="2" on="0"/>
        <pt x="107" y="1" on="0"/>
        <pt x="92" y="0" on="1"/>
        <pt x="92" y="45" on="1"/>
        <pt x="118" y="45" on="0"/>
        <pt x="147" y="64" on="0"/>
        <pt x="161" y="91" on="0"/>
        <pt x="165" y="122" on="0"/>
        <pt x="165" y="135" on="1"/>
        <pt x="165" y="712" on="1"/>
        <pt x="165" y="729" on="0"/>
        <pt x="160" y="750" on="0"/>
        <pt x="145" y="761" on="0"/>
        <pt x="116" y="764" on="0"/>
        <pt x="92" y="764" on="1"/>
        <pt x="92" y="809" on="1"/>
        <pt x="271" y="809" on="1"/>
        <pt x="285" y="809" on="0"/>
        <pt x="311" y="802" on="0"/>
        <pt x="319" y="781" on="1"/>
        <pt x="582" y="128" on="1"/>
      </contour>
    </TTGlyph>
    <TTGlyph name="N" xMin="87" yMin="0" xMax="860" yMax="809">
      <contour>
        <pt x="711" y="199" on="1"/>
        <pt x="711" y="674" on="1"/>
        <pt x="711" y="688" on="0"/>
        <pt x="707" y="719" on="0"/>
        <pt x="693" y="746" on="0"/>
        <pt x="664" y="764" on="0"/>
        <pt x="638" y="764" on="1"/>
        <pt x="638" y="809" on="1"/>
        <pt x="653" y="808" on="0"/>
        <pt x="685" y="807" on="0"/>
        <pt x="716" y="806" on="0"/>
        <pt x="742" y="806" on="0"/>
        <pt x="749" y="806" on="1"/>
        <pt x="756" y="806" on="0"/>
        <pt x="781" y="806" on="0"/>
        <pt x="812" y="807" on="0"/>
        <pt x="845" y="808" on="0"/>
        <pt x="860" y="809" on="1"/>
        <pt x="860" y="764" on="1"/>
        <pt x="835" y="764" on="0"/>
        <pt x="805" y="745" on="0"/>
        <pt x="791" y="718" on="0"/>
        <pt x="787" y="687" on="0"/>
        <pt x="787" y="674" on="1"/>
        <pt x="787" y="35" on="1"/>
        <pt x="787" y="12" on="0"/>
        <pt x="774" y="0" on="0"/>
        <pt x="752" y="0" on="1"/>
        <pt x="746" y="0" on="1"/>
        <pt x="731" y="0" on="0"/>
        <pt x="719" y="4" on="0"/>
        <pt x="710" y="16" on="1"/>
        <pt x="236" y="674" on="1"/>
        <pt x="236" y="135" on="1"/>
        <pt x="236" y="122" on="0"/>
        <pt x="240" y="90" on="0"/>
        <pt x="254" y="63" on="0"/>
        <pt x="284" y="45" on="0"/>
        <pt x="309" y="45" on="1"/>
        <pt x="309" y="0" on="1"/>
        <pt x="294" y="1" on="0"/>
        <pt x="262" y="2" on="0"/>
        <pt x="231" y="3" on="0"/>
        <pt x="206" y="3" on="0"/>
        <pt x="198" y="3" on="1"/>
        <pt x="191" y="3" on="0"/>
        <pt x="166" y="3" on="0"/>
        <pt x="135" y="2" on="0"/>
        <pt x="102" y="1" on="0"/>
        <pt x="87" y="0" on="1"/>
        <pt x="87" y="45" on="1"/>
        <pt x="113" y="45" on="0"/>
        <pt x="142" y="64" on="0"/>
        <pt x="156" y="91" on="0"/>
        <pt x="160" y="122" on="0"/>
        <pt x="160" y="135" on="1"/>
        <pt x="160" y="757" on="1"/>
        <pt x="143" y="762" on="0"/>
        <pt x="105" y="764" on="0"/>
        <pt x="87" y="764" on="1"/>
        <pt x="87" y="809" on="1"/>
        <pt x="247" y="809" on="1"/>
        <pt x="264" y="809" on="0"/>
        <pt x="274" y="804" on="0"/>
        <pt x="283" y="792" on="1"/>
      </contour>
    </TTGlyph>
    <TTGlyph name="O" xMin="73" yMin="-28" xMax="947" yMax="837">
      <contour>
        <pt x="947" y="402" on="1"/>
        <pt x="947" y="312" on="0"/>
        <pt x="878" y="156" on="0"/>
        <pt x="760" y="39" on="0"/>
        <pt x="600" y="-28" on="0"/>
        <pt x="510" y="-28" on="1"/>
        <pt x="420" y="-28" on="0"/>
        <pt x="261" y="39" on="0"/>
        <pt x="142" y="156" on="0"/>
        <pt x="73" y="312" on="0"/>
        <pt x="73" y="402" on="1"/>
        <pt x="73" y="491" on="0"/>
        <pt x="141" y="649" on="0"/>
        <pt x="260" y="768" on="0"/>
        <pt x="419" y="837" on="0"/>
        <pt x="510" y="837" on="1"/>
        <pt x="601" y="837" on="0"/>
        <pt x="760" y="768" on="0"/>
        <pt x="879" y="649" on="0"/>
        <pt x="947" y="491" on="0"/>
      </contour>
      <contour>
        <pt x="510" y="22" on="1"/>
        <pt x="568" y="22" on="0"/>
        <pt x="677" y="76" on="0"/>
        <pt x="761" y="178" on="0"/>
        <pt x="812" y="325" on="0"/>
        <pt x="812" y="419" on="1"/>
        <pt x="812" y="509" on="0"/>
        <pt x="760" y="647" on="0"/>
        <pt x="675" y="741" on="0"/>
        <pt x="567" y="789" on="0"/>
        <pt x="510" y="789" on="1"/>
        <pt x="454" y="789" on="0"/>
        <pt x="345" y="741" on="0"/>
        <pt x="260" y="647" on="0"/>
        <pt x="208" y="509" on="0"/>
        <pt x="208" y="419" on="1"/>
        <pt x="208" y="325" on="0"/>
        <pt x="259" y="178" on="0"/>
        <pt x="343" y="76" on="0"/>
        <pt x="452" y="22" on="0"/>
      </contour>
    </TTGlyph>
    <TTGlyph name="OE" xMin="73" yMin="-28" xMax="1275" yMax="837">
      <contour>
        <pt x="1207" y="0" on="1"/>
        <pt x="712" y="0" on="1"/>
        <pt x="691" y="0" on="0"/>
        <pt x="646" y="-6" on="0"/>
        <pt x="605" y="-15" on="1"/>
        <pt x="560" y="-25" on="0"/>
        <pt x="519" y="-28" on="0"/>
        <pt x="507" y="-28" on="1"/>
        <pt x="420" y="-28" on="0"/>
        <pt x="263" y="37" on="0"/>
        <pt x="144" y="153" on="0"/>
        <pt x="73" y="310" on="0"/>
        <pt x="73" y="402" on="1"/>
        <pt x="73" y="493" on="0"/>
        <pt x="143" y="652" on="0"/>
        <pt x="262" y="769" on="0"/>
        <pt x="419" y="837" on="0"/>
        <pt x="507" y="837" on="1"/>
        <pt x="527" y="837" on="0"/>
        <pt x="571" y="832" on="0"/>
        <pt x="615" y="822" on="1"/>
        <pt x="660" y="812" on="0"/>
        <pt x="701" y="809" on="0"/>
        <pt x="712" y="809" on="1"/>
        <pt x="1193" y="809" on="1"/>
        <pt x="1238" y="573" on="1"/>
        <pt x="1165" y="573" on="1"/>
        <pt x="1156" y="623" on="0"/>
        <pt x="1130" y="695" on="0"/>
        <pt x="1082" y="741" on="0"/>
        <pt x="1006" y="764" on="0"/>
        <pt x="947" y="764" on="1"/>
        <pt x="806" y="764" on="1"/>
        <pt x="793" y="764" on="0"/>
        <pt x="777" y="762" on="0"/>
        <pt x="768" y="753" on="0"/>
        <pt x="765" y="733" on="0"/>
        <pt x="765" y="716" on="1"/>
        <pt x="765" y="442" on="1"/>
        <pt x="891" y="442" on="1"/>
        <pt x="925" y="442" on="0"/>
        <pt x="976" y="450" on="0"/>
        <pt x="1010" y="474" on="0"/>
        <pt x="1027" y="520" on="0"/>
        <pt x="1027" y="557" on="1"/>
        <pt x="1100" y="557" on="1"/>
        <pt x="1100" y="282" on="1"/>
        <pt x="1027" y="282" on="1"/>
        <pt x="1027" y="320" on="0"/>
        <pt x="1010" y="365" on="0"/>
        <pt x="976" y="389" on="0"/>
        <pt x="925" y="397" on="0"/>
        <pt x="891" y="397" on="1"/>
        <pt x="765" y="397" on="1"/>
        <pt x="765" y="93" on="1"/>
        <pt x="765" y="76" on="0"/>
        <pt x="768" y="56" on="0"/>
        <pt x="777" y="47" on="0"/>
        <pt x="793" y="45" on="0"/>
        <pt x="806" y="45" on="1"/>
        <pt x="949" y="45" on="1"/>
        <pt x="1018" y="45" on="0"/>
        <pt x="1105" y="75" on="0"/>
        <pt x="1158" y="132" on="0"/>
        <pt x="1189" y="215" on="0"/>
        <pt x="1202" y="268" on="1"/>
        <pt x="1275" y="268" on="1"/>
      </contour>
      <contour>
        <pt x="513" y="17" on="1"/>
        <pt x="560" y="17" on="0"/>
        <pt x="616" y="39" on="0"/>
        <pt x="645" y="92" on="0"/>
        <pt x="655" y="179" on="0"/>
        <pt x="655" y="244" on="1"/>
        <pt x="655" y="285" on="0"/>
        <pt x="656" y="364" on="0"/>
        <pt x="656" y="405" on="1"/>
        <pt x="656" y="447" on="0"/>
        <pt x="656" y="527" on="0"/>
        <pt x="655" y="569" on="1"/>
        <pt x="654" y="632" on="0"/>
        <pt x="645" y="717" on="0"/>
        <pt x="616" y="769" on="0"/>
        <pt x="561" y="792" on="0"/>
        <pt x="513" y="792" on="1"/>
        <pt x="449" y="792" on="0"/>
        <pt x="337" y="735" on="0"/>
        <pt x="253" y="634" on="0"/>
        <pt x="205" y="498" on="0"/>
        <pt x="205" y="419" on="1"/>
        <pt x="205" y="337" on="0"/>
        <pt x="252" y="191" on="0"/>
        <pt x="335" y="81" on="0"/>
        <pt x="447" y="17" on="0"/>
      </contour>
    </TTGlyph>
    <TTGlyph name="Oslash" xMin="73" yMin="-62" xMax="947" yMax="871">
      <contour>
        <pt x="786" y="739" on="1"/>
        <pt x="830" y="703" on="0"/>
        <pt x="891" y="620" on="0"/>
        <pt x="930" y="532" on="0"/>
        <pt x="947" y="444" on="0"/>
        <pt x="947" y="402" on="1"/>
        <pt x="947" y="312" on="0"/>
        <pt x="878" y="156" on="0"/>
        <pt x="760" y="39" on="0"/>
        <pt x="600" y="-28" on="0"/>
        <pt x="510" y="-28" on="1"/>
        <pt x="468" y="-28" on="0"/>
        <pt x="396" y="-14" on="0"/>
        <pt x="335" y="6" on="0"/>
        <pt x="288" y="31" on="0"/>
        <pt x="272" y="41" on="1"/>
        <pt x="196" y="-62" on="1"/>
        <pt x="158" y="-34" on="1"/>
        <pt x="233" y="69" on="1"/>
        <pt x="199" y="96" on="0"/>
        <pt x="140" y="167" on="0"/>
        <pt x="97" y="252" on="0"/>
        <pt x="73" y="349" on="0"/>
        <pt x="73" y="402" on="1"/>
        <pt x="73" y="491" on="0"/>
        <pt x="141" y="649" on="0"/>
        <pt x="260" y="768" on="0"/>
        <pt x="419" y="837" on="0"/>
        <pt x="510" y="837" on="1"/>
        <pt x="552" y="837" on="0"/>
        <pt x="623" y="824" on="0"/>
        <pt x="682" y="803" on="0"/>
        <pt x="729" y="779" on="0"/>
        <pt x="748" y="768" on="1"/>
        <pt x="824" y="871" on="1"/>
        <pt x="862" y="843" on="1"/>
      </contour>
      <contour>
        <pt x="708" y="715" on="1"/>
        <pt x="678" y="742" on="0"/>
        <pt x="619" y="772" on="0"/>
        <pt x="566" y="788" on="0"/>
        <pt x="523" y="792" on="0"/>
        <pt x="510" y="792" on="1"/>
        <pt x="453" y="792" on="0"/>
        <pt x="339" y="745" on="0"/>
        <pt x="248" y="649" on="0"/>
        <pt x="191" y="502" on="0"/>
        <pt x="191" y="401" on="1"/>
        <pt x="191" y="348" on="0"/>
        <pt x="207" y="262" on="0"/>
        <pt x="233" y="195" on="0"/>
        <pt x="263" y="145" on="0"/>
        <pt x="277" y="129" on="1"/>
      </contour>
      <contour>
        <pt x="311" y="93" on="1"/>
        <pt x="362" y="48" on="0"/>
        <pt x="467" y="17" on="0"/>
        <pt x="510" y="17" on="1"/>
        <pt x="567" y="17" on="0"/>
        <pt x="681" y="63" on="0"/>
        <pt x="772" y="158" on="0"/>
        <pt x="829" y="302" on="0"/>
        <pt x="829" y="401" on="1"/>
        <pt x="829" y="489" on="0"/>
        <pt x="784" y="631" on="0"/>
        <pt x="742" y="679" on="1"/>
      </contour>
    </TTGlyph>
    <TTGlyph name="P" xMin="88" yMin="0" xMax="801" yMax="809">
      <contour>
        <pt x="279" y="97" on="1"/>
        <pt x="279" y="80" on="0"/>
        <pt x="284" y="59" on="0"/>
        <pt x="299" y="48" on="0"/>
        <pt x="328" y="45" on="0"/>
        <pt x="352" y="45" on="1"/>
        <pt x="352" y="0" on="1"/>
        <pt x="327" y="1" on="0"/>
        <pt x="296" y="2" on="0"/>
        <pt x="271" y="3" on="0"/>
        <pt x="243" y="3" on="0"/>
        <pt x="220" y="3" on="1"/>
        <pt x="197" y="3" on="0"/>
        <pt x="169" y="3" on="0"/>
        <pt x="144" y="2" on="0"/>
        <pt x="114" y="1" on="0"/>
        <pt x="88" y="0" on="1"/>
        <pt x="88" y="45" on="1"/>
        <pt x="112" y="45" on="0"/>
        <pt x="141" y="48" on="0"/>
        <pt x="156" y="59" on="0"/>
        <pt x="161" y="80" on="0"/>
        <pt x="161" y="97" on="1"/>
        <pt x="161" y="712" on="1"/>
        <pt x="161" y="729" on="0"/>
        <pt x="156" y="750" on="0"/>
        <pt x="141" y="761" on="0"/>
        <pt x="112" y="764" on="0"/>
        <pt x="88" y="764" on="1"/>
        <pt x="88" y="809" on="1"/>
        <pt x="495" y="809" on="1"/>
        <pt x="558" y="809" on="0"/>
        <pt x="669" y="774" on="0"/>
        <pt x="752" y="712" on="0"/>
        <pt x="801" y="631" on="0"/>
        <pt x="801" y="584" on="1"/>
        <pt x="801" y="539" on="0"/>
        <pt x="753" y="457" on="0"/>
        <pt x="670" y="396" on="0"/>
        <pt x="558" y="360" on="0"/>
        <pt x="495" y="360" on="1"/>
        <pt x="279" y="360" on="1"/>
      </contour>
      <contour>
        <pt x="317" y="764" on="1"/>
        <pt x="304" y="764" on="0"/>
        <pt x="288" y="762" on="0"/>
        <pt x="279" y="753" on="0"/>
        <pt x="276" y="733" on="0"/>
        <pt x="276" y="716" on="1"/>
        <pt x="276" y="405" on="1"/>
        <pt x="458" y="405" on="1"/>
        <pt x="496" y="405" on="0"/>
        <pt x="570" y="423" on="0"/>
        <pt x="629" y="465" on="0"/>
        <pt x="666" y="534" on="0"/>
        <pt x="666" y="585" on="1"/>
        <pt x="666" y="633" on="0"/>
        <pt x="631" y="701" on="0"/>
        <pt x="574" y="744" on="0"/>
        <pt x="499" y="764" on="0"/>
        <pt x="458" y="764" on="1"/>
      </contour>
    </TTGlyph>
    <TTGlyph name="Phi" xMin="73" yMin="0" xMax="874" yMax="809">
      <contour>
        <pt x="526" y="100" on="1"/>
        <pt x="526" y="82" on="0"/>
        <pt x="531" y="60" on="0"/>
        <pt x="550" y="48" on="0"/>
        <pt x="586" y="45" on="0"/>
        <pt x="617" y="45" on="1"/>
        <pt x="617" y="0" on="1"/>
        <pt x="585" y="1" on="0"/>
        <pt x="548" y="2" on="0"/>
        <pt x="520" y="3" on="0"/>
        <pt x="493" y="3" on="0"/>
        <pt x="470" y="3" on="1"/>
        <pt x="448" y="3" on="0"/>
        <pt x="421" y="3" on="0"/>
        <pt x="393" y="2" on="0"/>
        <pt x="356" y="1" on="0"/>
        <pt x="324" y="0" on="1"/>
        <pt x="324" y="45" on="1"/>
        <pt x="355" y="45" on="0"/>
        <pt x="391" y="48" on="0"/>
        <pt x="410" y="60" on="0"/>
        <pt x="415" y="82" on="0"/>
        <pt x="415" y="100" on="1"/>
        <pt x="415" y="168" on="1"/>
        <pt x="341" y="175" on="0"/>
        <pt x="216" y="217" on="0"/>
        <pt x="124" y="280" on="0"/>
        <pt x="73" y="360" on="0"/>
        <pt x="73" y="405" on="1"/>
        <pt x="73" y="448" on="0"/>
        <pt x="123" y="527" on="0"/>
        <pt x="213" y="591" on="0"/>
        <pt x="339" y="634" on="0"/>
        <pt x="415" y="641" on="1"/>
        <pt x="415" y="709" on="1"/>
        <pt x="415" y="727" on="0"/>
        <pt x="410" y="749" on="0"/>
        <pt x="391" y="761" on="0"/>
        <pt x="355" y="764" on="0"/>
        <pt x="324" y="764" on="1"/>
        <pt x="324" y="809" on="1"/>
        <pt x="356" y="808" on="0"/>
        <pt x="393" y="807" on="0"/>
        <pt x="421" y="806" on="0"/>
        <pt x="449" y="806" on="0"/>
        <pt x="471" y="806" on="1"/>
        <pt x="493" y="806" on="0"/>
        <pt x="520" y="806" on="0"/>
        <pt x="548" y="807" on="0"/>
        <pt x="585" y="808" on="0"/>
        <pt x="617" y="809" on="1"/>
        <pt x="617" y="764" on="1"/>
        <pt x="586" y="764" on="0"/>
        <pt x="550" y="761" on="0"/>
        <pt x="531" y="749" on="0"/>
        <pt x="526" y="727" on="0"/>
        <pt x="526" y="709" on="1"/>
        <pt x="526" y="641" on="1"/>
        <pt x="598" y="636" on="0"/>
        <pt x="724" y="596" on="0"/>
        <pt x="819" y="533" on="0"/>
        <pt x="874" y="451" on="0"/>
        <pt x="874" y="404" on="1"/>
        <pt x="874" y="359" on="0"/>
        <pt x="820" y="278" on="0"/>
        <pt x="726" y="215" on="0"/>
        <pt x="599" y="173" on="0"/>
        <pt x="526" y="168" on="1"/>
      </contour>
      <contour>
        <pt x="415" y="594" on="1"/>
        <pt x="370" y="589" on="0"/>
        <pt x="293" y="559" on="0"/>
        <pt x="237" y="510" on="0"/>
        <pt x="205" y="445" on="0"/>
        <pt x="205" y="404" on="1"/>
        <pt x="205" y="365" on="0"/>
        <pt x="236" y="300" on="0"/>
        <pt x="291" y="251" on="0"/>
        <pt x="369" y="220" on="0"/>
        <pt x="415" y="215" on="1"/>
      </contour>
      <contour>
        <pt x="526" y="214" on="1"/>
        <pt x="584" y="220" on="0"/>
        <pt x="666" y="257" on="0"/>
        <pt x="718" y="309" on="0"/>
        <pt x="742" y="372" on="0"/>
        <pt x="742" y="405" on="1"/>
        <pt x="742" y="435" on="0"/>
        <pt x="719" y="497" on="0"/>
        <pt x="668" y="550" on="0"/>
        <pt x="586" y="588" on="0"/>
        <pt x="526" y="595" on="1"/>
      </contour>
    </TTGlyph>
    <TTGlyph name="Pi" xMin="87" yMin="0" xMax="860" yMax="806">
      <contour>
        <pt x="787" y="97" on="1"/>
        <pt x="787" y="80" on="0"/>
        <pt x="792" y="59" on="0"/>
        <pt x="807" y="48" on="0"/>
        <pt x="836" y="45" on="0"/>
        <pt x="860" y="45" on="1"/>
        <pt x="860" y="0" on="1"/>
        <pt x="835" y="1" on="0"/>
        <pt x="804" y="2" on="0"/>
        <pt x="779" y="3" on="0"/>
        <pt x="751" y="3" on="0"/>
        <pt x="728" y="3" on="1"/>
        <pt x="705" y="3" on="0"/>
        <pt x="677" y="3" on="0"/>
        <pt x="652" y="2" on="0"/>
        <pt x="622" y="1" on="0"/>
        <pt x="596" y="0" on="1"/>
        <pt x="596" y="45" on="1"/>
        <pt x="620" y="45" on="0"/>
        <pt x="649" y="48" on="0"/>
        <pt x="664" y="59" on="0"/>
        <pt x="669" y="80" on="0"/>
        <pt x="669" y="97" on="1"/>
        <pt x="669" y="761" on="1"/>
        <pt x="278" y="761" on="1"/>
        <pt x="278" y="97" on="1"/>
        <pt x="278" y="80" on="0"/>
        <pt x="283" y="59" on="0"/>
        <pt x="298" y="48" on="0"/>
        <pt x="327" y="45" on="0"/>
        <pt x="351" y="45" on="1"/>
        <pt x="351" y="0" on="1"/>
        <pt x="326" y="1" on="0"/>
        <pt x="295" y="2" on="0"/>
        <pt x="270" y="3" on="0"/>
        <pt x="242" y="3" on="0"/>
        <pt x="219" y="3" on="1"/>
        <pt x="196" y="3" on="0"/>
        <pt x="168" y="3" on="0"/>
        <pt x="143" y="2" on="0"/>
        <pt x="113" y="1" on="0"/>
        <pt x="87" y="0" on="1"/>
        <pt x="87" y="45" on="1"/>
        <pt x="111" y="45" on="0"/>
        <pt x="140" y="48" on="0"/>
        <pt x="155" y="59" on="0"/>
        <pt x="160" y="80" on="0"/>
        <pt x="160" y="97" on="1"/>
        <pt x="160" y="709" on="1"/>
        <pt x="160" y="726" on="0"/>
        <pt x="155" y="747" on="0"/>
        <pt x="140" y="758" on="0"/>
        <pt x="111" y="761" on="0"/>
        <pt x="87" y="761" on="1"/>
        <pt x="87" y="806" on="1"/>
        <pt x="860" y="806" on="1"/>
        <pt x="860" y="761" on="1"/>
        <pt x="836" y="761" on="0"/>
        <pt x="807" y="758" on="0"/>
        <pt x="792" y="747" on="0"/>
        <pt x="787" y="726" on="0"/>
        <pt x="787" y="709" on="1"/>
      </contour>
    </TTGlyph>
    <TTGlyph name="Psi" xMin="73" yMin="0" xMax="947" yMax="809">
      <contour>
        <pt x="562" y="216" on="1"/>
        <pt x="654" y="235" on="0"/>
        <pt x="745" y="370" on="0"/>
        <pt x="746" y="470" on="1"/>
        <pt x="746" y="487" on="0"/>
        <pt x="750" y="550" on="0"/>
        <pt x="773" y="612" on="0"/>
        <pt x="821" y="657" on="0"/>
        <pt x="866" y="657" on="1"/>
        <pt x="912" y="657" on="1"/>
        <pt x="923" y="657" on="0"/>
        <pt x="947" y="651" on="0"/>
        <pt x="947" y="634" on="1"/>
        <pt x="947" y="620" on="0"/>
        <pt x="927" y="613" on="0"/>
        <pt x="920" y="612" on="1"/>
        <pt x="897" y="609" on="0"/>
        <pt x="872" y="574" on="0"/>
        <pt x="860" y="529" on="0"/>
        <pt x="857" y="483" on="0"/>
        <pt x="857" y="469" on="1"/>
        <pt x="857" y="463" on="0"/>
        <pt x="854" y="418" on="0"/>
        <pt x="837" y="357" on="0"/>
        <pt x="801" y="286" on="0"/>
        <pt x="768" y="253" on="1"/>
        <pt x="743" y="228" on="0"/>
        <pt x="642" y="177" on="0"/>
        <pt x="562" y="169" on="1"/>
        <pt x="562" y="100" on="1"/>
        <pt x="562" y="82" on="0"/>
        <pt x="567" y="60" on="0"/>
        <pt x="586" y="48" on="0"/>
        <pt x="622" y="45" on="0"/>
        <pt x="653" y="45" on="1"/>
        <pt x="653" y="0" on="1"/>
        <pt x="621" y="1" on="0"/>
        <pt x="584" y="2" on="0"/>
        <pt x="556" y="3" on="0"/>
        <pt x="529" y="3" on="0"/>
        <pt x="506" y="3" on="1"/>
        <pt x="484" y="3" on="0"/>
        <pt x="457" y="3" on="0"/>
        <pt x="429" y="2" on="0"/>
        <pt x="392" y="1" on="0"/>
        <pt x="360" y="0" on="1"/>
        <pt x="360" y="45" on="1"/>
        <pt x="391" y="45" on="0"/>
        <pt x="427" y="48" on="0"/>
        <pt x="446" y="60" on="0"/>
        <pt x="451" y="82" on="0"/>
        <pt x="451" y="100" on="1"/>
        <pt x="451" y="169" on="1"/>
        <pt x="358" y="179" on="0"/>
        <pt x="245" y="249" on="0"/>
        <pt x="184" y="344" on="0"/>
        <pt x="163" y="450" on="0"/>
        <pt x="163" y="496" on="1"/>
        <pt x="163" y="497" on="0"/>
        <pt x="162" y="513" on="0"/>
        <pt x="158" y="537" on="0"/>
        <pt x="150" y="566" on="0"/>
        <pt x="143" y="580" on="1"/>
        <pt x="132" y="602" on="0"/>
        <pt x="105" y="611" on="0"/>
        <pt x="92" y="612" on="1"/>
        <pt x="87" y="613" on="0"/>
        <pt x="73" y="624" on="0"/>
        <pt x="73" y="634" on="1"/>
        <pt x="73" y="651" on="0"/>
        <pt x="98" y="657" on="0"/>
        <pt x="109" y="657" on="1"/>
        <pt x="154" y="657" on="1"/>
        <pt x="184" y="657" on="0"/>
        <pt x="225" y="635" on="0"/>
        <pt x="251" y="601" on="0"/>
        <pt x="266" y="561" on="0"/>
        <pt x="273" y="525" on="0"/>
        <pt x="274" y="500" on="0"/>
        <pt x="274" y="497" on="1"/>
        <pt x="274" y="482" on="0"/>
        <pt x="276" y="433" on="0"/>
        <pt x="286" y="376" on="0"/>
        <pt x="308" y="316" on="0"/>
        <pt x="347" y="265" on="0"/>
        <pt x="407" y="225" on="0"/>
        <pt x="451" y="217" on="1"/>
        <pt x="451" y="709" on="1"/>
        <pt x="451" y="727" on="0"/>
        <pt x="446" y="749" on="0"/>
        <pt x="427" y="761" on="0"/>
        <pt x="391" y="764" on="0"/>
        <pt x="360" y="764" on="1"/>
        <pt x="360" y="809" on="1"/>
        <pt x="392" y="808" on="0"/>
        <pt x="429" y="807" on="0"/>
        <pt x="457" y="806" on="0"/>
        <pt x="485" y="806" on="0"/>
        <pt x="507" y="806" on="1"/>
        <pt x="529" y="806" on="0"/>
        <pt x="556" y="806" on="0"/>
        <pt x="584" y="807" on="0"/>
        <pt x="621" y="808" on="0"/>
        <pt x="653" y="809" on="1"/>
        <pt x="653" y="764" on="1"/>
        <pt x="622" y="764" on="0"/>
        <pt x="586" y="761" on="0"/>
        <pt x="567" y="749" on="0"/>
        <pt x="562" y="727" on="0"/>
        <pt x="562" y="709" on="1"/>
      </contour>
    </TTGlyph>
    <TTGlyph name="Q" xMin="73" yMin="-191" xMax="954" yMax="837">
      <contour>
        <pt x="699" y="14" on="1"/>
        <pt x="716" y="-12" on="0"/>
        <pt x="746" y="-41" on="0"/>
        <pt x="772" y="-54" on="0"/>
        <pt x="794" y="-56" on="0"/>
        <pt x="803" y="-56" on="1"/>
        <pt x="828" y="-56" on="0"/>
        <pt x="865" y="-48" on="0"/>
        <pt x="875" y="-43" on="1"/>
        <pt x="898" y="-32" on="0"/>
        <pt x="908" y="-10" on="0"/>
        <pt x="909" y="2" on="1"/>
        <pt x="911" y="13" on="0"/>
        <pt x="925" y="22" on="0"/>
        <pt x="931" y="22" on="1"/>
        <pt x="940" y="22" on="0"/>
        <pt x="949" y="15" on="0"/>
        <pt x="953" y="6" on="0"/>
        <pt x="954" y="-4" on="0"/>
        <pt x="954" y="-6" on="1"/>
        <pt x="954" y="-36" on="0"/>
        <pt x="933" y="-102" on="0"/>
        <pt x="891" y="-156" on="0"/>
        <pt x="830" y="-191" on="0"/>
        <pt x="791" y="-191" on="1"/>
        <pt x="752" y="-191" on="0"/>
        <pt x="700" y="-159" on="0"/>
        <pt x="664" y="-107" on="0"/>
        <pt x="640" y="-44" on="0"/>
        <pt x="630" y="-12" on="1"/>
        <pt x="585" y="-24" on="0"/>
        <pt x="522" y="-28" on="0"/>
        <pt x="510" y="-28" on="1"/>
        <pt x="420" y="-28" on="0"/>
        <pt x="261" y="39" on="0"/>
        <pt x="142" y="156" on="0"/>
        <pt x="73" y="312" on="0"/>
        <pt x="73" y="402" on="1"/>
        <pt x="73" y="491" on="0"/>
        <pt x="141" y="649" on="0"/>
        <pt x="260" y="768" on="0"/>
        <pt x="419" y="837" on="0"/>
        <pt x="510" y="837" on="1"/>
        <pt x="601" y="837" on="0"/>
        <pt x="760" y="768" on="0"/>
        <pt x="879" y="649" on="0"/>
        <pt x="947" y="491" on="0"/>
        <pt x="947" y="402" on="1"/>
        <pt x="947" y="341" on="0"/>
        <pt x="913" y="224" on="0"/>
        <pt x="849" y="123" on="0"/>
        <pt x="757" y="41" on="0"/>
      </contour>
      <contour>
        <pt x="402" y="44" on="1"/>
        <pt x="398" y="52" on="0"/>
        <pt x="396" y="64" on="0"/>
        <pt x="396" y="78" on="1"/>
        <pt x="396" y="101" on="0"/>
        <pt x="414" y="140" on="0"/>
        <pt x="446" y="168" on="0"/>
        <pt x="487" y="184" on="0"/>
        <pt x="511" y="184" on="1"/>
        <pt x="538" y="184" on="0"/>
        <pt x="583" y="165" on="0"/>
        <pt x="620" y="133" on="0"/>
        <pt x="651" y="91" on="0"/>
        <pt x="664" y="69" on="1"/>
        <pt x="713" y="104" on="0"/>
        <pt x="772" y="192" on="0"/>
        <pt x="804" y="282" on="0"/>
        <pt x="815" y="367" on="0"/>
        <pt x="815" y="401" on="1"/>
        <pt x="815" y="494" on="0"/>
        <pt x="763" y="638" on="0"/>
        <pt x="678" y="737" on="0"/>
        <pt x="568" y="789" on="0"/>
        <pt x="510" y="789" on="1"/>
        <pt x="452" y="789" on="0"/>
        <pt x="343" y="737" on="0"/>
        <pt x="257" y="638" on="0"/>
        <pt x="205" y="494" on="0"/>
        <pt x="205" y="401" on="1"/>
        <pt x="205" y="332" on="0"/>
        <pt x="236" y="216" on="0"/>
        <pt x="289" y="126" on="0"/>
        <pt x="361" y="62" on="0"/>
      </contour>
      <contour>
        <pt x="612" y="41" on="1"/>
        <pt x="601" y="72" on="0"/>
        <pt x="576" y="110" on="0"/>
        <pt x="551" y="131" on="0"/>
        <pt x="524" y="139" on="0"/>
        <pt x="511" y="139" on="1"/>
        <pt x="479" y="139" on="0"/>
        <pt x="441" y="102" on="0"/>
        <pt x="441" y="79" on="1"/>
        <pt x="441" y="71" on="0"/>
        <pt x="447" y="51" on="0"/>
        <pt x="463" y="33" on="0"/>
        <pt x="490" y="20" on="0"/>
        <pt x="510" y="20" on="1"/>
        <pt x="523" y="20" on="0"/>
        <pt x="579" y="27" on="0"/>
      </contour>
    </TTGlyph>
    <TTGlyph name="R" xMin="88" yMin="-28" xMax="943" yMax="809">
      <contour>
        <pt x="585" y="402" on="1"/>
        <pt x="641" y="380" on="0"/>
        <pt x="707" y="307" on="0"/>
        <pt x="716" y="262" on="1"/>
        <pt x="732" y="164" on="1"/>
        <pt x="737" y="133" on="0"/>
        <pt x="748" y="80" on="0"/>
        <pt x="765" y="40" on="0"/>
        <pt x="792" y="17" on="0"/>
        <pt x="814" y="17" on="1"/>
        <pt x="834" y="17" on="0"/>
        <pt x="856" y="44" on="0"/>
        <pt x="867" y="77" on="0"/>
        <pt x="870" y="108" on="0"/>
        <pt x="870" y="112" on="1"/>
        <pt x="871" y="132" on="0"/>
        <pt x="889" y="141" on="0"/>
        <pt x="907" y="141" on="1"/>
        <pt x="920" y="141" on="0"/>
        <pt x="943" y="134" on="0"/>
        <pt x="943" y="113" on="1"/>
        <pt x="943" y="95" on="0"/>
        <pt x="930" y="47" on="0"/>
        <pt x="899" y="3" on="0"/>
        <pt x="848" y="-28" on="0"/>
        <pt x="811" y="-28" on="1"/>
        <pt x="796" y="-28" on="0"/>
        <pt x="759" y="-24" on="0"/>
        <pt x="718" y="-14" on="0"/>
        <pt x="679" y="3" on="0"/>
        <pt x="662" y="16" on="1"/>
        <pt x="638" y="35" on="0"/>
        <pt x="613" y="73" on="0"/>
        <pt x="601" y="116" on="0"/>
        <pt x="599" y="166" on="0"/>
        <pt x="599" y="196" on="1"/>
        <pt x="599" y="226" on="0"/>
        <pt x="598" y="269" on="0"/>
        <pt x="590" y="300" on="0"/>
        <pt x="573" y="326" on="0"/>
        <pt x="558" y="339" on="1"/>
        <pt x="526" y="367" on="0"/>
        <pt x="458" y="382" on="0"/>
        <pt x="433" y="382" on="1"/>
        <pt x="276" y="382" on="1"/>
        <pt x="276" y="97" on="1"/>
        <pt x="276" y="80" on="0"/>
        <pt x="281" y="59" on="0"/>
        <pt x="296" y="48" on="0"/>
        <pt x="325" y="45" on="0"/>
        <pt x="349" y="45" on="1"/>
        <pt x="349" y="0" on="1"/>
        <pt x="326" y="1" on="0"/>
        <pt x="297" y="2" on="0"/>
        <pt x="271" y="3" on="0"/>
        <pt x="242" y="3" on="0"/>
        <pt x="218" y="3" on="1"/>
        <pt x="196" y="3" on="0"/>
        <pt x="167" y="3" on="0"/>
        <pt x="141" y="2" on="0"/>
        <pt x="111" y="1" on="0"/>
        <pt x="88" y="0" on="1"/>
        <pt x="88" y="45" on="1"/>
        <pt x="112" y="45" on="0"/>
        <pt x="141" y="48" on="0"/>
        <pt x="156" y="59" on="0"/>
        <pt x="161" y="80" on="0"/>
        <pt x="161" y="97" on="1"/>
        <pt x="161" y="712" on="1"/>
        <pt x="161" y="729" on="0"/>
        <pt x="156" y="750" on="0"/>
        <pt x="141" y="761" on="0"/>
        <pt x="112" y="764" on="0"/>
        <pt x="88" y="764" on="1"/>
        <pt x="88" y="809" on="1"/>
        <pt x="444" y="809" on="1"/>
        <pt x="510" y="809" on="0"/>
        <pt x="633" y="776" on="0"/>
        <pt x="727" y="719" on="0"/>
        <pt x="783" y="641" on="0"/>
        <pt x="783" y="595" on="1"/>
        <pt x="783" y="559" on="0"/>
        <pt x="748" y="497" on="0"/>
        <pt x="692" y="448" on="0"/>
        <pt x="621" y="412" on="0"/>
      </contour>
      <contour>
        <pt x="424" y="427" on="1"/>
        <pt x="469" y="427" on="0"/>
        <pt x="550" y="447" on="0"/>
        <pt x="612" y="489" on="0"/>
        <pt x="648" y="553" on="0"/>
        <pt x="648" y="596" on="1"/>
        <pt x="648" y="637" on="0"/>
        <pt x="614" y="699" on="0"/>
        <pt x="554" y="742" on="0"/>
        <pt x="472" y="764" on="0"/>
        <pt x="424" y="764" on="1"/>
        <pt x="317" y="764" on="1"/>
        <pt x="304" y="764" on="0"/>
        <pt x="288" y="762" on="0"/>
        <pt x="279" y="753" on="0"/>
        <pt x="276" y="733" on="0"/>
        <pt x="276" y="716" on="1"/>
        <pt x="276" y="427" on="1"/>
      </contour>
    </TTGlyph>
    <TTGlyph name="S" xMin="73" yMin="-28" xMax="655" yMax="837">
      <contour>
        <pt x="458" y="460" on="1"/>
        <pt x="503" y="450" on="0"/>
        <pt x="576" y="404" on="0"/>
        <pt x="627" y="339" on="0"/>
        <pt x="655" y="261" on="0"/>
        <pt x="655" y="219" on="1"/>
        <pt x="655" y="172" on="0"/>
        <pt x="618" y="83" on="0"/>
        <pt x="551" y="14" on="0"/>
        <pt x="455" y="-28" on="0"/>
        <pt x="396" y="-28" on="1"/>
        <pt x="374" y="-28" on="0"/>
        <pt x="318" y="-23" on="0"/>
        <pt x="256" y="-8" on="0"/>
        <pt x="192" y="21" on="0"/>
        <pt x="163" y="44" on="1"/>
        <pt x="158" y="37" on="0"/>
        <pt x="145" y="17" on="0"/>
        <pt x="133" y="-2" on="0"/>
        <pt x="124" y="-16" on="0"/>
        <pt x="123" y="-17" on="1"/>
        <pt x="118" y="-24" on="0"/>
        <pt x="108" y="-28" on="0"/>
        <pt x="100" y="-28" on="1"/>
        <pt x="80" y="-28" on="0"/>
        <pt x="73" y="-7" on="0"/>
        <pt x="73" y="7" on="1"/>
        <pt x="73" y="233" on="1"/>
        <pt x="73" y="257" on="0"/>
        <pt x="87" y="269" on="0"/>
        <pt x="110" y="269" on="1"/>
        <pt x="123" y="269" on="0"/>
        <pt x="137" y="265" on="0"/>
        <pt x="144" y="257" on="0"/>
        <pt x="146" y="244" on="0"/>
        <pt x="146" y="235" on="1"/>
        <pt x="148" y="180" on="0"/>
        <pt x="189" y="98" on="0"/>
        <pt x="256" y="44" on="0"/>
        <pt x="346" y="17" on="0"/>
        <pt x="397" y="17" on="1"/>
        <pt x="438" y="17" on="0"/>
        <pt x="503" y="46" on="0"/>
        <pt x="548" y="92" on="0"/>
        <pt x="573" y="151" on="0"/>
        <pt x="573" y="182" on="1"/>
        <pt x="573" y="212" on="0"/>
        <pt x="552" y="265" on="0"/>
        <pt x="518" y="307" on="0"/>
        <pt x="472" y="336" on="0"/>
        <pt x="447" y="342" on="1"/>
        <pt x="444" y="342" on="0"/>
        <pt x="435" y="344" on="0"/>
        <pt x="408" y="350" on="0"/>
        <pt x="354" y="363" on="0"/>
        <pt x="307" y="373" on="1"/>
        <pt x="261" y="383" on="0"/>
        <pt x="176" y="412" on="0"/>
        <pt x="137" y="452" on="1"/>
        <pt x="114" y="475" on="0"/>
        <pt x="73" y="553" on="0"/>
        <pt x="73" y="606" on="1"/>
        <pt x="73" y="652" on="0"/>
        <pt x="112" y="736" on="0"/>
        <pt x="180" y="799" on="0"/>
        <pt x="274" y="837" on="0"/>
        <pt x="329" y="837" on="1"/>
        <pt x="382" y="837" on="0"/>
        <pt x="479" y="807" on="0"/>
        <pt x="517" y="776" on="1"/>
        <pt x="525" y="768" on="0"/>
        <pt x="528" y="766" on="0"/>
        <pt x="529" y="766" on="1"/>
        <pt x="531" y="766" on="0"/>
        <pt x="536" y="774" on="0"/>
        <pt x="537" y="776" on="1"/>
        <pt x="566" y="821" on="1"/>
        <pt x="571" y="829" on="0"/>
        <pt x="580" y="837" on="0"/>
        <pt x="592" y="837" on="1"/>
        <pt x="612" y="837" on="0"/>
        <pt x="619" y="816" on="0"/>
        <pt x="619" y="802" on="1"/>
        <pt x="619" y="575" on="1"/>
        <pt x="619" y="550" on="0"/>
        <pt x="604" y="540" on="0"/>
        <pt x="582" y="540" on="1"/>
        <pt x="568" y="540" on="0"/>
        <pt x="548" y="545" on="0"/>
        <pt x="546" y="562" on="1"/>
        <pt x="545" y="574" on="0"/>
        <pt x="537" y="617" on="0"/>
        <pt x="520" y="669" on="0"/>
        <pt x="491" y="721" on="0"/>
        <pt x="443" y="765" on="0"/>
        <pt x="376" y="792" on="0"/>
        <pt x="329" y="792" on="1"/>
        <pt x="290" y="792" on="0"/>
        <pt x="226" y="767" on="0"/>
        <pt x="180" y="726" on="0"/>
        <pt x="155" y="672" on="0"/>
        <pt x="155" y="643" on="1"/>
        <pt x="155" y="594" on="0"/>
        <pt x="224" y="513" on="0"/>
        <pt x="282" y="500" on="1"/>
      </contour>
    </TTGlyph>
    <TTGlyph name="Sigma" xMin="73" yMin="0" xMax="874" yMax="809">
      <contour>
        <pt x="198" y="60" on="1"/>
        <pt x="505" y="60" on="1"/>
        <pt x="513" y="60" on="0"/>
        <pt x="557" y="61" on="0"/>
        <pt x="614" y="66" on="0"/>
        <pt x="673" y="76" on="0"/>
        <pt x="695" y="86" on="1"/>
        <pt x="703" y="90" on="0"/>
        <pt x="732" y="109" on="0"/>
        <pt x="763" y="146" on="0"/>
        <pt x="792" y="206" on="0"/>
        <pt x="801" y="251" on="1"/>
        <pt x="874" y="251" on="1"/>
        <pt x="829" y="0" on="1"/>
        <pt x="109" y="0" on="1"/>
        <pt x="98" y="0" on="0"/>
        <pt x="73" y="6" on="0"/>
        <pt x="73" y="23" on="1"/>
        <pt x="73" y="29" on="0"/>
        <pt x="78" y="37" on="0"/>
        <pt x="86" y="45" on="1"/>
        <pt x="382" y="373" on="1"/>
        <pt x="82" y="766" on="1"/>
        <pt x="75" y="774" on="0"/>
        <pt x="73" y="784" on="0"/>
        <pt x="73" y="786" on="1"/>
        <pt x="73" y="803" on="0"/>
        <pt x="98" y="809" on="0"/>
        <pt x="109" y="809" on="1"/>
        <pt x="829" y="809" on="1"/>
        <pt x="874" y="573" on="1"/>
        <pt x="801" y="573" on="1"/>
        <pt x="793" y="614" on="0"/>
        <pt x="766" y="672" on="0"/>
        <pt x="734" y="711" on="0"/>
        <pt x="701" y="735" on="0"/>
        <pt x="686" y="741" on="1"/>
        <pt x="657" y="752" on="0"/>
        <pt x="561" y="764" on="0"/>
        <pt x="502" y="764" on="1"/>
        <pt x="233" y="764" on="1"/>
        <pt x="492" y="425" on="1"/>
        <pt x="499" y="417" on="0"/>
        <pt x="501" y="407" on="0"/>
        <pt x="501" y="405" on="1"/>
        <pt x="501" y="398" on="0"/>
        <pt x="497" y="392" on="0"/>
        <pt x="489" y="383" on="1"/>
      </contour>
    </TTGlyph>
    <TTGlyph name="T" xMin="47" yMin="0" xMax="900" yMax="802">
      <contour>
        <pt x="900" y="566" on="1"/>
        <pt x="827" y="566" on="1"/>
        <pt x="818" y="629" on="0"/>
        <pt x="794" y="704" on="0"/>
        <pt x="748" y="744" on="0"/>
        <pt x="671" y="757" on="0"/>
        <pt x="610" y="757" on="1"/>
        <pt x="594" y="757" on="0"/>
        <pt x="553" y="756" on="0"/>
        <pt x="548" y="754" on="1"/>
        <pt x="539" y="751" on="0"/>
        <pt x="533" y="731" on="0"/>
        <pt x="533" y="709" on="1"/>
        <pt x="533" y="102" on="1"/>
        <pt x="533" y="86" on="0"/>
        <pt x="537" y="64" on="0"/>
        <pt x="553" y="51" on="0"/>
        <pt x="587" y="45" on="0"/>
        <pt x="617" y="45" on="1"/>
        <pt x="636" y="45" on="1"/>
        <pt x="636" y="0" on="1"/>
        <pt x="612" y="1" on="0"/>
        <pt x="565" y="2" on="0"/>
        <pt x="521" y="3" on="0"/>
        <pt x="486" y="3" on="0"/>
        <pt x="474" y="3" on="1"/>
        <pt x="444" y="3" on="0"/>
        <pt x="360" y="2" on="0"/>
        <pt x="312" y="0" on="1"/>
        <pt x="312" y="45" on="1"/>
        <pt x="331" y="45" on="1"/>
        <pt x="361" y="45" on="0"/>
        <pt x="395" y="51" on="0"/>
        <pt x="411" y="64" on="0"/>
        <pt x="415" y="86" on="0"/>
        <pt x="415" y="102" on="1"/>
        <pt x="415" y="709" on="1"/>
        <pt x="415" y="731" on="0"/>
        <pt x="410" y="751" on="0"/>
        <pt x="400" y="755" on="1"/>
        <pt x="397" y="756" on="0"/>
        <pt x="383" y="757" on="0"/>
        <pt x="365" y="757" on="0"/>
        <pt x="345" y="757" on="0"/>
        <pt x="337" y="757" on="1"/>
        <pt x="276" y="757" on="0"/>
        <pt x="200" y="745" on="0"/>
        <pt x="153" y="704" on="0"/>
        <pt x="129" y="629" on="0"/>
        <pt x="120" y="566" on="1"/>
        <pt x="47" y="566" on="1"/>
        <pt x="79" y="802" on="1"/>
        <pt x="868" y="802" on="1"/>
      </contour>
    </TTGlyph>
    <TTGlyph name="Theta" xMin="73" yMin="-28" xMax="947" yMax="837">
      <contour>
        <pt x="947" y="402" on="1"/>
        <pt x="947" y="312" on="0"/>
        <pt x="878" y="156" on="0"/>
        <pt x="760" y="39" on="0"/>
        <pt x="600" y="-28" on="0"/>
        <pt x="510" y="-28" on="1"/>
        <pt x="420" y="-28" on="0"/>
        <pt x="261" y="39" on="0"/>
        <pt x="142" y="156" on="0"/>
        <pt x="73" y="312" on="0"/>
        <pt x="73" y="402" on="1"/>
        <pt x="73" y="491" on="0"/>
        <pt x="141" y="649" on="0"/>
        <pt x="260" y="768" on="0"/>
        <pt x="419" y="837" on="0"/>
        <pt x="510" y="837" on="1"/>
        <pt x="601" y="837" on="0"/>
        <pt x="760" y="768" on="0"/>
        <pt x="879" y="649" on="0"/>
        <pt x="947" y="491" on="0"/>
      </contour>
      <contour>
        <pt x="510" y="19" on="1"/>
        <pt x="569" y="19" on="0"/>
        <pt x="680" y="71" on="0"/>
        <pt x="767" y="169" on="0"/>
        <pt x="819" y="311" on="0"/>
        <pt x="819" y="401" on="1"/>
        <pt x="819" y="494" on="0"/>
        <pt x="767" y="639" on="0"/>
        <pt x="680" y="739" on="0"/>
        <pt x="569" y="792" on="0"/>
        <pt x="510" y="792" on="1"/>
        <pt x="452" y="792" on="0"/>
        <pt x="340" y="740" on="0"/>
        <pt x="254" y="639" on="0"/>
        <pt x="201" y="494" on="0"/>
        <pt x="201" y="401" on="1"/>
        <pt x="201" y="311" on="0"/>
        <pt x="253" y="169" on="0"/>
        <pt x="339" y="71" on="0"/>
        <pt x="451" y="19" on="0"/>
      </contour>
      <contour>
        <pt x="745" y="314" on="1"/>
        <pt x="672" y="314" on="1"/>
        <pt x="672" y="354" on="1"/>
        <pt x="348" y="354" on="1"/>
        <pt x="348" y="314" on="1"/>
        <pt x="275" y="314" on="1"/>
        <pt x="275" y="497" on="1"/>
        <pt x="348" y="497" on="1"/>
        <pt x="348" y="457" on="1"/>
        <pt x="672" y="457" on="1"/>
        <pt x="672" y="497" on="1"/>
        <pt x="745" y="497" on="1"/>
      </contour>
    </TTGlyph>
    <TTGlyph name="U" xMin="87" yMin="-28" xMax="860" yMax="809">
      <contour>
        <pt x="714" y="674" on="1"/>
        <pt x="714" y="688" on="0"/>
        <pt x="710" y="719" on="0"/>
        <pt x="696" y="746" on="0"/>
        <pt x="667" y="764" on="0"/>
        <pt x="641" y="764" on="1"/>
        <pt x="641" y="809" on="1"/>
        <pt x="656" y="808" on="0"/>
        <pt x="688" y="807" on="0"/>
        <pt x="719" y="806" on="0"/>
        <pt x="744" y="806" on="0"/>
        <pt x="751" y="806" on="1"/>
        <pt x="757" y="806" on="0"/>
        <pt x="782" y="806" on="0"/>
        <pt x="812" y="807" on="0"/>
        <pt x="845" y="808" on="0"/>
        <pt x="860" y="809" on="1"/>
        <pt x="860" y="764" on="1"/>
        <pt x="833" y="763" on="0"/>
        <pt x="803" y="743" on="0"/>
        <pt x="789" y="714" on="0"/>
        <pt x="787" y="683" on="0"/>
        <pt x="787" y="671" on="1"/>
        <pt x="787" y="349" on="1"/>
        <pt x="787" y="337" on="0"/>
        <pt x="787" y="306" on="0"/>
        <pt x="787" y="277" on="0"/>
        <pt x="786" y="255" on="0"/>
        <pt x="786" y="252" on="1"/>
        <pt x="781" y="188" on="0"/>
        <pt x="727" y="84" on="0"/>
        <pt x="645" y="11" on="0"/>
        <pt x="540" y="-28" on="0"/>
        <pt x="484" y="-28" on="1"/>
        <pt x="442" y="-28" on="0"/>
        <pt x="372" y="-11" on="0"/>
        <pt x="317" y="13" on="0"/>
        <pt x="275" y="41" on="0"/>
        <pt x="261" y="53" on="1"/>
        <pt x="228" y="81" on="0"/>
        <pt x="188" y="143" on="0"/>
        <pt x="167" y="204" on="0"/>
        <pt x="160" y="262" on="0"/>
        <pt x="160" y="286" on="1"/>
        <pt x="160" y="727" on="1"/>
        <pt x="159" y="755" on="0"/>
        <pt x="120" y="764" on="0"/>
        <pt x="87" y="764" on="1"/>
        <pt x="87" y="809" on="1"/>
        <pt x="113" y="808" on="0"/>
        <pt x="143" y="807" on="0"/>
        <pt x="168" y="806" on="0"/>
        <pt x="196" y="806" on="0"/>
        <pt x="219" y="806" on="1"/>
        <pt x="242" y="806" on="0"/>
        <pt x="270" y="806" on="0"/>
        <pt x="295" y="807" on="0"/>
        <pt x="326" y="808" on="0"/>
        <pt x="351" y="809" on="1"/>
        <pt x="351" y="764" on="1"/>
        <pt x="327" y="764" on="0"/>
        <pt x="298" y="761" on="0"/>
        <pt x="283" y="750" on="0"/>
        <pt x="278" y="729" on="0"/>
        <pt x="278" y="712" on="1"/>
        <pt x="278" y="269" on="1"/>
        <pt x="278" y="208" on="0"/>
        <pt x="313" y="114" on="0"/>
        <pt x="372" y="50" on="0"/>
        <pt x="447" y="17" on="0"/>
        <pt x="486" y="17" on="1"/>
        <pt x="529" y="17" on="0"/>
        <pt x="611" y="53" on="0"/>
        <pt x="675" y="119" on="0"/>
        <pt x="714" y="213" on="0"/>
        <pt x="714" y="271" on="1"/>
      </contour>
    </TTGlyph>
    <TTGlyph name="Upsilon" xMin="73" yMin="0" xMax="947" yMax="837">
      <contour>
        <pt x="569" y="100" on="1"/>
        <pt x="569" y="82" on="0"/>
        <pt x="574" y="60" on="0"/>
        <pt x="593" y="48" on="0"/>
        <pt x="629" y="45" on="0"/>
        <pt x="660" y="45" on="1"/>
        <pt x="660" y="0" on="1"/>
        <pt x="628" y="1" on="0"/>
        <pt x="590" y="2" on="0"/>
        <pt x="562" y="3" on="0"/>
        <pt x="533" y="3" on="0"/>
        <pt x="510" y="3" on="1"/>
        <pt x="487" y="3" on="0"/>
        <pt x="458" y="3" on="0"/>
        <pt x="430" y="2" on="0"/>
        <pt x="392" y="1" on="0"/>
        <pt x="360" y="0" on="1"/>
        <pt x="360" y="45" on="1"/>
        <pt x="391" y="45" on="0"/>
        <pt x="427" y="48" on="0"/>
        <pt x="446" y="60" on="0"/>
        <pt x="451" y="82" on="0"/>
        <pt x="451" y="100" on="1"/>
        <pt x="451" y="415" on="1"/>
        <pt x="451" y="442" on="0"/>
        <pt x="445" y="510" on="0"/>
        <pt x="429" y="581" on="0"/>
        <pt x="402" y="650" on="0"/>
        <pt x="361" y="703" on="0"/>
        <pt x="302" y="736" on="0"/>
        <pt x="263" y="736" on="1"/>
        <pt x="241" y="736" on="0"/>
        <pt x="200" y="725" on="0"/>
        <pt x="168" y="702" on="0"/>
        <pt x="147" y="668" on="0"/>
        <pt x="146" y="644" on="1"/>
        <pt x="144" y="630" on="0"/>
        <pt x="121" y="625" on="0"/>
        <pt x="110" y="625" on="1"/>
        <pt x="94" y="625" on="0"/>
        <pt x="73" y="632" on="0"/>
        <pt x="73" y="652" on="1"/>
        <pt x="73" y="684" on="0"/>
        <pt x="100" y="750" on="0"/>
        <pt x="149" y="803" on="0"/>
        <pt x="220" y="837" on="0"/>
        <pt x="264" y="837" on="1"/>
        <pt x="312" y="837" on="0"/>
        <pt x="384" y="802" on="0"/>
        <pt x="437" y="747" on="0"/>
        <pt x="472" y="681" on="0"/>
        <pt x="496" y="618" on="0"/>
        <pt x="508" y="566" on="0"/>
        <pt x="510" y="553" on="1"/>
        <pt x="513" y="566" on="0"/>
        <pt x="525" y="618" on="0"/>
        <pt x="547" y="681" on="0"/>
        <pt x="584" y="747" on="0"/>
        <pt x="636" y="802" on="0"/>
        <pt x="709" y="837" on="0"/>
        <pt x="756" y="837" on="1"/>
        <pt x="800" y="837" on="0"/>
        <pt x="871" y="803" on="0"/>
        <pt x="921" y="750" on="0"/>
        <pt x="947" y="684" on="0"/>
        <pt x="947" y="652" on="1"/>
        <pt x="947" y="632" on="0"/>
        <pt x="926" y="625" on="0"/>
        <pt x="910" y="625" on="1"/>
        <pt x="895" y="625" on="0"/>
        <pt x="876" y="631" on="0"/>
        <pt x="874" y="649" on="1"/>
        <pt x="872" y="678" on="0"/>
        <pt x="842" y="712" on="0"/>
        <pt x="805" y="730" on="0"/>
        <pt x="767" y="736" on="0"/>
        <pt x="757" y="736" on="1"/>
        <pt x="719" y="736" on="0"/>
        <pt x="661" y="704" on="0"/>
        <pt x="619" y="652" on="0"/>
        <pt x="592" y="584" on="0"/>
        <pt x="575" y="513" on="0"/>
        <pt x="569" y="443" on="0"/>
        <pt x="569" y="415" on="1"/>
      </contour>
    </TTGlyph>
    <TTGlyph name="V" xMin="30" yMin="-28" xMax="917" yMax="809">
      <contour>
        <pt x="526" y="3" on="1"/>
        <pt x="523" y="-5" on="0"/>
        <pt x="517" y="-17" on="0"/>
        <pt x="507" y="-25" on="0"/>
        <pt x="491" y="-28" on="0"/>
        <pt x="477" y="-28" on="1"/>
        <pt x="470" y="-28" on="1"/>
        <pt x="453" y="-28" on="0"/>
        <pt x="430" y="-20" on="0"/>
        <pt x="420" y="3" on="1"/>
        <pt x="111" y="719" on="1"/>
        <pt x="105" y="733" on="0"/>
        <pt x="94" y="751" on="0"/>
        <pt x="77" y="761" on="0"/>
        <pt x="51" y="764" on="0"/>
        <pt x="30" y="764" on="1"/>
        <pt x="30" y="809" on="1"/>
        <pt x="45" y="808" on="0"/>
        <pt x="79" y="807" on="0"/>
        <pt x="112" y="806" on="0"/>
        <pt x="141" y="806" on="0"/>
        <pt x="150" y="806" on="1"/>
        <pt x="172" y="806" on="0"/>
        <pt x="198" y="806" on="0"/>
        <pt x="222" y="807" on="0"/>
        <pt x="253" y="808" on="0"/>
        <pt x="278" y="809" on="1"/>
        <pt x="278" y="764" on="1"/>
        <pt x="274" y="764" on="0"/>
        <pt x="259" y="763" on="0"/>
        <pt x="244" y="758" on="0"/>
        <pt x="233" y="747" on="0"/>
        <pt x="233" y="736" on="1"/>
        <pt x="233" y="735" on="0"/>
        <pt x="235" y="720" on="0"/>
        <pt x="242" y="705" on="1"/>
        <pt x="496" y="117" on="1"/>
        <pt x="737" y="676" on="1"/>
        <pt x="742" y="687" on="0"/>
        <pt x="748" y="709" on="0"/>
        <pt x="748" y="720" on="1"/>
        <pt x="748" y="744" on="0"/>
        <pt x="726" y="762" on="0"/>
        <pt x="714" y="764" on="1"/>
        <pt x="714" y="809" on="1"/>
        <pt x="729" y="808" on="0"/>
        <pt x="761" y="807" on="0"/>
        <pt x="791" y="806" on="0"/>
        <pt x="815" y="806" on="0"/>
        <pt x="820" y="806" on="1"/>
        <pt x="828" y="806" on="0"/>
        <pt x="851" y="806" on="0"/>
        <pt x="878" y="807" on="0"/>
        <pt x="905" y="808" on="0"/>
        <pt x="917" y="809" on="1"/>
        <pt x="917" y="764" on="1"/>
        <pt x="910" y="764" on="0"/>
        <pt x="887" y="760" on="0"/>
        <pt x="861" y="744" on="0"/>
        <pt x="833" y="711" on="0"/>
        <pt x="820" y="682" on="1"/>
      </contour>
    </TTGlyph>
    <TTGlyph name="W" xMin="27" yMin="-28" xMax="1284" yMax="809">
      <contour>
        <pt x="962" y="2" on="1"/>
        <pt x="954" y="-21" on="0"/>
        <pt x="931" y="-28" on="0"/>
        <pt x="913" y="-28" on="1"/>
        <pt x="893" y="-28" on="0"/>
        <pt x="872" y="-21" on="0"/>
        <pt x="864" y="1" on="1"/>
        <pt x="655" y="601" on="1"/>
        <pt x="447" y="1" on="1"/>
        <pt x="439" y="-21" on="0"/>
        <pt x="418" y="-28" on="0"/>
        <pt x="398" y="-28" on="1"/>
        <pt x="376" y="-28" on="0"/>
        <pt x="357" y="-19" on="0"/>
        <pt x="349" y="3" on="1"/>
        <pt x="101" y="719" on="1"/>
        <pt x="95" y="735" on="0"/>
        <pt x="82" y="753" on="0"/>
        <pt x="65" y="762" on="0"/>
        <pt x="42" y="764" on="0"/>
        <pt x="27" y="764" on="1"/>
        <pt x="27" y="809" on="1"/>
        <pt x="57" y="807" on="0"/>
        <pt x="125" y="806" on="0"/>
        <pt x="144" y="806" on="1"/>
        <pt x="165" y="806" on="0"/>
        <pt x="191" y="806" on="0"/>
        <pt x="215" y="807" on="0"/>
        <pt x="245" y="808" on="0"/>
        <pt x="270" y="809" on="1"/>
        <pt x="270" y="764" on="1"/>
        <pt x="265" y="764" on="0"/>
        <pt x="248" y="763" on="0"/>
        <pt x="232" y="757" on="0"/>
        <pt x="220" y="744" on="0"/>
        <pt x="220" y="732" on="1"/>
        <pt x="220" y="724" on="0"/>
        <pt x="223" y="713" on="0"/>
        <pt x="225" y="708" on="1"/>
        <pt x="420" y="147" on="1"/>
        <pt x="617" y="713" on="1"/>
        <pt x="611" y="732" on="0"/>
        <pt x="597" y="753" on="0"/>
        <pt x="579" y="762" on="0"/>
        <pt x="556" y="764" on="0"/>
        <pt x="542" y="764" on="1"/>
        <pt x="542" y="809" on="1"/>
        <pt x="557" y="808" on="0"/>
        <pt x="589" y="807" on="0"/>
        <pt x="621" y="806" on="0"/>
        <pt x="648" y="806" on="0"/>
        <pt x="658" y="806" on="1"/>
        <pt x="678" y="806" on="0"/>
        <pt x="705" y="806" on="0"/>
        <pt x="731" y="807" on="0"/>
        <pt x="761" y="808" on="0"/>
        <pt x="784" y="809" on="1"/>
        <pt x="784" y="764" on="1"/>
        <pt x="779" y="764" on="0"/>
        <pt x="762" y="763" on="0"/>
        <pt x="746" y="757" on="0"/>
        <pt x="734" y="744" on="0"/>
        <pt x="734" y="732" on="1"/>
        <pt x="734" y="727" on="0"/>
        <pt x="737" y="715" on="0"/>
        <pt x="739" y="710" on="1"/>
        <pt x="935" y="147" on="1"/>
        <pt x="1118" y="675" on="1"/>
        <pt x="1122" y="686" on="0"/>
        <pt x="1125" y="704" on="0"/>
        <pt x="1125" y="709" on="1"/>
        <pt x="1125" y="713" on="0"/>
        <pt x="1124" y="730" on="0"/>
        <pt x="1115" y="748" on="0"/>
        <pt x="1096" y="762" on="0"/>
        <pt x="1078" y="764" on="1"/>
        <pt x="1078" y="809" on="1"/>
        <pt x="1112" y="807" on="0"/>
        <pt x="1173" y="806" on="0"/>
        <pt x="1187" y="806" on="1"/>
        <pt x="1204" y="806" on="0"/>
        <pt x="1262" y="807" on="0"/>
        <pt x="1284" y="809" on="1"/>
        <pt x="1284" y="764" on="1"/>
        <pt x="1277" y="764" on="0"/>
        <pt x="1256" y="760" on="0"/>
        <pt x="1232" y="743" on="0"/>
        <pt x="1207" y="710" on="0"/>
        <pt x="1197" y="681" on="1"/>
      </contour>
    </TTGlyph>
    <TTGlyph name="X" xMin="42" yMin="0" xMax="905" yMax="809">
      <contour>
        <pt x="803" y="90" on="1"/>
        <pt x="815" y="75" on="0"/>
        <pt x="835" y="57" on="0"/>
        <pt x="857" y="48" on="0"/>
        <pt x="885" y="45" on="0"/>
        <pt x="905" y="45" on="1"/>
        <pt x="905" y="0" on="1"/>
        <pt x="867" y="2" on="0"/>
        <pt x="816" y="3" on="0"/>
        <pt x="781" y="3" on="1"/>
        <pt x="760" y="3" on="0"/>
        <pt x="735" y="3" on="0"/>
        <pt x="710" y="2" on="0"/>
        <pt x="677" y="1" on="0"/>
        <pt x="648" y="0" on="1"/>
        <pt x="648" y="45" on="1"/>
        <pt x="656" y="47" on="0"/>
        <pt x="667" y="56" on="0"/>
        <pt x="667" y="68" on="1"/>
        <pt x="667" y="79" on="0"/>
        <pt x="658" y="94" on="0"/>
        <pt x="653" y="100" on="1"/>
        <pt x="452" y="353" on="1"/>
        <pt x="281" y="134" on="1"/>
        <pt x="273" y="125" on="0"/>
        <pt x="253" y="91" on="0"/>
        <pt x="253" y="70" on="1"/>
        <pt x="253" y="54" on="0"/>
        <pt x="264" y="47" on="0"/>
        <pt x="269" y="45" on="1"/>
        <pt x="269" y="0" on="1"/>
        <pt x="231" y="2" on="0"/>
        <pt x="176" y="3" on="0"/>
        <pt x="151" y="3" on="1"/>
        <pt x="144" y="3" on="0"/>
        <pt x="118" y="3" on="0"/>
        <pt x="87" y="2" on="0"/>
        <pt x="55" y="1" on="0"/>
        <pt x="42" y="0" on="1"/>
        <pt x="42" y="45" on="1"/>
        <pt x="56" y="45" on="0"/>
        <pt x="88" y="52" on="0"/>
        <pt x="124" y="70" on="0"/>
        <pt x="162" y="102" on="0"/>
        <pt x="182" y="127" on="1"/>
        <pt x="406" y="412" on="1"/>
        <pt x="159" y="723" on="1"/>
        <pt x="147" y="737" on="0"/>
        <pt x="127" y="754" on="0"/>
        <pt x="105" y="762" on="0"/>
        <pt x="79" y="764" on="0"/>
        <pt x="61" y="764" on="1"/>
        <pt x="61" y="809" on="1"/>
        <pt x="98" y="807" on="0"/>
        <pt x="153" y="806" on="0"/>
        <pt x="185" y="806" on="1"/>
        <pt x="208" y="806" on="0"/>
        <pt x="236" y="806" on="0"/>
        <pt x="261" y="807" on="0"/>
        <pt x="292" y="808" on="0"/>
        <pt x="317" y="809" on="1"/>
        <pt x="317" y="764" on="1"/>
        <pt x="306" y="762" on="0"/>
        <pt x="298" y="749" on="0"/>
        <pt x="298" y="741" on="1"/>
        <pt x="298" y="733" on="0"/>
        <pt x="304" y="720" on="0"/>
        <pt x="312" y="709" on="1"/>
        <pt x="476" y="502" on="1"/>
        <pt x="612" y="675" on="1"/>
        <pt x="631" y="699" on="0"/>
        <pt x="640" y="733" on="0"/>
        <pt x="640" y="739" on="1"/>
        <pt x="640" y="754" on="0"/>
        <pt x="628" y="762" on="0"/>
        <pt x="623" y="764" on="1"/>
        <pt x="623" y="809" on="1"/>
        <pt x="661" y="807" on="0"/>
        <pt x="716" y="806" on="0"/>
        <pt x="741" y="806" on="1"/>
        <pt x="749" y="806" on="0"/>
        <pt x="775" y="806" on="0"/>
        <pt x="806" y="807" on="0"/>
        <pt x="837" y="808" on="0"/>
        <pt x="850" y="809" on="1"/>
        <pt x="850" y="764" on="1"/>
        <pt x="842" y="764" on="0"/>
        <pt x="814" y="760" on="0"/>
        <pt x="776" y="744" on="0"/>
        <pt x="732" y="710" on="0"/>
        <pt x="708" y="679" on="1"/>
        <pt x="523" y="443" on="1"/>
      </contour>
    </TTGlyph>
    <TTGlyph name="Xi" xMin="55" yMin="0" xMax="819" yMax="802">
      <contour>
        <pt x="812" y="622" on="1"/>
        <pt x="739" y="622" on="1"/>
        <pt x="739" y="628" on="0"/>
        <pt x="737" y="649" on="0"/>
        <pt x="733" y="673" on="0"/>
        <pt x="727" y="694" on="0"/>
        <pt x="722" y="700" on="1"/>
        <pt x="719" y="703" on="0"/>
        <pt x="696" y="705" on="0"/>
        <pt x="668" y="707" on="0"/>
        <pt x="643" y="707" on="0"/>
        <pt x="638" y="707" on="1"/>
        <pt x="236" y="707" on="1"/>
        <pt x="232" y="707" on="0"/>
        <pt x="206" y="707" on="0"/>
        <pt x="178" y="705" on="0"/>
        <pt x="155" y="703" on="0"/>
        <pt x="152" y="700" on="1"/>
        <pt x="147" y="694" on="0"/>
        <pt x="141" y="673" on="0"/>
        <pt x="137" y="649" on="0"/>
        <pt x="135" y="628" on="0"/>
        <pt x="135" y="622" on="1"/>
        <pt x="62" y="622" on="1"/>
        <pt x="76" y="802" on="1"/>
        <pt x="798" y="802" on="1"/>
      </contour>
      <contour>
        <pt x="55" y="190" on="1"/>
        <pt x="128" y="190" on="1"/>
        <pt x="129" y="179" on="0"/>
        <pt x="131" y="154" on="0"/>
        <pt x="134" y="130" on="0"/>
        <pt x="140" y="111" on="0"/>
        <pt x="144" y="105" on="1"/>
        <pt x="147" y="101" on="0"/>
        <pt x="171" y="97" on="0"/>
        <pt x="200" y="95" on="0"/>
        <pt x="228" y="95" on="0"/>
        <pt x="234" y="95" on="1"/>
        <pt x="640" y="95" on="1"/>
        <pt x="643" y="95" on="0"/>
        <pt x="670" y="95" on="0"/>
        <pt x="700" y="97" on="0"/>
        <pt x="726" y="101" on="0"/>
        <pt x="729" y="105" on="1"/>
        <pt x="738" y="116" on="0"/>
        <pt x="744" y="167" on="0"/>
        <pt x="746" y="190" on="1"/>
        <pt x="819" y="190" on="1"/>
        <pt x="805" y="0" on="1"/>
        <pt x="69" y="0" on="1"/>
      </contour>
      <contour>
        <pt x="692" y="334" on="1"/>
        <pt x="619" y="334" on="1"/>
        <pt x="619" y="370" on="1"/>
        <pt x="255" y="370" on="1"/>
        <pt x="255" y="334" on="1"/>
        <pt x="182" y="334" on="1"/>
        <pt x="182" y="501" on="1"/>
        <pt x="255" y="501" on="1"/>
        <pt x="255" y="465" on="1"/>
        <pt x="619" y="465" on="1"/>
        <pt x="619" y="501" on="1"/>
        <pt x="692" y="501" on="1"/>
      </contour>
    </TTGlyph>
    <TTGlyph name="Y" xMin="26" yMin="0" xMax="921" yMax="809">
      <contour>
        <pt x="531" y="324" on="1"/>
        <pt x="531" y="93" on="1"/>
        <pt x="531" y="78" on="0"/>
        <pt x="535" y="59" on="0"/>
        <pt x="550" y="48" on="0"/>
        <pt x="579" y="45" on="0"/>
        <pt x="603" y="45" on="1"/>
        <pt x="603" y="0" on="1"/>
        <pt x="579" y="1" on="0"/>
        <pt x="550" y="2" on="0"/>
        <pt x="525" y="3" on="0"/>
        <pt x="497" y="3" on="0"/>
        <pt x="473" y="3" on="1"/>
        <pt x="451" y="3" on="0"/>
        <pt x="422" y="3" on="0"/>
        <pt x="396" y="2" on="0"/>
        <pt x="366" y="1" on="0"/>
        <pt x="343" y="0" on="1"/>
        <pt x="343" y="45" on="1"/>
        <pt x="367" y="45" on="0"/>
        <pt x="396" y="48" on="0"/>
        <pt x="411" y="59" on="0"/>
        <pt x="416" y="80" on="0"/>
        <pt x="416" y="97" on="1"/>
        <pt x="416" y="324" on="1"/>
        <pt x="122" y="723" on="1"/>
        <pt x="111" y="738" on="0"/>
        <pt x="91" y="755" on="0"/>
        <pt x="68" y="762" on="0"/>
        <pt x="43" y="764" on="0"/>
        <pt x="26" y="764" on="1"/>
        <pt x="26" y="809" on="1"/>
        <pt x="60" y="807" on="0"/>
        <pt x="125" y="806" on="0"/>
        <pt x="151" y="806" on="1"/>
        <pt x="174" y="806" on="0"/>
        <pt x="201" y="806" on="0"/>
        <pt x="226" y="807" on="0"/>
        <pt x="258" y="808" on="0"/>
        <pt x="285" y="809" on="1"/>
        <pt x="285" y="764" on="1"/>
        <pt x="275" y="764" on="0"/>
        <pt x="255" y="758" on="0"/>
        <pt x="255" y="746" on="1"/>
        <pt x="255" y="738" on="0"/>
        <pt x="264" y="723" on="0"/>
        <pt x="271" y="714" on="1"/>
        <pt x="499" y="404" on="1"/>
        <pt x="702" y="678" on="1"/>
        <pt x="713" y="693" on="0"/>
        <pt x="731" y="730" on="0"/>
        <pt x="731" y="742" on="1"/>
        <pt x="731" y="756" on="0"/>
        <pt x="718" y="763" on="0"/>
        <pt x="714" y="764" on="1"/>
        <pt x="714" y="809" on="1"/>
        <pt x="746" y="807" on="0"/>
        <pt x="805" y="806" on="0"/>
        <pt x="822" y="806" on="1"/>
        <pt x="829" y="806" on="0"/>
        <pt x="853" y="806" on="0"/>
        <pt x="881" y="807" on="0"/>
        <pt x="910" y="808" on="0"/>
        <pt x="921" y="809" on="1"/>
        <pt x="921" y="764" on="1"/>
        <pt x="899" y="763" on="0"/>
        <pt x="861" y="746" on="0"/>
        <pt x="830" y="723" on="0"/>
        <pt x="805" y="696" on="0"/>
        <pt x="796" y="684" on="1"/>
      </contour>
    </TTGlyph>
    <TTGlyph name="Z" xMin="73" yMin="0" xMax="735" yMax="809">
      <contour>
        <pt x="215" y="48" on="1"/>
        <pt x="414" y="48" on="1"/>
        <pt x="481" y="48" on="0"/>
        <pt x="570" y="75" on="0"/>
        <pt x="627" y="131" on="0"/>
        <pt x="656" y="218" on="0"/>
        <pt x="662" y="277" on="1"/>
        <pt x="735" y="277" on="1"/>
        <pt x="708" y="0" on="1"/>
        <pt x="109" y="0" on="1"/>
        <pt x="95" y="0" on="0"/>
        <pt x="73" y="7" on="0"/>
        <pt x="73" y="27" on="1"/>
        <pt x="73" y="32" on="0"/>
        <pt x="75" y="43" on="0"/>
        <pt x="82" y="53" on="1"/>
        <pt x="587" y="764" on="1"/>
        <pt x="401" y="764" on="1"/>
        <pt x="369" y="764" on="0"/>
        <pt x="291" y="754" on="0"/>
        <pt x="221" y="716" on="0"/>
        <pt x="170" y="640" on="0"/>
        <pt x="164" y="573" on="1"/>
        <pt x="91" y="573" on="1"/>
        <pt x="109" y="809" on="1"/>
        <pt x="692" y="809" on="1"/>
        <pt x="706" y="809" on="0"/>
        <pt x="728" y="803" on="0"/>
        <pt x="728" y="783" on="1"/>
        <pt x="728" y="778" on="0"/>
        <pt x="726" y="768" on="0"/>
        <pt x="719" y="758" on="1"/>
      </contour>
    </TTGlyph>
    <TTGlyph name="a" xMin="42" yMin="-14" xMax="637" yMax="521">
      <contour>
        <pt x="532" y="84" on="1"/>
        <pt x="532" y="75" on="0"/>
        <pt x="534" y="61" on="0"/>
        <pt x="548" y="51" on="0"/>
        <pt x="579" y="45" on="0"/>
        <pt x="607" y="45" on="1"/>
        <pt x="610" y="45" on="0"/>
        <pt x="620" y="44" on="0"/>
        <pt x="630" y="40" on="0"/>
        <pt x="637" y="31" on="0"/>
        <pt x="637" y="23" on="1"/>
        <pt x="637" y="6" on="0"/>
        <pt x="613" y="0" on="0"/>
        <pt x="602" y="0" on="1"/>
        <pt x="544" y="0" on="1"/>
        <pt x="487" y="0" on="0"/>
        <pt x="435" y="28" on="0"/>
        <pt x="426" y="52" on="1"/>
        <pt x="423" y="49" on="0"/>
        <pt x="402" y="28" on="0"/>
        <pt x="364" y="4" on="0"/>
        <pt x="307" y="-14" on="0"/>
        <pt x="268" y="-14" on="1"/>
        <pt x="227" y="-14" on="0"/>
        <pt x="146" y="0" on="0"/>
        <pt x="82" y="32" on="0"/>
        <pt x="42" y="84" on="0"/>
        <pt x="42" y="122" on="1"/>
        <pt x="42" y="160" on="0"/>
        <pt x="87" y="224" on="0"/>
        <pt x="180" y="273" on="0"/>
        <pt x="320" y="303" on="0"/>
        <pt x="414" y="305" on="1"/>
        <pt x="414" y="334" on="1"/>
        <pt x="414" y="369" on="0"/>
        <pt x="393" y="422" on="0"/>
        <pt x="357" y="458" on="0"/>
        <pt x="312" y="476" on="0"/>
        <pt x="288" y="476" on="1"/>
        <pt x="284" y="476" on="0"/>
        <pt x="263" y="475" on="0"/>
        <pt x="237" y="471" on="0"/>
        <pt x="209" y="463" on="0"/>
        <pt x="196" y="455" on="1"/>
        <pt x="200" y="450" on="0"/>
        <pt x="204" y="444" on="1"/>
        <pt x="207" y="438" on="0"/>
        <pt x="212" y="423" on="0"/>
        <pt x="212" y="412" on="1"/>
        <pt x="212" y="386" on="0"/>
        <pt x="178" y="353" on="0"/>
        <pt x="153" y="353" on="1"/>
        <pt x="130" y="353" on="0"/>
        <pt x="94" y="384" on="0"/>
        <pt x="94" y="413" on="1"/>
        <pt x="94" y="440" on="0"/>
        <pt x="118" y="477" on="0"/>
        <pt x="155" y="501" on="0"/>
        <pt x="200" y="514" on="0"/>
        <pt x="243" y="520" on="0"/>
        <pt x="279" y="521" on="0"/>
        <pt x="287" y="521" on="1"/>
        <pt x="338" y="521" on="0"/>
        <pt x="428" y="494" on="0"/>
        <pt x="494" y="445" on="0"/>
        <pt x="532" y="376" on="0"/>
        <pt x="532" y="335" on="1"/>
      </contour>
      <contour>
        <pt x="414" y="260" on="1"/>
        <pt x="295" y="254" on="0"/>
        <pt x="170" y="177" on="0"/>
        <pt x="170" y="123" on="1"/>
        <pt x="170" y="104" on="0"/>
        <pt x="186" y="70" on="0"/>
        <pt x="214" y="45" on="0"/>
        <pt x="252" y="31" on="0"/>
        <pt x="274" y="31" on="1"/>
        <pt x="287" y="31" on="0"/>
        <pt x="334" y="40" on="0"/>
        <pt x="380" y="65" on="0"/>
        <pt x="414" y="113" on="0"/>
        <pt x="414" y="152" on="1"/>
      </contour>
    </TTGlyph>
    <TTGlyph name="acute" xMin="262" yMin="576" xMax="515" yMax="815">
      <contour>
        <pt x="311" y="576" on="1"/>
        <pt x="262" y="630" on="1"/>
        <pt x="414" y="798" on="1"/>
        <pt x="419" y="803" on="0"/>
        <pt x="435" y="815" on="0"/>
        <pt x="454" y="815" on="1"/>
        <pt x="477" y="815" on="0"/>
        <pt x="515" y="778" on="0"/>
        <pt x="515" y="753" on="1"/>
        <pt x="515" y="742" on="0"/>
        <pt x="504" y="717" on="0"/>
        <pt x="487" y="704" on="1"/>
      </contour>
    </TTGlyph>
    <TTGlyph name="ae" xMin="45" yMin="-14" xMax="911" yMax="521">
      <contour>
        <pt x="534" y="287" on="1"/>
        <pt x="533" y="280" on="0"/>
        <pt x="533" y="263" on="0"/>
        <pt x="533" y="256" on="1"/>
        <pt x="533" y="198" on="0"/>
        <pt x="565" y="114" on="0"/>
        <pt x="615" y="60" on="0"/>
        <pt x="676" y="34" on="0"/>
        <pt x="704" y="34" on="1"/>
        <pt x="751" y="34" on="0"/>
        <pt x="821" y="98" on="0"/>
        <pt x="837" y="152" on="1"/>
        <pt x="842" y="170" on="0"/>
        <pt x="857" y="176" on="0"/>
        <pt x="874" y="176" on="1"/>
        <pt x="886" y="176" on="0"/>
        <pt x="911" y="170" on="0"/>
        <pt x="911" y="153" on="1"/>
        <pt x="911" y="141" on="0"/>
        <pt x="888" y="86" on="0"/>
        <pt x="837" y="29" on="0"/>
        <pt x="757" y="-14" on="0"/>
        <pt x="700" y="-14" on="1"/>
        <pt x="643" y="-14" on="0"/>
        <pt x="530" y="30" on="0"/>
        <pt x="485" y="78" on="1"/>
        <pt x="453" y="33" on="0"/>
        <pt x="338" y="-14" on="0"/>
        <pt x="272" y="-14" on="1"/>
        <pt x="229" y="-14" on="0"/>
        <pt x="147" y="3" on="0"/>
        <pt x="83" y="38" on="0"/>
        <pt x="45" y="93" on="0"/>
        <pt x="45" y="131" on="1"/>
        <pt x="45" y="178" on="0"/>
        <pt x="101" y="251" on="0"/>
        <pt x="200" y="302" on="0"/>
        <pt x="336" y="330" on="0"/>
        <pt x="415" y="331" on="1"/>
        <pt x="415" y="364" on="1"/>
        <pt x="415" y="393" on="0"/>
        <pt x="393" y="436" on="0"/>
        <pt x="357" y="463" on="0"/>
        <pt x="311" y="476" on="0"/>
        <pt x="287" y="476" on="1"/>
        <pt x="284" y="476" on="0"/>
        <pt x="265" y="476" on="0"/>
        <pt x="240" y="473" on="0"/>
        <pt x="211" y="467" on="0"/>
        <pt x="198" y="461" on="1"/>
        <pt x="201" y="457" on="0"/>
        <pt x="212" y="438" on="0"/>
        <pt x="212" y="422" on="1"/>
        <pt x="212" y="396" on="0"/>
        <pt x="178" y="363" on="0"/>
        <pt x="153" y="363" on="1"/>
        <pt x="130" y="363" on="0"/>
        <pt x="94" y="394" on="0"/>
        <pt x="94" y="423" on="1"/>
        <pt x="94" y="460" on="0"/>
        <pt x="138" y="500" on="0"/>
        <pt x="199" y="518" on="0"/>
        <pt x="264" y="521" on="0"/>
        <pt x="284" y="521" on="1"/>
        <pt x="334" y="521" on="0"/>
        <pt x="407" y="505" on="0"/>
        <pt x="459" y="482" on="0"/>
        <pt x="491" y="458" on="0"/>
        <pt x="500" y="449" on="1"/>
        <pt x="535" y="481" on="0"/>
        <pt x="625" y="521" on="0"/>
        <pt x="685" y="521" on="1"/>
        <pt x="751" y="521" on="0"/>
        <pt x="838" y="481" on="0"/>
        <pt x="890" y="420" on="0"/>
        <pt x="911" y="348" on="0"/>
        <pt x="911" y="316" on="1"/>
        <pt x="911" y="294" on="0"/>
        <pt x="890" y="287" on="0"/>
        <pt x="876" y="287" on="1"/>
      </contour>
      <contour>
        <pt x="796" y="332" on="1"/>
        <pt x="793" y="406" on="0"/>
        <pt x="730" y="476" on="0"/>
        <pt x="683" y="476" on="1"/>
        <pt x="663" y="476" on="0"/>
        <pt x="620" y="459" on="0"/>
        <pt x="581" y="424" on="0"/>
        <pt x="549" y="370" on="0"/>
        <pt x="541" y="332" on="1"/>
      </contour>
      <contour>
        <pt x="415" y="285" on="1"/>
        <pt x="341" y="281" on="0"/>
        <pt x="247" y="248" on="0"/>
        <pt x="193" y="203" on="0"/>
        <pt x="173" y="153" on="0"/>
        <pt x="173" y="132" on="1"/>
        <pt x="173" y="91" on="0"/>
        <pt x="230" y="31" on="0"/>
        <pt x="275" y="31" on="1"/>
        <pt x="311" y="31" on="0"/>
        <pt x="370" y="56" on="0"/>
        <pt x="411" y="95" on="0"/>
        <pt x="433" y="140" on="0"/>
        <pt x="433" y="159" on="1"/>
        <pt x="433" y="161" on="0"/>
        <pt x="430" y="167" on="1"/>
        <pt x="419" y="198" on="0"/>
        <pt x="415" y="244" on="0"/>
        <pt x="415" y="256" on="1"/>
      </contour>
    </TTGlyph>
    <TTGlyph name="ampersand" xMin="55" yMin="-28" xMax="954" yMax="837">
      <contour>
        <pt x="947" y="155" on="1"/>
        <pt x="946" y="116" on="0"/>
        <pt x="918" y="50" on="0"/>
        <pt x="868" y="0" on="0"/>
        <pt x="801" y="-28" on="0"/>
        <pt x="761" y="-28" on="1"/>
        <pt x="742" y="-28" on="0"/>
        <pt x="692" y="-22" on="0"/>
        <pt x="632" y="-5" on="0"/>
        <pt x="564" y="25" on="0"/>
        <pt x="528" y="50" on="1"/>
        <pt x="476" y="13" on="0"/>
        <pt x="357" y="-28" on="0"/>
        <pt x="293" y="-28" on="1"/>
        <pt x="244" y="-28" on="0"/>
        <pt x="157" y="-2" on="0"/>
        <pt x="93" y="45" on="0"/>
        <pt x="55" y="111" on="0"/>
        <pt x="55" y="150" on="1"/>
        <pt x="55" y="175" on="0"/>
        <pt x="68" y="214" on="0"/>
        <pt x="92" y="248" on="0"/>
        <pt x="127" y="282" on="0"/>
        <pt x="150" y="302" on="1"/>
        <pt x="253" y="393" on="1"/>
        <pt x="224" y="462" on="0"/>
        <pt x="201" y="582" on="0"/>
        <pt x="201" y="631" on="1"/>
        <pt x="201" y="680" on="0"/>
        <pt x="236" y="756" on="0"/>
        <pt x="293" y="809" on="0"/>
        <pt x="364" y="837" on="0"/>
        <pt x="400" y="837" on="1"/>
        <pt x="436" y="837" on="0"/>
        <pt x="491" y="807" on="0"/>
        <pt x="528" y="760" on="0"/>
        <pt x="547" y="702" on="0"/>
        <pt x="547" y="675" on="1"/>
        <pt x="547" y="646" on="0"/>
        <pt x="514" y="584" on="0"/>
        <pt x="461" y="522" on="0"/>
        <pt x="397" y="460" on="0"/>
        <pt x="365" y="431" on="1"/>
        <pt x="398" y="362" on="0"/>
        <pt x="494" y="228" on="0"/>
        <pt x="561" y="153" on="1"/>
        <pt x="583" y="176" on="0"/>
        <pt x="626" y="229" on="0"/>
        <pt x="666" y="281" on="0"/>
        <pt x="700" y="329" on="0"/>
        <pt x="712" y="346" on="1"/>
        <pt x="730" y="373" on="0"/>
        <pt x="745" y="399" on="0"/>
        <pt x="745" y="414" on="1"/>
        <pt x="745" y="453" on="0"/>
        <pt x="699" y="455" on="1"/>
        <pt x="699" y="500" on="1"/>
        <pt x="731" y="499" on="0"/>
        <pt x="768" y="498" on="0"/>
        <pt x="793" y="497" on="0"/>
        <pt x="816" y="497" on="0"/>
        <pt x="834" y="497" on="1"/>
        <pt x="855" y="497" on="0"/>
        <pt x="925" y="498" on="0"/>
        <pt x="954" y="500" on="1"/>
        <pt x="954" y="455" on="1"/>
        <pt x="922" y="454" on="0"/>
        <pt x="874" y="435" on="0"/>
        <pt x="835" y="402" on="0"/>
        <pt x="802" y="357" on="0"/>
        <pt x="784" y="331" on="1"/>
        <pt x="754" y="287" on="0"/>
        <pt x="699" y="215" on="0"/>
        <pt x="669" y="180" on="1"/>
        <pt x="641" y="147" on="0"/>
        <pt x="612" y="120" on="0"/>
        <pt x="602" y="109" on="1"/>
        <pt x="603" y="108" on="0"/>
        <pt x="633" y="78" on="0"/>
        <pt x="679" y="45" on="0"/>
        <pt x="737" y="17" on="0"/>
        <pt x="765" y="17" on="1"/>
        <pt x="786" y="17" on="0"/>
        <pt x="825" y="36" on="0"/>
        <pt x="855" y="71" on="0"/>
        <pt x="873" y="122" on="0"/>
        <pt x="874" y="155" on="1"/>
      </contour>
      <contour>
        <pt x="346" y="476" on="1"/>
        <pt x="352" y="481" on="0"/>
        <pt x="393" y="519" on="0"/>
        <pt x="438" y="575" on="0"/>
        <pt x="474" y="641" on="0"/>
        <pt x="474" y="674" on="1"/>
        <pt x="474" y="689" on="0"/>
        <pt x="467" y="730" on="0"/>
        <pt x="451" y="766" on="0"/>
        <pt x="422" y="792" on="0"/>
        <pt x="401" y="792" on="1"/>
        <pt x="364" y="792" on="0"/>
        <pt x="309" y="724" on="0"/>
        <pt x="309" y="668" on="1"/>
        <pt x="309" y="618" on="0"/>
        <pt x="329" y="522" on="0"/>
      </contour>
      <contour>
        <pt x="273" y="349" on="1"/>
        <pt x="255" y="334" on="0"/>
        <pt x="225" y="305" on="0"/>
        <pt x="203" y="267" on="0"/>
        <pt x="190" y="217" on="0"/>
        <pt x="190" y="180" on="1"/>
        <pt x="190" y="164" on="0"/>
        <pt x="197" y="109" on="0"/>
        <pt x="219" y="56" on="0"/>
        <pt x="261" y="17" on="0"/>
        <pt x="296" y="17" on="1"/>
        <pt x="328" y="17" on="0"/>
        <pt x="426" y="42" on="0"/>
        <pt x="483" y="84" on="1"/>
        <pt x="440" y="118" on="0"/>
        <pt x="332" y="243" on="0"/>
      </contour>
    </TTGlyph>
    <TTGlyph name="asterisk" xMin="85" yMin="309" xMax="570" yMax="809">
      <contour>
        <pt x="374" y="373" on="1"/>
        <pt x="376" y="363" on="0"/>
        <pt x="376" y="357" on="0"/>
        <pt x="376" y="352" on="1"/>
        <pt x="376" y="335" on="0"/>
        <pt x="348" y="309" on="0"/>
        <pt x="328" y="309" on="1"/>
        <pt x="321" y="309" on="0"/>
        <pt x="303" y="314" on="0"/>
        <pt x="287" y="326" on="0"/>
        <pt x="278" y="348" on="0"/>
        <pt x="280" y="364" on="1"/>
        <pt x="299" y="512" on="1"/>
        <pt x="173" y="426" on="1"/>
        <pt x="153" y="412" on="0"/>
        <pt x="141" y="407" on="0"/>
        <pt x="133" y="407" on="1"/>
        <pt x="116" y="407" on="0"/>
        <pt x="85" y="435" on="0"/>
        <pt x="85" y="458" on="1"/>
        <pt x="85" y="481" on="0"/>
        <pt x="107" y="496" on="0"/>
        <pt x="118" y="501" on="1"/>
        <pt x="266" y="559" on="1"/>
        <pt x="117" y="617" on="1"/>
        <pt x="108" y="621" on="0"/>
        <pt x="85" y="637" on="0"/>
        <pt x="85" y="660" on="1"/>
        <pt x="85" y="683" on="0"/>
        <pt x="116" y="711" on="0"/>
        <pt x="133" y="711" on="1"/>
        <pt x="136" y="711" on="0"/>
        <pt x="151" y="708" on="0"/>
        <pt x="164" y="699" on="1"/>
        <pt x="299" y="606" on="1"/>
        <pt x="281" y="745" on="1"/>
        <pt x="279" y="755" on="0"/>
        <pt x="279" y="761" on="0"/>
        <pt x="279" y="766" on="1"/>
        <pt x="279" y="783" on="0"/>
        <pt x="307" y="809" on="0"/>
        <pt x="327" y="809" on="1"/>
        <pt x="335" y="809" on="0"/>
        <pt x="353" y="804" on="0"/>
        <pt x="368" y="791" on="0"/>
        <pt x="377" y="770" on="0"/>
        <pt x="375" y="754" on="1"/>
        <pt x="356" y="606" on="1"/>
        <pt x="492" y="699" on="1"/>
        <pt x="500" y="704" on="0"/>
        <pt x="513" y="711" on="0"/>
        <pt x="522" y="711" on="1"/>
        <pt x="539" y="711" on="0"/>
        <pt x="570" y="683" on="0"/>
        <pt x="570" y="660" on="1"/>
        <pt x="570" y="637" on="0"/>
        <pt x="548" y="622" on="0"/>
        <pt x="537" y="617" on="1"/>
        <pt x="389" y="559" on="1"/>
        <pt x="538" y="501" on="1"/>
        <pt x="547" y="497" on="0"/>
        <pt x="570" y="481" on="0"/>
        <pt x="570" y="458" on="1"/>
        <pt x="570" y="435" on="0"/>
        <pt x="539" y="407" on="0"/>
        <pt x="522" y="407" on="1"/>
        <pt x="519" y="407" on="0"/>
        <pt x="504" y="410" on="0"/>
        <pt x="491" y="419" on="1"/>
        <pt x="356" y="512" on="1"/>
      </contour>
    </TTGlyph>
    <TTGlyph name="at" xMin="73" yMin="-14" xMax="947" yMax="823">
      <contour>
        <pt x="772" y="253" on="1"/>
        <pt x="772" y="248" on="0"/>
        <pt x="773" y="227" on="0"/>
        <pt x="778" y="205" on="0"/>
        <pt x="790" y="189" on="0"/>
        <pt x="801" y="189" on="1"/>
        <pt x="824" y="189" on="0"/>
        <pt x="852" y="219" on="0"/>
        <pt x="868" y="272" on="0"/>
        <pt x="874" y="345" on="0"/>
        <pt x="874" y="388" on="1"/>
        <pt x="874" y="487" on="0"/>
        <pt x="806" y="634" on="0"/>
        <pt x="701" y="731" on="0"/>
        <pt x="572" y="778" on="0"/>
        <pt x="510" y="778" on="1"/>
        <pt x="435" y="778" on="0"/>
        <pt x="303" y="720" on="0"/>
        <pt x="204" y="619" on="0"/>
        <pt x="146" y="482" on="0"/>
        <pt x="146" y="404" on="1"/>
        <pt x="146" y="332" on="0"/>
        <pt x="199" y="197" on="0"/>
        <pt x="296" y="94" on="0"/>
        <pt x="433" y="31" on="0"/>
        <pt x="516" y="31" on="1"/>
        <pt x="584" y="31" on="0"/>
        <pt x="767" y="61" on="0"/>
        <pt x="865" y="102" on="1"/>
        <pt x="879" y="108" on="0"/>
        <pt x="889" y="110" on="0"/>
        <pt x="901" y="110" on="1"/>
        <pt x="912" y="110" on="1"/>
        <pt x="923" y="110" on="0"/>
        <pt x="947" y="104" on="0"/>
        <pt x="947" y="87" on="1"/>
        <pt x="947" y="81" on="0"/>
        <pt x="942" y="73" on="0"/>
        <pt x="938" y="69" on="1"/>
        <pt x="937" y="68" on="0"/>
        <pt x="871" y="42" on="0"/>
        <pt x="757" y="11" on="0"/>
        <pt x="605" y="-14" on="0"/>
        <pt x="517" y="-14" on="1"/>
        <pt x="417" y="-14" on="0"/>
        <pt x="254" y="56" on="0"/>
        <pt x="137" y="172" on="0"/>
        <pt x="73" y="323" on="0"/>
        <pt x="73" y="405" on="1"/>
        <pt x="73" y="491" on="0"/>
        <pt x="141" y="643" on="0"/>
        <pt x="259" y="757" on="0"/>
        <pt x="419" y="823" on="0"/>
        <pt x="510" y="823" on="1"/>
        <pt x="597" y="823" on="0"/>
        <pt x="756" y="760" on="0"/>
        <pt x="876" y="648" on="0"/>
        <pt x="947" y="492" on="0"/>
        <pt x="947" y="400" on="1"/>
        <pt x="947" y="381" on="0"/>
        <pt x="944" y="328" on="0"/>
        <pt x="933" y="271" on="0"/>
        <pt x="913" y="216" on="0"/>
        <pt x="880" y="171" on="0"/>
        <pt x="830" y="144" on="0"/>
        <pt x="796" y="144" on="1"/>
        <pt x="780" y="144" on="0"/>
        <pt x="740" y="151" on="0"/>
        <pt x="703" y="166" on="0"/>
        <pt x="672" y="188" on="0"/>
        <pt x="663" y="204" on="1"/>
        <pt x="634" y="178" on="0"/>
        <pt x="557" y="144" on="0"/>
        <pt x="509" y="144" on="1"/>
        <pt x="457" y="144" on="0"/>
        <pt x="362" y="184" on="0"/>
        <pt x="290" y="254" on="0"/>
        <pt x="248" y="350" on="0"/>
        <pt x="248" y="405" on="1"/>
        <pt x="248" y="459" on="0"/>
        <pt x="290" y="554" on="0"/>
        <pt x="361" y="624" on="0"/>
        <pt x="456" y="665" on="0"/>
        <pt x="509" y="665" on="1"/>
        <pt x="568" y="665" on="0"/>
        <pt x="658" y="615" on="0"/>
        <pt x="687" y="581" on="1"/>
        <pt x="694" y="573" on="0"/>
        <pt x="701" y="570" on="0"/>
        <pt x="713" y="570" on="1"/>
        <pt x="735" y="570" on="1"/>
        <pt x="759" y="570" on="0"/>
        <pt x="772" y="557" on="0"/>
        <pt x="772" y="534" on="1"/>
      </contour>
      <contour>
        <pt x="654" y="496" on="1"/>
        <pt x="654" y="503" on="0"/>
        <pt x="654" y="512" on="0"/>
        <pt x="651" y="522" on="0"/>
        <pt x="644" y="534" on="0"/>
        <pt x="638" y="543" on="1"/>
        <pt x="622" y="568" on="0"/>
        <pt x="585" y="598" on="0"/>
        <pt x="551" y="615" on="0"/>
        <pt x="521" y="620" on="0"/>
        <pt x="511" y="620" on="1"/>
        <pt x="483" y="620" on="0"/>
        <pt x="430" y="588" on="0"/>
        <pt x="390" y="531" on="0"/>
        <pt x="366" y="451" on="0"/>
        <pt x="366" y="404" on="1"/>
        <pt x="366" y="358" on="0"/>
        <pt x="390" y="280" on="0"/>
        <pt x="430" y="222" on="0"/>
        <pt x="482" y="189" on="0"/>
        <pt x="511" y="189" on="1"/>
        <pt x="519" y="189" on="0"/>
        <pt x="548" y="193" on="0"/>
        <pt x="583" y="210" on="0"/>
        <pt x="621" y="241" on="0"/>
        <pt x="638" y="268" on="1"/>
        <pt x="650" y="286" on="0"/>
        <pt x="654" y="300" on="0"/>
        <pt x="654" y="313" on="1"/>
      </contour>
    </TTGlyph>
    <TTGlyph name="b" xMin="45" yMin="-14" xMax="670" yMax="809">
      <contour>
        <pt x="233" y="478" on="1"/>
        <pt x="266" y="496" on="0"/>
        <pt x="346" y="514" on="0"/>
        <pt x="385" y="514" on="1"/>
        <pt x="447" y="514" on="0"/>
        <pt x="551" y="471" on="0"/>
        <pt x="627" y="399" on="0"/>
        <pt x="670" y="303" on="0"/>
        <pt x="670" y="250" on="1"/>
        <pt x="670" y="196" on="0"/>
        <pt x="624" y="100" on="0"/>
        <pt x="543" y="28" on="0"/>
        <pt x="435" y="-14" on="0"/>
        <pt x="373" y="-14" on="1"/>
        <pt x="333" y="-14" on="0"/>
        <pt x="252" y="10" on="0"/>
        <pt x="216" y="39" on="1"/>
        <pt x="216" y="38" on="0"/>
        <pt x="208" y="26" on="0"/>
        <pt x="199" y="12" on="0"/>
        <pt x="191" y="0" on="0"/>
        <pt x="191" y="0" on="1"/>
        <pt x="118" y="0" on="1"/>
        <pt x="118" y="687" on="1"/>
        <pt x="118" y="710" on="0"/>
        <pt x="112" y="737" on="0"/>
        <pt x="96" y="750" on="0"/>
        <pt x="68" y="754" on="0"/>
        <pt x="45" y="754" on="1"/>
        <pt x="45" y="799" on="1"/>
        <pt x="233" y="809" on="1"/>
      </contour>
      <contour>
        <pt x="236" y="107" on="1"/>
        <pt x="253" y="82" on="0"/>
        <pt x="291" y="51" on="0"/>
        <pt x="328" y="36" on="0"/>
        <pt x="361" y="31" on="0"/>
        <pt x="371" y="31" on="1"/>
        <pt x="396" y="31" on="0"/>
        <pt x="453" y="53" on="0"/>
        <pt x="502" y="104" on="0"/>
        <pt x="535" y="188" on="0"/>
        <pt x="535" y="251" on="1"/>
        <pt x="535" y="311" on="0"/>
        <pt x="507" y="394" on="0"/>
        <pt x="463" y="446" on="0"/>
        <pt x="410" y="469" on="0"/>
        <pt x="384" y="469" on="1"/>
        <pt x="348" y="469" on="0"/>
        <pt x="275" y="443" on="0"/>
        <pt x="253" y="421" on="1"/>
        <pt x="247" y="415" on="0"/>
        <pt x="240" y="408" on="0"/>
        <pt x="237" y="401" on="0"/>
        <pt x="236" y="393" on="0"/>
        <pt x="236" y="386" on="1"/>
      </contour>
    </TTGlyph>
    <TTGlyph name="bracketleft" xMin="145" yMin="-191" xMax="335" yMax="809">
      <contour>
        <pt x="218" y="736" on="1"/>
        <pt x="218" y="-118" on="1"/>
        <pt x="335" y="-118" on="1"/>
        <pt x="335" y="-191" on="1"/>
        <pt x="145" y="-191" on="1"/>
        <pt x="145" y="809" on="1"/>
        <pt x="335" y="809" on="1"/>
        <pt x="335" y="736" on="1"/>
      </contour>
    </TTGlyph>
    <TTGlyph name="bracketright" xMin="29" yMin="-191" xMax="219" yMax="809">
      <contour>
        <pt x="219" y="-191" on="1"/>
        <pt x="29" y="-191" on="1"/>
        <pt x="29" y="-118" on="1"/>
        <pt x="146" y="-118" on="1"/>
        <pt x="146" y="736" on="1"/>
        <pt x="29" y="736" on="1"/>
        <pt x="29" y="809" on="1"/>
        <pt x="219" y="809" on="1"/>
      </contour>
    </TTGlyph>
    <TTGlyph name="breve" xMin="123" yMin="596" xMax="532" yMax="809">
      <contour>
        <pt x="532" y="809" on="1"/>
        <pt x="531" y="761" on="0"/>
        <pt x="497" y="683" on="0"/>
        <pt x="441" y="627" on="0"/>
        <pt x="367" y="596" on="0"/>
        <pt x="327" y="596" on="1"/>
        <pt x="288" y="596" on="0"/>
        <pt x="215" y="626" on="0"/>
        <pt x="158" y="682" on="0"/>
        <pt x="124" y="761" on="0"/>
        <pt x="123" y="809" on="1"/>
        <pt x="168" y="809" on="1"/>
        <pt x="169" y="774" on="0"/>
        <pt x="198" y="720" on="0"/>
        <pt x="243" y="684" on="0"/>
        <pt x="300" y="665" on="0"/>
        <pt x="328" y="665" on="1"/>
        <pt x="355" y="665" on="0"/>
        <pt x="411" y="683" on="0"/>
        <pt x="456" y="719" on="0"/>
        <pt x="486" y="773" on="0"/>
        <pt x="487" y="809" on="1"/>
      </contour>
    </TTGlyph>
    <TTGlyph name="c" xMin="44" yMin="-14" xMax="546" yMax="521">
      <contour>
        <pt x="426" y="460" on="1"/>
        <pt x="398" y="470" on="0"/>
        <pt x="343" y="473" on="0"/>
        <pt x="335" y="473" on="1"/>
        <pt x="299" y="473" on="0"/>
        <pt x="241" y="439" on="0"/>
        <pt x="200" y="380" on="0"/>
        <pt x="179" y="299" on="0"/>
        <pt x="179" y="251" on="1"/>
        <pt x="179" y="197" on="0"/>
        <pt x="206" y="116" on="0"/>
        <pt x="250" y="62" on="0"/>
        <pt x="304" y="34" on="0"/>
        <pt x="332" y="34" on="1"/>
        <pt x="376" y="34" on="0"/>
        <pt x="453" y="88" on="0"/>
        <pt x="472" y="152" on="1"/>
        <pt x="477" y="170" on="0"/>
        <pt x="492" y="176" on="0"/>
        <pt x="509" y="176" on="1"/>
        <pt x="521" y="176" on="0"/>
        <pt x="546" y="170" on="0"/>
        <pt x="546" y="153" on="1"/>
        <pt x="546" y="149" on="0"/>
        <pt x="538" y="121" on="0"/>
        <pt x="519" y="84" on="0"/>
        <pt x="487" y="43" on="0"/>
        <pt x="438" y="8" on="0"/>
        <pt x="371" y="-14" on="0"/>
        <pt x="327" y="-14" on="1"/>
        <pt x="269" y="-14" on="0"/>
        <pt x="166" y="27" on="0"/>
        <pt x="89" y="99" on="0"/>
        <pt x="44" y="196" on="0"/>
        <pt x="44" y="251" on="1"/>
        <pt x="44" y="296" on="0"/>
        <pt x="80" y="392" on="0"/>
        <pt x="153" y="471" on="0"/>
        <pt x="264" y="521" on="0"/>
        <pt x="339" y="521" on="1"/>
        <pt x="361" y="521" on="0"/>
        <pt x="427" y="518" on="0"/>
        <pt x="488" y="500" on="0"/>
        <pt x="531" y="460" on="0"/>
        <pt x="531" y="423" on="1"/>
        <pt x="531" y="394" on="0"/>
        <pt x="495" y="363" on="0"/>
        <pt x="472" y="363" on="1"/>
        <pt x="447" y="363" on="0"/>
        <pt x="413" y="396" on="0"/>
        <pt x="413" y="422" on="1"/>
        <pt x="413" y="439" on="0"/>
        <pt x="424" y="458" on="0"/>
      </contour>
    </TTGlyph>
    <TTGlyph name="caron" xMin="146" yMin="593" xMax="509" yMax="764">
      <contour>
        <pt x="473" y="764" on="1"/>
        <pt x="509" y="700" on="1"/>
        <pt x="327" y="593" on="1"/>
        <pt x="146" y="700" on="1"/>
        <pt x="182" y="764" on="1"/>
        <pt x="328" y="684" on="1"/>
      </contour>
    </TTGlyph>
    <TTGlyph name="cedilla" xMin="159" yMin="-218" xMax="496" yMax="-28">
      <contour>
        <pt x="386" y="-28" on="1"/>
        <pt x="386" y="-36" on="1"/>
        <pt x="405" y="-39" on="0"/>
        <pt x="444" y="-49" on="0"/>
        <pt x="476" y="-69" on="0"/>
        <pt x="496" y="-100" on="0"/>
        <pt x="496" y="-123" on="1"/>
        <pt x="496" y="-151" on="0"/>
        <pt x="458" y="-186" on="0"/>
        <pt x="394" y="-206" on="0"/>
        <pt x="311" y="-215" on="0"/>
        <pt x="266" y="-216" on="1"/>
        <pt x="241" y="-217" on="0"/>
        <pt x="182" y="-216" on="0"/>
        <pt x="159" y="-218" on="1"/>
        <pt x="159" y="-173" on="1"/>
        <pt x="194" y="-171" on="0"/>
        <pt x="254" y="-173" on="0"/>
        <pt x="290" y="-168" on="1"/>
        <pt x="301" y="-167" on="0"/>
        <pt x="331" y="-162" on="0"/>
        <pt x="358" y="-153" on="0"/>
        <pt x="378" y="-136" on="0"/>
        <pt x="378" y="-123" on="1"/>
        <pt x="378" y="-105" on="0"/>
        <pt x="353" y="-86" on="0"/>
        <pt x="319" y="-77" on="0"/>
        <pt x="281" y="-76" on="0"/>
        <pt x="268" y="-76" on="1"/>
        <pt x="268" y="-28" on="1"/>
      </contour>
    </TTGlyph>
    <TTGlyph name="circumflex" xMin="141" yMin="604" xMax="514" yMax="809">
      <contour>
        <pt x="514" y="660" on="1"/>
        <pt x="468" y="604" on="1"/>
        <pt x="328" y="719" on="1"/>
        <pt x="187" y="604" on="1"/>
        <pt x="141" y="660" on="1"/>
        <pt x="328" y="809" on="1"/>
      </contour>
    </TTGlyph>
    <TTGlyph name="colon" xMin="123" yMin="0" xMax="241" yMax="500">
      <contour>
        <pt x="241" y="441" on="1"/>
        <pt x="241" y="417" on="0"/>
        <pt x="207" y="382" on="0"/>
        <pt x="182" y="382" on="1"/>
        <pt x="157" y="382" on="0"/>
        <pt x="123" y="417" on="0"/>
        <pt x="123" y="441" on="1"/>
        <pt x="123" y="465" on="0"/>
        <pt x="157" y="500" on="0"/>
        <pt x="182" y="500" on="1"/>
        <pt x="207" y="500" on="0"/>
        <pt x="241" y="465" on="0"/>
      </contour>
      <contour>
        <pt x="241" y="59" on="1"/>
        <pt x="241" y="35" on="0"/>
        <pt x="207" y="0" on="0"/>
        <pt x="182" y="0" on="1"/>
        <pt x="157" y="0" on="0"/>
        <pt x="123" y="35" on="0"/>
        <pt x="123" y="59" on="1"/>
        <pt x="123" y="83" on="0"/>
        <pt x="157" y="118" on="0"/>
        <pt x="182" y="118" on="1"/>
        <pt x="207" y="118" on="0"/>
        <pt x="241" y="83" on="0"/>
      </contour>
    </TTGlyph>
    <TTGlyph name="comma" xMin="123" yMin="-191" xMax="256" yMax="118">
      <contour>
        <pt x="211" y="7" on="1"/>
        <pt x="209" y="6" on="0"/>
        <pt x="193" y="0" on="0"/>
        <pt x="182" y="0" on="1"/>
        <pt x="156" y="0" on="0"/>
        <pt x="123" y="34" on="0"/>
        <pt x="123" y="59" on="1"/>
        <pt x="123" y="83" on="0"/>
        <pt x="156" y="118" on="0"/>
        <pt x="182" y="118" on="1"/>
        <pt x="214" y="118" on="0"/>
        <pt x="256" y="61" on="0"/>
        <pt x="256" y="7" on="1"/>
        <pt x="256" y="-39" on="0"/>
        <pt x="227" y="-112" on="0"/>
        <pt x="189" y="-163" on="0"/>
        <pt x="153" y="-191" on="0"/>
        <pt x="146" y="-191" on="1"/>
        <pt x="137" y="-191" on="0"/>
        <pt x="123" y="-178" on="0"/>
        <pt x="123" y="-168" on="1"/>
        <pt x="123" y="-161" on="0"/>
        <pt x="129" y="-153" on="0"/>
        <pt x="134" y="-149" on="1"/>
        <pt x="141" y="-143" on="0"/>
        <pt x="166" y="-119" on="0"/>
        <pt x="191" y="-81" on="0"/>
        <pt x="210" y="-28" on="0"/>
      </contour>
    </TTGlyph>
    <TTGlyph name="d" xMin="44" yMin="-14" xMax="669" yMax="809">
      <contour>
        <pt x="596" y="809" on="1"/>
        <pt x="596" y="112" on="1"/>
        <pt x="596" y="89" on="0"/>
        <pt x="602" y="62" on="0"/>
        <pt x="618" y="49" on="0"/>
        <pt x="647" y="45" on="0"/>
        <pt x="669" y="45" on="1"/>
        <pt x="669" y="0" on="1"/>
        <pt x="478" y="-10" on="1"/>
        <pt x="478" y="28" on="1"/>
        <pt x="447" y="8" on="0"/>
        <pt x="370" y="-14" on="0"/>
        <pt x="327" y="-14" on="1"/>
        <pt x="268" y="-14" on="0"/>
        <pt x="165" y="28" on="0"/>
        <pt x="88" y="100" on="0"/>
        <pt x="44" y="196" on="0"/>
        <pt x="44" y="250" on="1"/>
        <pt x="44" y="304" on="0"/>
        <pt x="90" y="400" on="0"/>
        <pt x="170" y="472" on="0"/>
        <pt x="279" y="514" on="0"/>
        <pt x="342" y="514" on="1"/>
        <pt x="384" y="514" on="0"/>
        <pt x="455" y="494" on="0"/>
        <pt x="481" y="480" on="1"/>
        <pt x="481" y="687" on="1"/>
        <pt x="481" y="710" on="0"/>
        <pt x="475" y="737" on="0"/>
        <pt x="459" y="750" on="0"/>
        <pt x="431" y="754" on="0"/>
        <pt x="408" y="754" on="1"/>
        <pt x="408" y="799" on="1"/>
      </contour>
      <contour>
        <pt x="478" y="388" on="1"/>
        <pt x="478" y="402" on="0"/>
        <pt x="474" y="412" on="0"/>
        <pt x="463" y="422" on="1"/>
        <pt x="441" y="445" on="0"/>
        <pt x="377" y="469" on="0"/>
        <pt x="343" y="469" on="1"/>
        <pt x="318" y="469" on="0"/>
        <pt x="261" y="447" on="0"/>
        <pt x="212" y="396" on="0"/>
        <pt x="179" y="312" on="0"/>
        <pt x="179" y="249" on="1"/>
        <pt x="179" y="188" on="0"/>
        <pt x="208" y="105" on="0"/>
        <pt x="253" y="54" on="0"/>
        <pt x="305" y="31" on="0"/>
        <pt x="329" y="31" on="1"/>
        <pt x="340" y="31" on="0"/>
        <pt x="375" y="36" on="0"/>
        <pt x="416" y="52" on="0"/>
        <pt x="459" y="83" on="0"/>
        <pt x="478" y="110" on="1"/>
      </contour>
    </TTGlyph>
    <TTGlyph name="dieresis" xMin="137" yMin="655" xMax="518" yMax="783">
      <contour>
        <pt x="265" y="719" on="1"/>
        <pt x="265" y="695" on="0"/>
        <pt x="230" y="655" on="0"/>
        <pt x="201" y="655" on="1"/>
        <pt x="176" y="655" on="0"/>
        <pt x="137" y="690" on="0"/>
        <pt x="137" y="719" on="1"/>
        <pt x="137" y="748" on="0"/>
        <pt x="176" y="783" on="0"/>
        <pt x="201" y="783" on="1"/>
        <pt x="230" y="783" on="0"/>
        <pt x="265" y="743" on="0"/>
      </contour>
      <contour>
        <pt x="518" y="719" on="1"/>
        <pt x="518" y="690" on="0"/>
        <pt x="479" y="655" on="0"/>
        <pt x="454" y="655" on="1"/>
        <pt x="425" y="655" on="0"/>
        <pt x="390" y="695" on="0"/>
        <pt x="390" y="719" on="1"/>
        <pt x="390" y="743" on="0"/>
        <pt x="425" y="783" on="0"/>
        <pt x="454" y="783" on="1"/>
        <pt x="479" y="783" on="0"/>
        <pt x="518" y="748" on="0"/>
      </contour>
    </TTGlyph>
    <TTGlyph name="dotaccent" xMin="115" yMin="648" xMax="249" yMax="783">
      <contour>
        <pt x="249" y="715" on="1"/>
        <pt x="249" y="689" on="0"/>
        <pt x="211" y="648" on="0"/>
        <pt x="182" y="648" on="1"/>
        <pt x="154" y="648" on="0"/>
        <pt x="115" y="687" on="0"/>
        <pt x="115" y="716" on="1"/>
        <pt x="115" y="742" on="0"/>
        <pt x="153" y="783" on="0"/>
        <pt x="182" y="783" on="1"/>
        <pt x="210" y="783" on="0"/>
        <pt x="249" y="744" on="0"/>
      </contour>
    </TTGlyph>
    <TTGlyph name="dotlessi" xMin="51" yMin="0" xMax="305" yMax="510">
      <contour>
        <pt x="239" y="96" on="1"/>
        <pt x="239" y="79" on="0"/>
        <pt x="243" y="59" on="0"/>
        <pt x="257" y="48" on="0"/>
        <pt x="283" y="45" on="0"/>
        <pt x="305" y="45" on="1"/>
        <pt x="305" y="0" on="1"/>
        <pt x="285" y="1" on="0"/>
        <pt x="253" y="2" on="0"/>
        <pt x="225" y="3" on="0"/>
        <pt x="196" y="3" on="0"/>
        <pt x="179" y="3" on="1"/>
        <pt x="158" y="3" on="0"/>
        <pt x="130" y="3" on="0"/>
        <pt x="104" y="2" on="0"/>
        <pt x="74" y="1" on="0"/>
        <pt x="51" y="0" on="1"/>
        <pt x="51" y="45" on="1"/>
        <pt x="75" y="45" on="0"/>
        <pt x="104" y="48" on="0"/>
        <pt x="119" y="59" on="0"/>
        <pt x="124" y="80" on="0"/>
        <pt x="124" y="97" on="1"/>
        <pt x="124" y="388" on="1"/>
        <pt x="124" y="411" on="0"/>
        <pt x="118" y="438" on="0"/>
        <pt x="103" y="451" on="0"/>
        <pt x="76" y="455" on="0"/>
        <pt x="55" y="455" on="1"/>
        <pt x="55" y="500" on="1"/>
        <pt x="239" y="510" on="1"/>
      </contour>
    </TTGlyph>
    <TTGlyph name="e" xMin="36" yMin="-14" xMax="559" yMax="521">
      <contour>
        <pt x="172" y="287" on="1"/>
        <pt x="171" y="280" on="0"/>
        <pt x="171" y="263" on="0"/>
        <pt x="171" y="256" on="1"/>
        <pt x="171" y="191" on="0"/>
        <pt x="206" y="105" on="0"/>
        <pt x="257" y="54" on="0"/>
        <pt x="315" y="34" on="0"/>
        <pt x="338" y="34" on="1"/>
        <pt x="389" y="34" on="0"/>
        <pt x="468" y="100" on="0"/>
        <pt x="484" y="151" on="1"/>
        <pt x="490" y="170" on="0"/>
        <pt x="502" y="176" on="0"/>
        <pt x="522" y="176" on="1"/>
        <pt x="534" y="176" on="0"/>
        <pt x="559" y="170" on="0"/>
        <pt x="559" y="153" on="1"/>
        <pt x="559" y="141" on="0"/>
        <pt x="535" y="86" on="0"/>
        <pt x="481" y="29" on="0"/>
        <pt x="395" y="-14" on="0"/>
        <pt x="333" y="-14" on="1"/>
        <pt x="272" y="-14" on="0"/>
        <pt x="164" y="28" on="0"/>
        <pt x="83" y="101" on="0"/>
        <pt x="36" y="199" on="0"/>
        <pt x="36" y="255" on="1"/>
        <pt x="36" y="307" on="0"/>
        <pt x="78" y="403" on="0"/>
        <pt x="153" y="477" on="0"/>
        <pt x="256" y="521" on="0"/>
        <pt x="318" y="521" on="1"/>
        <pt x="393" y="521" on="0"/>
        <pt x="487" y="477" on="0"/>
        <pt x="540" y="413" on="0"/>
        <pt x="559" y="343" on="0"/>
        <pt x="559" y="316" on="1"/>
        <pt x="559" y="294" on="0"/>
        <pt x="538" y="287" on="0"/>
        <pt x="524" y="287" on="1"/>
      </contour>
      <contour>
        <pt x="444" y="332" on="1"/>
        <pt x="443" y="361" on="0"/>
        <pt x="427" y="414" on="0"/>
        <pt x="396" y="453" on="0"/>
        <pt x="349" y="476" on="0"/>
        <pt x="317" y="476" on="1"/>
        <pt x="292" y="476" on="0"/>
        <pt x="247" y="455" on="0"/>
        <pt x="210" y="416" on="0"/>
        <pt x="184" y="364" on="0"/>
        <pt x="178" y="332" on="1"/>
      </contour>
    </TTGlyph>
    <TTGlyph name="eight" xMin="55" yMin="-28" xMax="600" yMax="837">
      <contour>
        <pt x="417" y="451" on="1"/>
        <pt x="447" y="433" on="0"/>
        <pt x="488" y="408" on="0"/>
        <pt x="516" y="388" on="0"/>
        <pt x="535" y="370" on="0"/>
        <pt x="545" y="358" on="1"/>
        <pt x="567" y="331" on="0"/>
        <pt x="600" y="260" on="0"/>
        <pt x="600" y="212" on="1"/>
        <pt x="600" y="161" on="0"/>
        <pt x="557" y="74" on="0"/>
        <pt x="483" y="9" on="0"/>
        <pt x="383" y="-28" on="0"/>
        <pt x="327" y="-28" on="1"/>
        <pt x="275" y="-28" on="0"/>
        <pt x="177" y="3" on="0"/>
        <pt x="101" y="61" on="0"/>
        <pt x="55" y="144" on="0"/>
        <pt x="55" y="195" on="1"/>
        <pt x="55" y="237" on="0"/>
        <pt x="84" y="306" on="0"/>
        <pt x="134" y="363" on="0"/>
        <pt x="198" y="408" on="0"/>
        <pt x="233" y="425" on="1"/>
        <pt x="205" y="443" on="0"/>
        <pt x="174" y="464" on="0"/>
        <pt x="156" y="478" on="0"/>
        <pt x="146" y="489" on="0"/>
        <pt x="138" y="498" on="1"/>
        <pt x="119" y="521" on="0"/>
        <pt x="91" y="585" on="0"/>
        <pt x="91" y="625" on="1"/>
        <pt x="91" y="670" on="0"/>
        <pt x="129" y="748" on="0"/>
        <pt x="193" y="805" on="0"/>
        <pt x="280" y="837" on="0"/>
        <pt x="328" y="837" on="1"/>
        <pt x="373" y="837" on="0"/>
        <pt x="458" y="810" on="0"/>
        <pt x="524" y="759" on="0"/>
        <pt x="564" y="688" on="0"/>
        <pt x="564" y="644" on="1"/>
        <pt x="564" y="604" on="0"/>
        <pt x="533" y="542" on="0"/>
        <pt x="488" y="495" on="0"/>
        <pt x="437" y="462" on="0"/>
      </contour>
      <contour>
        <pt x="368" y="482" on="1"/>
        <pt x="426" y="517" on="0"/>
        <pt x="472" y="604" on="0"/>
        <pt x="472" y="644" on="1"/>
        <pt x="472" y="673" on="0"/>
        <pt x="450" y="727" on="0"/>
        <pt x="412" y="768" on="0"/>
        <pt x="359" y="792" on="0"/>
        <pt x="327" y="792" on="1"/>
        <pt x="299" y="792" on="0"/>
        <pt x="247" y="773" on="0"/>
        <pt x="207" y="738" on="0"/>
        <pt x="183" y="691" on="0"/>
        <pt x="183" y="663" on="1"/>
        <pt x="183" y="625" on="0"/>
        <pt x="222" y="572" on="0"/>
        <pt x="244" y="558" on="1"/>
      </contour>
      <contour>
        <pt x="283" y="394" on="1"/>
        <pt x="226" y="364" on="0"/>
        <pt x="154" y="258" on="0"/>
        <pt x="154" y="195" on="1"/>
        <pt x="154" y="158" on="0"/>
        <pt x="181" y="93" on="0"/>
        <pt x="228" y="45" on="0"/>
        <pt x="292" y="17" on="0"/>
        <pt x="328" y="17" on="1"/>
        <pt x="363" y="17" on="0"/>
        <pt x="425" y="41" on="0"/>
        <pt x="473" y="84" on="0"/>
        <pt x="501" y="142" on="0"/>
        <pt x="501" y="176" on="1"/>
        <pt x="501" y="217" on="0"/>
        <pt x="462" y="282" on="0"/>
        <pt x="433" y="302" on="1"/>
        <pt x="420" y="311" on="0"/>
        <pt x="385" y="334" on="0"/>
        <pt x="344" y="358" on="0"/>
        <pt x="302" y="383" on="0"/>
      </contour>
    </TTGlyph>
    <TTGlyph name="emdash" xMin="0" yMin="287" xMax="1311" yMax="332">
      <contour>
        <pt x="0" y="287" on="1"/>
        <pt x="0" y="332" on="1"/>
        <pt x="1311" y="332" on="1"/>
        <pt x="1311" y="287" on="1"/>
      </contour>
    </TTGlyph>
    <TTGlyph name="endash" xMin="0" yMin="287" xMax="655" yMax="332">
      <contour>
        <pt x="0" y="287" on="1"/>
        <pt x="0" y="332" on="1"/>
        <pt x="655" y="332" on="1"/>
        <pt x="655" y="287" on="1"/>
      </contour>
    </TTGlyph>
    <TTGlyph name="equal" xMin="73" yMin="151" xMax="947" yMax="468">
      <contour>
        <pt x="122" y="395" on="1"/>
        <pt x="117" y="395" on="0"/>
        <pt x="101" y="396" on="0"/>
        <pt x="85" y="403" on="0"/>
        <pt x="73" y="418" on="0"/>
        <pt x="73" y="432" on="1"/>
        <pt x="73" y="446" on="0"/>
        <pt x="85" y="460" on="0"/>
        <pt x="101" y="467" on="0"/>
        <pt x="117" y="468" on="0"/>
        <pt x="121" y="468" on="1"/>
        <pt x="899" y="468" on="1"/>
        <pt x="903" y="468" on="0"/>
        <pt x="919" y="467" on="0"/>
        <pt x="935" y="460" on="0"/>
        <pt x="947" y="446" on="0"/>
        <pt x="947" y="432" on="1"/>
        <pt x="947" y="418" on="0"/>
        <pt x="935" y="403" on="0"/>
        <pt x="919" y="396" on="0"/>
        <pt x="903" y="395" on="0"/>
        <pt x="898" y="395" on="1"/>
      </contour>
      <contour>
        <pt x="121" y="151" on="1"/>
        <pt x="117" y="151" on="0"/>
        <pt x="101" y="152" on="0"/>
        <pt x="85" y="159" on="0"/>
        <pt x="73" y="174" on="0"/>
        <pt x="73" y="187" on="1"/>
        <pt x="73" y="201" on="0"/>
        <pt x="85" y="216" on="0"/>
        <pt x="101" y="223" on="0"/>
        <pt x="117" y="224" on="0"/>
        <pt x="122" y="224" on="1"/>
        <pt x="898" y="224" on="1"/>
        <pt x="903" y="224" on="0"/>
        <pt x="919" y="223" on="0"/>
        <pt x="935" y="216" on="0"/>
        <pt x="947" y="201" on="0"/>
        <pt x="947" y="187" on="1"/>
        <pt x="947" y="174" on="0"/>
        <pt x="935" y="159" on="0"/>
        <pt x="919" y="152" on="0"/>
        <pt x="903" y="151" on="0"/>
        <pt x="899" y="151" on="1"/>
      </contour>
    </TTGlyph>
    <TTGlyph name="exclam" xMin="122" yMin="0" xMax="242" yMax="837">
      <contour>
        <pt x="219" y="248" on="1"/>
        <pt x="218" y="224" on="0"/>
        <pt x="203" y="215" on="0"/>
        <pt x="182" y="215" on="1"/>
        <pt x="161" y="215" on="0"/>
        <pt x="146" y="224" on="0"/>
        <pt x="145" y="249" on="1"/>
        <pt x="123" y="769" on="1"/>
        <pt x="122" y="791" on="0"/>
        <pt x="136" y="818" on="0"/>
        <pt x="156" y="832" on="0"/>
        <pt x="176" y="837" on="0"/>
        <pt x="182" y="837" on="1"/>
        <pt x="188" y="837" on="0"/>
        <pt x="208" y="832" on="0"/>
        <pt x="228" y="818" on="0"/>
        <pt x="242" y="791" on="0"/>
        <pt x="241" y="769" on="1"/>
      </contour>
      <contour>
        <pt x="241" y="59" on="1"/>
        <pt x="241" y="35" on="0"/>
        <pt x="207" y="0" on="0"/>
        <pt x="182" y="0" on="1"/>
        <pt x="157" y="0" on="0"/>
        <pt x="123" y="35" on="0"/>
        <pt x="123" y="59" on="1"/>
        <pt x="123" y="83" on="0"/>
        <pt x="157" y="118" on="0"/>
        <pt x="182" y="118" on="1"/>
        <pt x="207" y="118" on="0"/>
        <pt x="241" y="83" on="0"/>
      </contour>
    </TTGlyph>
    <TTGlyph name="exclamdown" xMin="122" yMin="-219" xMax="242" yMax="618">
      <contour>
        <pt x="241" y="559" on="1"/>
        <pt x="241" y="535" on="0"/>
        <pt x="207" y="500" on="0"/>
        <pt x="182" y="500" on="1"/>
        <pt x="157" y="500" on="0"/>
        <pt x="123" y="535" on="0"/>
        <pt x="123" y="559" on="1"/>
        <pt x="123" y="583" on="0"/>
        <pt x="157" y="618" on="0"/>
        <pt x="182" y="618" on="1"/>
        <pt x="207" y="618" on="0"/>
        <pt x="241" y="583" on="0"/>
      </contour>
      <contour>
        <pt x="145" y="369" on="1"/>
        <pt x="146" y="394" on="0"/>
        <pt x="162" y="403" on="0"/>
        <pt x="182" y="403" on="1"/>
        <pt x="202" y="403" on="0"/>
        <pt x="218" y="395" on="0"/>
        <pt x="219" y="371" on="1"/>
        <pt x="241" y="-151" on="1"/>
        <pt x="242" y="-173" on="0"/>
        <pt x="228" y="-200" on="0"/>
        <pt x="208" y="-214" on="0"/>
        <pt x="188" y="-219" on="0"/>
        <pt x="182" y="-219" on="1"/>
        <pt x="176" y="-219" on="0"/>
        <pt x="156" y="-214" on="0"/>
        <pt x="136" y="-200" on="0"/>
        <pt x="122" y="-173" on="0"/>
        <pt x="123" y="-151" on="1"/>
      </contour>
    </TTGlyph>
    <TTGlyph name="f" xMin="42" yMin="0" xMax="471" yMax="823">
      <contour>
        <pt x="247" y="100" on="1"/>
        <pt x="247" y="82" on="0"/>
        <pt x="252" y="60" on="0"/>
        <pt x="271" y="48" on="0"/>
        <pt x="307" y="45" on="0"/>
        <pt x="338" y="45" on="1"/>
        <pt x="338" y="0" on="1"/>
        <pt x="306" y="1" on="0"/>
        <pt x="269" y="2" on="0"/>
        <pt x="242" y="3" on="0"/>
        <pt x="215" y="3" on="0"/>
        <pt x="194" y="3" on="1"/>
        <pt x="170" y="3" on="0"/>
        <pt x="139" y="3" on="0"/>
        <pt x="112" y="2" on="0"/>
        <pt x="82" y="1" on="0"/>
        <pt x="59" y="0" on="1"/>
        <pt x="59" y="45" on="1"/>
        <pt x="83" y="45" on="0"/>
        <pt x="112" y="48" on="0"/>
        <pt x="127" y="59" on="0"/>
        <pt x="132" y="80" on="0"/>
        <pt x="132" y="97" on="1"/>
        <pt x="132" y="455" on="1"/>
        <pt x="42" y="455" on="1"/>
        <pt x="42" y="500" on="1"/>
        <pt x="132" y="500" on="1"/>
        <pt x="132" y="628" on="1"/>
        <pt x="132" y="673" on="0"/>
        <pt x="168" y="745" on="0"/>
        <pt x="227" y="796" on="0"/>
        <pt x="303" y="823" on="0"/>
        <pt x="343" y="823" on="1"/>
        <pt x="401" y="823" on="0"/>
        <pt x="471" y="772" on="0"/>
        <pt x="471" y="732" on="1"/>
        <pt x="471" y="706" on="0"/>
        <pt x="438" y="673" on="0"/>
        <pt x="412" y="673" on="1"/>
        <pt x="387" y="673" on="0"/>
        <pt x="353" y="706" on="0"/>
        <pt x="353" y="732" on="1"/>
        <pt x="353" y="752" on="0"/>
        <pt x="363" y="768" on="0"/>
        <pt x="368" y="773" on="1"/>
        <pt x="362" y="776" on="0"/>
        <pt x="349" y="778" on="0"/>
        <pt x="344" y="778" on="1"/>
        <pt x="327" y="778" on="0"/>
        <pt x="292" y="759" on="0"/>
        <pt x="263" y="721" on="0"/>
        <pt x="244" y="665" on="0"/>
        <pt x="244" y="628" on="1"/>
        <pt x="244" y="500" on="1"/>
        <pt x="383" y="500" on="1"/>
        <pt x="383" y="455" on="1"/>
        <pt x="247" y="455" on="1"/>
      </contour>
    </TTGlyph>
    <TTGlyph name="f_f" xMin="35" yMin="0" xMax="829" yMax="823">
      <contour>
        <pt x="604" y="100" on="1"/>
        <pt x="604" y="82" on="0"/>
        <pt x="609" y="60" on="0"/>
        <pt x="628" y="48" on="0"/>
        <pt x="664" y="45" on="0"/>
        <pt x="695" y="45" on="1"/>
        <pt x="695" y="0" on="1"/>
        <pt x="663" y="1" on="0"/>
        <pt x="626" y="2" on="0"/>
        <pt x="599" y="3" on="0"/>
        <pt x="572" y="3" on="0"/>
        <pt x="551" y="3" on="1"/>
        <pt x="527" y="3" on="0"/>
        <pt x="496" y="3" on="0"/>
        <pt x="469" y="2" on="0"/>
        <pt x="439" y="1" on="0"/>
        <pt x="416" y="0" on="1"/>
        <pt x="416" y="45" on="1"/>
        <pt x="440" y="45" on="0"/>
        <pt x="469" y="48" on="0"/>
        <pt x="484" y="59" on="0"/>
        <pt x="489" y="80" on="0"/>
        <pt x="489" y="97" on="1"/>
        <pt x="489" y="455" on="1"/>
        <pt x="240" y="455" on="1"/>
        <pt x="240" y="97" on="1"/>
        <pt x="240" y="80" on="0"/>
        <pt x="245" y="59" on="0"/>
        <pt x="260" y="48" on="0"/>
        <pt x="289" y="45" on="0"/>
        <pt x="313" y="45" on="1"/>
        <pt x="313" y="0" on="1"/>
        <pt x="290" y="1" on="0"/>
        <pt x="261" y="2" on="0"/>
        <pt x="235" y="3" on="0"/>
        <pt x="206" y="3" on="0"/>
        <pt x="182" y="3" on="1"/>
        <pt x="160" y="3" on="0"/>
        <pt x="131" y="3" on="0"/>
        <pt x="105" y="2" on="0"/>
        <pt x="75" y="1" on="0"/>
        <pt x="52" y="0" on="1"/>
        <pt x="52" y="45" on="1"/>
        <pt x="76" y="45" on="0"/>
        <pt x="105" y="48" on="0"/>
        <pt x="120" y="59" on="0"/>
        <pt x="125" y="80" on="0"/>
        <pt x="125" y="97" on="1"/>
        <pt x="125" y="455" on="1"/>
        <pt x="35" y="455" on="1"/>
        <pt x="35" y="500" on="1"/>
        <pt x="125" y="500" on="1"/>
        <pt x="125" y="626" on="1"/>
        <pt x="125" y="673" on="0"/>
        <pt x="176" y="747" on="0"/>
        <pt x="259" y="797" on="0"/>
        <pt x="364" y="823" on="0"/>
        <pt x="419" y="823" on="1"/>
        <pt x="462" y="823" on="0"/>
        <pt x="537" y="808" on="0"/>
        <pt x="565" y="788" on="1"/>
        <pt x="570" y="784" on="0"/>
        <pt x="571" y="784" on="1"/>
        <pt x="573" y="784" on="0"/>
        <pt x="576" y="786" on="0"/>
        <pt x="580" y="788" on="1"/>
        <pt x="606" y="805" on="0"/>
        <pt x="668" y="823" on="0"/>
        <pt x="701" y="823" on="1"/>
        <pt x="756" y="823" on="0"/>
        <pt x="829" y="774" on="0"/>
        <pt x="829" y="732" on="1"/>
        <pt x="829" y="706" on="0"/>
        <pt x="796" y="673" on="0"/>
        <pt x="770" y="673" on="1"/>
        <pt x="745" y="673" on="0"/>
        <pt x="711" y="706" on="0"/>
        <pt x="711" y="732" on="1"/>
        <pt x="711" y="752" on="0"/>
        <pt x="721" y="768" on="0"/>
        <pt x="726" y="773" on="1"/>
        <pt x="716" y="778" on="0"/>
        <pt x="702" y="778" on="1"/>
        <pt x="685" y="778" on="0"/>
        <pt x="649" y="759" on="0"/>
        <pt x="620" y="721" on="0"/>
        <pt x="601" y="665" on="0"/>
        <pt x="601" y="628" on="1"/>
        <pt x="601" y="500" on="1"/>
        <pt x="741" y="500" on="1"/>
        <pt x="741" y="455" on="1"/>
        <pt x="604" y="455" on="1"/>
      </contour>
      <contour>
        <pt x="489" y="500" on="1"/>
        <pt x="489" y="628" on="1"/>
        <pt x="489" y="633" on="0"/>
        <pt x="490" y="662" on="0"/>
        <pt x="495" y="679" on="1"/>
        <pt x="483" y="694" on="0"/>
        <pt x="483" y="716" on="1"/>
        <pt x="483" y="736" on="0"/>
        <pt x="494" y="753" on="0"/>
        <pt x="500" y="759" on="1"/>
        <pt x="488" y="766" on="0"/>
        <pt x="462" y="774" on="0"/>
        <pt x="439" y="777" on="0"/>
        <pt x="422" y="778" on="0"/>
        <pt x="419" y="778" on="1"/>
        <pt x="388" y="778" on="0"/>
        <pt x="323" y="759" on="0"/>
        <pt x="271" y="721" on="0"/>
        <pt x="237" y="663" on="0"/>
        <pt x="237" y="624" on="1"/>
        <pt x="237" y="500" on="1"/>
      </contour>
    </TTGlyph>
    <TTGlyph name="f_f_i" xMin="35" yMin="0" xMax="1041" yMax="823">
      <contour>
        <pt x="968" y="510" on="1"/>
        <pt x="968" y="97" on="1"/>
        <pt x="968" y="80" on="0"/>
        <pt x="973" y="59" on="0"/>
        <pt x="988" y="48" on="0"/>
        <pt x="1017" y="45" on="0"/>
        <pt x="1041" y="45" on="1"/>
        <pt x="1041" y="0" on="1"/>
        <pt x="1018" y="1" on="0"/>
        <pt x="989" y="2" on="0"/>
        <pt x="963" y="3" on="0"/>
        <pt x="934" y="3" on="0"/>
        <pt x="910" y="3" on="1"/>
        <pt x="888" y="3" on="0"/>
        <pt x="859" y="3" on="0"/>
        <pt x="833" y="2" on="0"/>
        <pt x="803" y="1" on="0"/>
        <pt x="780" y="0" on="1"/>
        <pt x="780" y="45" on="1"/>
        <pt x="804" y="45" on="0"/>
        <pt x="833" y="48" on="0"/>
        <pt x="848" y="59" on="0"/>
        <pt x="853" y="80" on="0"/>
        <pt x="853" y="97" on="1"/>
        <pt x="853" y="388" on="1"/>
        <pt x="853" y="409" on="0"/>
        <pt x="848" y="435" on="0"/>
        <pt x="833" y="450" on="0"/>
        <pt x="807" y="455" on="0"/>
        <pt x="786" y="455" on="1"/>
        <pt x="604" y="455" on="1"/>
        <pt x="604" y="97" on="1"/>
        <pt x="604" y="80" on="0"/>
        <pt x="609" y="59" on="0"/>
        <pt x="624" y="48" on="0"/>
        <pt x="653" y="45" on="0"/>
        <pt x="677" y="45" on="1"/>
        <pt x="677" y="0" on="1"/>
        <pt x="654" y="1" on="0"/>
        <pt x="625" y="2" on="0"/>
        <pt x="599" y="3" on="0"/>
        <pt x="570" y="3" on="0"/>
        <pt x="546" y="3" on="1"/>
        <pt x="524" y="3" on="0"/>
        <pt x="495" y="3" on="0"/>
        <pt x="469" y="2" on="0"/>
        <pt x="439" y="1" on="0"/>
        <pt x="416" y="0" on="1"/>
        <pt x="416" y="45" on="1"/>
        <pt x="440" y="45" on="0"/>
        <pt x="469" y="48" on="0"/>
        <pt x="484" y="59" on="0"/>
        <pt x="489" y="80" on="0"/>
        <pt x="489" y="97" on="1"/>
        <pt x="489" y="455" on="1"/>
        <pt x="240" y="455" on="1"/>
        <pt x="240" y="97" on="1"/>
        <pt x="240" y="80" on="0"/>
        <pt x="245" y="59" on="0"/>
        <pt x="260" y="48" on="0"/>
        <pt x="289" y="45" on="0"/>
        <pt x="313" y="45" on="1"/>
        <pt x="313" y="0" on="1"/>
        <pt x="290" y="1" on="0"/>
        <pt x="261" y="2" on="0"/>
        <pt x="235" y="3" on="0"/>
        <pt x="206" y="3" on="0"/>
        <pt x="182" y="3" on="1"/>
        <pt x="160" y="3" on="0"/>
        <pt x="131" y="3" on="0"/>
        <pt x="105" y="2" on="0"/>
        <pt x="75" y="1" on="0"/>
        <pt x="52" y="0" on="1"/>
        <pt x="52" y="45" on="1"/>
        <pt x="76" y="45" on="0"/>
        <pt x="105" y="48" on="0"/>
        <pt x="120" y="59" on="0"/>
        <pt x="125" y="80" on="0"/>
        <pt x="125" y="97" on="1"/>
        <pt x="125" y="455" on="1"/>
        <pt x="35" y="455" on="1"/>
        <pt x="35" y="500" on="1"/>
        <pt x="125" y="500" on="1"/>
        <pt x="125" y="626" on="1"/>
        <pt x="125" y="674" on="0"/>
        <pt x="177" y="748" on="0"/>
        <pt x="260" y="797" on="0"/>
        <pt x="364" y="823" on="0"/>
        <pt x="417" y="823" on="1"/>
        <pt x="475" y="823" on="0"/>
        <pt x="554" y="791" on="0"/>
        <pt x="575" y="768" on="1"/>
        <pt x="620" y="794" on="0"/>
        <pt x="721" y="823" on="0"/>
        <pt x="783" y="823" on="1"/>
        <pt x="869" y="823" on="0"/>
        <pt x="968" y="754" on="0"/>
        <pt x="968" y="701" on="1"/>
        <pt x="968" y="683" on="0"/>
        <pt x="955" y="659" on="0"/>
        <pt x="936" y="645" on="0"/>
        <pt x="916" y="640" on="0"/>
        <pt x="909" y="640" on="1"/>
        <pt x="889" y="640" on="0"/>
        <pt x="850" y="669" on="0"/>
        <pt x="850" y="699" on="1"/>
        <pt x="850" y="718" on="0"/>
        <pt x="866" y="742" on="0"/>
        <pt x="873" y="747" on="1"/>
        <pt x="851" y="768" on="0"/>
        <pt x="799" y="778" on="0"/>
        <pt x="784" y="778" on="1"/>
        <pt x="754" y="778" on="0"/>
        <pt x="690" y="760" on="0"/>
        <pt x="636" y="722" on="0"/>
        <pt x="601" y="664" on="0"/>
        <pt x="601" y="624" on="1"/>
        <pt x="601" y="500" on="1"/>
        <pt x="789" y="500" on="1"/>
      </contour>
      <contour>
        <pt x="237" y="500" on="1"/>
        <pt x="489" y="500" on="1"/>
        <pt x="489" y="626" on="1"/>
        <pt x="489" y="628" on="0"/>
        <pt x="490" y="655" on="0"/>
        <pt x="493" y="666" on="1"/>
        <pt x="486" y="674" on="0"/>
        <pt x="483" y="691" on="0"/>
        <pt x="483" y="699" on="1"/>
        <pt x="483" y="723" on="0"/>
        <pt x="504" y="746" on="0"/>
        <pt x="506" y="748" on="1"/>
        <pt x="491" y="761" on="0"/>
        <pt x="447" y="778" on="0"/>
        <pt x="418" y="778" on="1"/>
        <pt x="388" y="778" on="0"/>
        <pt x="324" y="760" on="0"/>
        <pt x="271" y="722" on="0"/>
        <pt x="237" y="664" on="0"/>
        <pt x="237" y="624" on="1"/>
      </contour>
    </TTGlyph>
    <TTGlyph name="f_f_l" xMin="35" yMin="0" xMax="1041" yMax="823">
      <contour>
        <pt x="968" y="97" on="1"/>
        <pt x="968" y="80" on="0"/>
        <pt x="973" y="59" on="0"/>
        <pt x="988" y="48" on="0"/>
        <pt x="1017" y="45" on="0"/>
        <pt x="1041" y="45" on="1"/>
        <pt x="1041" y="0" on="1"/>
        <pt x="1018" y="1" on="0"/>
        <pt x="989" y="2" on="0"/>
        <pt x="963" y="3" on="0"/>
        <pt x="934" y="3" on="0"/>
        <pt x="910" y="3" on="1"/>
        <pt x="888" y="3" on="0"/>
        <pt x="859" y="3" on="0"/>
        <pt x="833" y="2" on="0"/>
        <pt x="803" y="1" on="0"/>
        <pt x="780" y="0" on="1"/>
        <pt x="780" y="45" on="1"/>
        <pt x="804" y="45" on="0"/>
        <pt x="833" y="48" on="0"/>
        <pt x="848" y="59" on="0"/>
        <pt x="853" y="80" on="0"/>
        <pt x="853" y="97" on="1"/>
        <pt x="853" y="455" on="1"/>
        <pt x="604" y="455" on="1"/>
        <pt x="604" y="97" on="1"/>
        <pt x="604" y="80" on="0"/>
        <pt x="609" y="59" on="0"/>
        <pt x="624" y="48" on="0"/>
        <pt x="653" y="45" on="0"/>
        <pt x="677" y="45" on="1"/>
        <pt x="677" y="0" on="1"/>
        <pt x="654" y="1" on="0"/>
        <pt x="625" y="2" on="0"/>
        <pt x="599" y="3" on="0"/>
        <pt x="570" y="3" on="0"/>
        <pt x="546" y="3" on="1"/>
        <pt x="524" y="3" on="0"/>
        <pt x="495" y="3" on="0"/>
        <pt x="469" y="2" on="0"/>
        <pt x="439" y="1" on="0"/>
        <pt x="416" y="0" on="1"/>
        <pt x="416" y="45" on="1"/>
        <pt x="440" y="45" on="0"/>
        <pt x="469" y="48" on="0"/>
        <pt x="484" y="59" on="0"/>
        <pt x="489" y="80" on="0"/>
        <pt x="489" y="97" on="1"/>
        <pt x="489" y="455" on="1"/>
        <pt x="240" y="455" on="1"/>
        <pt x="240" y="97" on="1"/>
        <pt x="240" y="80" on="0"/>
        <pt x="245" y="59" on="0"/>
        <pt x="260" y="48" on="0"/>
        <pt x="289" y="45" on="0"/>
        <pt x="313" y="45" on="1"/>
        <pt x="313" y="0" on="1"/>
        <pt x="290" y="1" on="0"/>
        <pt x="261" y="2" on="0"/>
        <pt x="235" y="3" on="0"/>
        <pt x="206" y="3" on="0"/>
        <pt x="182" y="3" on="1"/>
        <pt x="160" y="3" on="0"/>
        <pt x="131" y="3" on="0"/>
        <pt x="105" y="2" on="0"/>
        <pt x="75" y="1" on="0"/>
        <pt x="52" y="0" on="1"/>
        <pt x="52" y="45" on="1"/>
        <pt x="76" y="45" on="0"/>
        <pt x="105" y="48" on="0"/>
        <pt x="120" y="59" on="0"/>
        <pt x="125" y="80" on="0"/>
        <pt x="125" y="97" on="1"/>
        <pt x="125" y="455" on="1"/>
        <pt x="35" y="455" on="1"/>
        <pt x="35" y="500" on="1"/>
        <pt x="125" y="500" on="1"/>
        <pt x="125" y="626" on="1"/>
        <pt x="125" y="673" on="0"/>
        <pt x="175" y="746" on="0"/>
        <pt x="258" y="797" on="0"/>
        <pt x="364" y="823" on="0"/>
        <pt x="419" y="823" on="1"/>
        <pt x="466" y="823" on="0"/>
        <pt x="555" y="802" on="0"/>
        <pt x="581" y="772" on="1"/>
        <pt x="614" y="791" on="0"/>
        <pt x="677" y="812" on="0"/>
        <pt x="733" y="821" on="0"/>
        <pt x="777" y="823" on="0"/>
        <pt x="790" y="823" on="1"/>
        <pt x="801" y="823" on="0"/>
        <pt x="833" y="822" on="0"/>
        <pt x="869" y="819" on="0"/>
        <pt x="904" y="811" on="0"/>
        <pt x="919" y="803" on="1"/>
        <pt x="934" y="805" on="0"/>
        <pt x="951" y="807" on="0"/>
        <pt x="968" y="809" on="1"/>
      </contour>
      <contour>
        <pt x="489" y="500" on="1"/>
        <pt x="489" y="626" on="1"/>
        <pt x="489" y="636" on="0"/>
        <pt x="491" y="661" on="0"/>
        <pt x="497" y="676" on="1"/>
        <pt x="486" y="687" on="0"/>
        <pt x="483" y="711" on="0"/>
        <pt x="483" y="716" on="1"/>
        <pt x="483" y="735" on="0"/>
        <pt x="497" y="756" on="0"/>
        <pt x="500" y="759" on="1"/>
        <pt x="478" y="772" on="0"/>
        <pt x="430" y="778" on="0"/>
        <pt x="419" y="778" on="1"/>
        <pt x="388" y="778" on="0"/>
        <pt x="323" y="759" on="0"/>
        <pt x="271" y="721" on="0"/>
        <pt x="237" y="663" on="0"/>
        <pt x="237" y="624" on="1"/>
        <pt x="237" y="500" on="1"/>
      </contour>
      <contour>
        <pt x="601" y="500" on="1"/>
        <pt x="853" y="500" on="1"/>
        <pt x="853" y="686" on="1"/>
        <pt x="853" y="698" on="0"/>
        <pt x="853" y="705" on="0"/>
        <pt x="851" y="708" on="1"/>
        <pt x="848" y="716" on="0"/>
        <pt x="847" y="725" on="0"/>
        <pt x="847" y="732" on="1"/>
        <pt x="847" y="739" on="0"/>
        <pt x="848" y="747" on="0"/>
        <pt x="852" y="759" on="1"/>
        <pt x="853" y="761" on="0"/>
        <pt x="852" y="766" on="0"/>
        <pt x="853" y="768" on="1"/>
        <pt x="853" y="770" on="1"/>
        <pt x="836" y="775" on="0"/>
        <pt x="802" y="778" on="0"/>
        <pt x="785" y="778" on="1"/>
        <pt x="751" y="778" on="0"/>
        <pt x="685" y="759" on="0"/>
        <pt x="633" y="720" on="0"/>
        <pt x="601" y="662" on="0"/>
        <pt x="601" y="624" on="1"/>
      </contour>
    </TTGlyph>
    <TTGlyph name="fi" xMin="35" yMin="0" xMax="676" yMax="823">
      <contour>
        <pt x="603" y="510" on="1"/>
        <pt x="603" y="97" on="1"/>
        <pt x="603" y="80" on="0"/>
        <pt x="608" y="59" on="0"/>
        <pt x="623" y="48" on="0"/>
        <pt x="652" y="45" on="0"/>
        <pt x="676" y="45" on="1"/>
        <pt x="676" y="0" on="1"/>
        <pt x="653" y="1" on="0"/>
        <pt x="624" y="2" on="0"/>
        <pt x="598" y="3" on="0"/>
        <pt x="569" y="3" on="0"/>
        <pt x="545" y="3" on="1"/>
        <pt x="523" y="3" on="0"/>
        <pt x="494" y="3" on="0"/>
        <pt x="468" y="2" on="0"/>
        <pt x="438" y="1" on="0"/>
        <pt x="415" y="0" on="1"/>
        <pt x="415" y="45" on="1"/>
        <pt x="439" y="45" on="0"/>
        <pt x="468" y="48" on="0"/>
        <pt x="483" y="59" on="0"/>
        <pt x="488" y="80" on="0"/>
        <pt x="488" y="97" on="1"/>
        <pt x="488" y="388" on="1"/>
        <pt x="488" y="409" on="0"/>
        <pt x="483" y="435" on="0"/>
        <pt x="468" y="450" on="0"/>
        <pt x="442" y="455" on="0"/>
        <pt x="421" y="455" on="1"/>
        <pt x="240" y="455" on="1"/>
        <pt x="240" y="97" on="1"/>
        <pt x="240" y="80" on="0"/>
        <pt x="245" y="59" on="0"/>
        <pt x="260" y="48" on="0"/>
        <pt x="289" y="45" on="0"/>
        <pt x="313" y="45" on="1"/>
        <pt x="313" y="0" on="1"/>
        <pt x="290" y="1" on="0"/>
        <pt x="261" y="2" on="0"/>
        <pt x="235" y="3" on="0"/>
        <pt x="206" y="3" on="0"/>
        <pt x="182" y="3" on="1"/>
        <pt x="160" y="3" on="0"/>
        <pt x="131" y="3" on="0"/>
        <pt x="105" y="2" on="0"/>
        <pt x="75" y="1" on="0"/>
        <pt x="52" y="0" on="1"/>
        <pt x="52" y="45" on="1"/>
        <pt x="76" y="45" on="0"/>
        <pt x="105" y="48" on="0"/>
        <pt x="120" y="59" on="0"/>
        <pt x="125" y="80" on="0"/>
        <pt x="125" y="97" on="1"/>
        <pt x="125" y="455" on="1"/>
        <pt x="35" y="455" on="1"/>
        <pt x="35" y="500" on="1"/>
        <pt x="125" y="500" on="1"/>
        <pt x="125" y="626" on="1"/>
        <pt x="125" y="674" on="0"/>
        <pt x="177" y="748" on="0"/>
        <pt x="261" y="797" on="0"/>
        <pt x="366" y="823" on="0"/>
        <pt x="418" y="823" on="1"/>
        <pt x="505" y="823" on="0"/>
        <pt x="603" y="754" on="0"/>
        <pt x="603" y="701" on="1"/>
        <pt x="603" y="683" on="0"/>
        <pt x="590" y="659" on="0"/>
        <pt x="571" y="645" on="0"/>
        <pt x="551" y="640" on="0"/>
        <pt x="544" y="640" on="1"/>
        <pt x="524" y="640" on="0"/>
        <pt x="485" y="669" on="0"/>
        <pt x="485" y="699" on="1"/>
        <pt x="485" y="718" on="0"/>
        <pt x="501" y="742" on="0"/>
        <pt x="508" y="747" on="1"/>
        <pt x="485" y="768" on="0"/>
        <pt x="435" y="778" on="0"/>
        <pt x="419" y="778" on="1"/>
        <pt x="390" y="778" on="0"/>
        <pt x="326" y="760" on="0"/>
        <pt x="272" y="722" on="0"/>
        <pt x="237" y="664" on="0"/>
        <pt x="237" y="624" on="1"/>
        <pt x="237" y="500" on="1"/>
        <pt x="424" y="500" on="1"/>
      </contour>
    </TTGlyph>
    <TTGlyph name="five" xMin="66" yMin="-28" xMax="589" yMax="837">
      <contour>
        <pt x="190" y="481" on="1"/>
        <pt x="256" y="528" on="0"/>
        <pt x="340" y="528" on="1"/>
        <pt x="393" y="528" on="0"/>
        <pt x="484" y="484" on="0"/>
        <pt x="551" y="408" on="0"/>
        <pt x="589" y="307" on="0"/>
        <pt x="589" y="251" on="1"/>
        <pt x="589" y="191" on="0"/>
        <pt x="543" y="89" on="0"/>
        <pt x="464" y="14" on="0"/>
        <pt x="360" y="-28" on="0"/>
        <pt x="303" y="-28" on="1"/>
        <pt x="249" y="-28" on="0"/>
        <pt x="162" y="12" on="0"/>
        <pt x="100" y="76" on="0"/>
        <pt x="66" y="157" on="0"/>
        <pt x="66" y="199" on="1"/>
        <pt x="66" y="218" on="0"/>
        <pt x="78" y="243" on="0"/>
        <pt x="96" y="257" on="0"/>
        <pt x="117" y="262" on="0"/>
        <pt x="125" y="262" on="1"/>
        <pt x="150" y="262" on="0"/>
        <pt x="184" y="229" on="0"/>
        <pt x="184" y="203" on="1"/>
        <pt x="184" y="184" on="0"/>
        <pt x="164" y="155" on="0"/>
        <pt x="146" y="148" on="1"/>
        <pt x="163" y="89" on="0"/>
        <pt x="246" y="17" on="0"/>
        <pt x="301" y="17" on="1"/>
        <pt x="328" y="17" on="0"/>
        <pt x="387" y="42" on="0"/>
        <pt x="438" y="98" on="0"/>
        <pt x="471" y="188" on="0"/>
        <pt x="471" y="252" on="1"/>
        <pt x="471" y="309" on="0"/>
        <pt x="449" y="396" on="0"/>
        <pt x="412" y="454" on="0"/>
        <pt x="364" y="483" on="0"/>
        <pt x="338" y="483" on="1"/>
        <pt x="299" y="483" on="0"/>
        <pt x="242" y="462" on="0"/>
        <pt x="203" y="434" on="0"/>
        <pt x="180" y="406" on="0"/>
        <pt x="175" y="399" on="1"/>
        <pt x="168" y="390" on="0"/>
        <pt x="160" y="384" on="0"/>
        <pt x="146" y="384" on="1"/>
        <pt x="124" y="384" on="0"/>
        <pt x="117" y="404" on="0"/>
        <pt x="117" y="418" on="1"/>
        <pt x="117" y="803" on="1"/>
        <pt x="117" y="813" on="0"/>
        <pt x="123" y="837" on="0"/>
        <pt x="139" y="837" on="1"/>
        <pt x="142" y="837" on="0"/>
        <pt x="146" y="836" on="0"/>
        <pt x="154" y="832" on="1"/>
        <pt x="196" y="815" on="0"/>
        <pt x="281" y="797" on="0"/>
        <pt x="327" y="797" on="1"/>
        <pt x="414" y="797" on="0"/>
        <pt x="499" y="832" on="1"/>
        <pt x="507" y="836" on="0"/>
        <pt x="512" y="837" on="0"/>
        <pt x="515" y="837" on="1"/>
        <pt x="525" y="837" on="0"/>
        <pt x="538" y="824" on="0"/>
        <pt x="538" y="814" on="1"/>
        <pt x="538" y="807" on="0"/>
        <pt x="504" y="765" on="0"/>
        <pt x="439" y="720" on="0"/>
        <pt x="345" y="684" on="0"/>
        <pt x="286" y="684" on="1"/>
        <pt x="248" y="684" on="0"/>
        <pt x="191" y="695" on="0"/>
        <pt x="190" y="695" on="1"/>
      </contour>
    </TTGlyph>
    <TTGlyph name="fl" xMin="35" yMin="0" xMax="676" yMax="823">
      <contour>
        <pt x="603" y="97" on="1"/>
        <pt x="603" y="80" on="0"/>
        <pt x="608" y="59" on="0"/>
        <pt x="623" y="48" on="0"/>
        <pt x="652" y="45" on="0"/>
        <pt x="676" y="45" on="1"/>
        <pt x="676" y="0" on="1"/>
        <pt x="653" y="1" on="0"/>
        <pt x="624" y="2" on="0"/>
        <pt x="598" y="3" on="0"/>
        <pt x="569" y="3" on="0"/>
        <pt x="545" y="3" on="1"/>
        <pt x="523" y="3" on="0"/>
        <pt x="494" y="3" on="0"/>
        <pt x="468" y="2" on="0"/>
        <pt x="438" y="1" on="0"/>
        <pt x="415" y="0" on="1"/>
        <pt x="415" y="45" on="1"/>
        <pt x="439" y="45" on="0"/>
        <pt x="468" y="48" on="0"/>
        <pt x="483" y="59" on="0"/>
        <pt x="488" y="80" on="0"/>
        <pt x="488" y="97" on="1"/>
        <pt x="488" y="455" on="1"/>
        <pt x="240" y="455" on="1"/>
        <pt x="240" y="97" on="1"/>
        <pt x="240" y="80" on="0"/>
        <pt x="245" y="59" on="0"/>
        <pt x="260" y="48" on="0"/>
        <pt x="289" y="45" on="0"/>
        <pt x="313" y="45" on="1"/>
        <pt x="313" y="0" on="1"/>
        <pt x="290" y="1" on="0"/>
        <pt x="261" y="2" on="0"/>
        <pt x="235" y="3" on="0"/>
        <pt x="206" y="3" on="0"/>
        <pt x="182" y="3" on="1"/>
        <pt x="160" y="3" on="0"/>
        <pt x="131" y="3" on="0"/>
        <pt x="105" y="2" on="0"/>
        <pt x="75" y="1" on="0"/>
        <pt x="52" y="0" on="1"/>
        <pt x="52" y="45" on="1"/>
        <pt x="76" y="45" on="0"/>
        <pt x="105" y="48" on="0"/>
        <pt x="120" y="59" on="0"/>
        <pt x="125" y="80" on="0"/>
        <pt x="125" y="97" on="1"/>
        <pt x="125" y="455" on="1"/>
        <pt x="35" y="455" on="1"/>
        <pt x="35" y="500" on="1"/>
        <pt x="125" y="500" on="1"/>
        <pt x="125" y="626" on="1"/>
        <pt x="125" y="670" on="0"/>
        <pt x="171" y="742" on="0"/>
        <pt x="252" y="794" on="0"/>
        <pt x="361" y="823" on="0"/>
        <pt x="425" y="823" on="1"/>
        <pt x="438" y="823" on="0"/>
        <pt x="471" y="822" on="0"/>
        <pt x="506" y="818" on="0"/>
        <pt x="540" y="810" on="0"/>
        <pt x="554" y="803" on="1"/>
        <pt x="569" y="805" on="0"/>
        <pt x="586" y="807" on="0"/>
        <pt x="603" y="809" on="1"/>
      </contour>
      <contour>
        <pt x="488" y="500" on="1"/>
        <pt x="488" y="686" on="1"/>
        <pt x="488" y="698" on="0"/>
        <pt x="488" y="705" on="0"/>
        <pt x="486" y="708" on="1"/>
        <pt x="483" y="716" on="0"/>
        <pt x="482" y="725" on="0"/>
        <pt x="482" y="732" on="1"/>
        <pt x="482" y="739" on="0"/>
        <pt x="483" y="747" on="0"/>
        <pt x="487" y="759" on="1"/>
        <pt x="488" y="761" on="0"/>
        <pt x="487" y="766" on="0"/>
        <pt x="488" y="768" on="1"/>
        <pt x="488" y="770" on="1"/>
        <pt x="471" y="775" on="0"/>
        <pt x="438" y="778" on="0"/>
        <pt x="421" y="778" on="1"/>
        <pt x="388" y="778" on="0"/>
        <pt x="322" y="759" on="0"/>
        <pt x="269" y="720" on="0"/>
        <pt x="237" y="662" on="0"/>
        <pt x="237" y="624" on="1"/>
        <pt x="237" y="500" on="1"/>
      </contour>
    </TTGlyph>
    <TTGlyph name="four" xMin="36" yMin="0" xMax="619" yMax="851">
      <contour>
        <pt x="495" y="203" on="1"/>
        <pt x="495" y="104" on="1"/>
        <pt x="495" y="87" on="0"/>
        <pt x="500" y="64" on="0"/>
        <pt x="520" y="51" on="0"/>
        <pt x="558" y="45" on="0"/>
        <pt x="592" y="45" on="1"/>
        <pt x="619" y="45" on="1"/>
        <pt x="619" y="0" on="1"/>
        <pt x="605" y="1" on="0"/>
        <pt x="556" y="2" on="0"/>
        <pt x="502" y="3" on="0"/>
        <pt x="452" y="3" on="0"/>
        <pt x="435" y="3" on="1"/>
        <pt x="419" y="3" on="0"/>
        <pt x="367" y="3" on="0"/>
        <pt x="312" y="2" on="0"/>
        <pt x="263" y="1" on="0"/>
        <pt x="249" y="0" on="1"/>
        <pt x="249" y="45" on="1"/>
        <pt x="277" y="45" on="1"/>
        <pt x="312" y="45" on="0"/>
        <pt x="352" y="51" on="0"/>
        <pt x="372" y="64" on="0"/>
        <pt x="377" y="87" on="0"/>
        <pt x="377" y="104" on="1"/>
        <pt x="377" y="203" on="1"/>
        <pt x="36" y="203" on="1"/>
        <pt x="36" y="248" on="1"/>
        <pt x="416" y="832" on="1"/>
        <pt x="425" y="846" on="0"/>
        <pt x="437" y="851" on="0"/>
        <pt x="457" y="851" on="1"/>
        <pt x="480" y="851" on="0"/>
        <pt x="495" y="840" on="0"/>
        <pt x="495" y="815" on="1"/>
        <pt x="495" y="248" on="1"/>
        <pt x="619" y="248" on="1"/>
        <pt x="619" y="203" on="1"/>
      </contour>
      <contour>
        <pt x="103" y="248" on="1"/>
        <pt x="384" y="248" on="1"/>
        <pt x="384" y="680" on="1"/>
      </contour>
    </TTGlyph>
    <TTGlyph name="g" xMin="36" yMin="-206" xMax="637" yMax="528">
      <contour>
        <pt x="161" y="203" on="1"/>
        <pt x="156" y="197" on="0"/>
        <pt x="151" y="183" on="0"/>
        <pt x="151" y="166" on="1"/>
        <pt x="151" y="140" on="0"/>
        <pt x="182" y="103" on="0"/>
        <pt x="205" y="98" on="1"/>
        <pt x="208" y="98" on="0"/>
        <pt x="226" y="97" on="0"/>
        <pt x="250" y="97" on="0"/>
        <pt x="275" y="97" on="0"/>
        <pt x="285" y="97" on="1"/>
        <pt x="327" y="97" on="0"/>
        <pt x="395" y="96" on="0"/>
        <pt x="453" y="90" on="0"/>
        <pt x="504" y="78" on="0"/>
        <pt x="529" y="67" on="1"/>
        <pt x="556" y="55" on="0"/>
        <pt x="590" y="21" on="0"/>
        <pt x="611" y="-15" on="0"/>
        <pt x="619" y="-51" on="0"/>
        <pt x="619" y="-66" on="1"/>
        <pt x="619" y="-102" on="0"/>
        <pt x="567" y="-154" on="0"/>
        <pt x="483" y="-189" on="0"/>
        <pt x="379" y="-206" on="0"/>
        <pt x="327" y="-206" on="1"/>
        <pt x="272" y="-206" on="0"/>
        <pt x="168" y="-188" on="0"/>
        <pt x="86" y="-152" on="0"/>
        <pt x="36" y="-101" on="0"/>
        <pt x="36" y="-68" on="1"/>
        <pt x="36" y="-49" on="0"/>
        <pt x="53" y="-18" on="0"/>
        <pt x="80" y="6" on="0"/>
        <pt x="115" y="23" on="0"/>
        <pt x="133" y="29" on="1"/>
        <pt x="131" y="31" on="0"/>
        <pt x="117" y="46" on="0"/>
        <pt x="101" y="73" on="0"/>
        <pt x="88" y="111" on="0"/>
        <pt x="88" y="135" on="1"/>
        <pt x="88" y="150" on="0"/>
        <pt x="100" y="200" on="0"/>
        <pt x="122" y="229" on="1"/>
        <pt x="114" y="236" on="0"/>
        <pt x="94" y="257" on="0"/>
        <pt x="77" y="286" on="0"/>
        <pt x="65" y="323" on="0"/>
        <pt x="65" y="344" on="1"/>
        <pt x="65" y="377" on="0"/>
        <pt x="99" y="439" on="0"/>
        <pt x="159" y="486" on="0"/>
        <pt x="242" y="514" on="0"/>
        <pt x="291" y="514" on="1"/>
        <pt x="320" y="514" on="0"/>
        <pt x="396" y="499" on="0"/>
        <pt x="431" y="477" on="1"/>
        <pt x="466" y="509" on="0"/>
        <pt x="535" y="528" on="0"/>
        <pt x="557" y="528" on="1"/>
        <pt x="594" y="528" on="0"/>
        <pt x="637" y="485" on="0"/>
        <pt x="637" y="457" on="1"/>
        <pt x="637" y="436" on="0"/>
        <pt x="609" y="409" on="0"/>
        <pt x="589" y="409" on="1"/>
        <pt x="570" y="409" on="0"/>
        <pt x="542" y="434" on="0"/>
        <pt x="542" y="457" on="1"/>
        <pt x="542" y="465" on="0"/>
        <pt x="546" y="480" on="0"/>
        <pt x="548" y="482" on="1"/>
        <pt x="539" y="481" on="0"/>
        <pt x="494" y="471" on="0"/>
        <pt x="468" y="450" on="1"/>
        <pt x="474" y="444" on="0"/>
        <pt x="491" y="424" on="0"/>
        <pt x="506" y="397" on="0"/>
        <pt x="517" y="364" on="0"/>
        <pt x="517" y="343" on="1"/>
        <pt x="517" y="310" on="0"/>
        <pt x="484" y="248" on="0"/>
        <pt x="424" y="201" on="0"/>
        <pt x="341" y="173" on="0"/>
        <pt x="291" y="173" on="1"/>
        <pt x="266" y="173" on="0"/>
        <pt x="200" y="184" on="0"/>
      </contour>
      <contour>
        <pt x="291" y="221" on="1"/>
        <pt x="293" y="221" on="0"/>
        <pt x="325" y="225" on="0"/>
        <pt x="362" y="248" on="0"/>
        <pt x="392" y="298" on="0"/>
        <pt x="392" y="344" on="1"/>
        <pt x="392" y="382" on="0"/>
        <pt x="370" y="430" on="0"/>
        <pt x="338" y="457" on="0"/>
        <pt x="303" y="466" on="0"/>
        <pt x="291" y="466" on="1"/>
        <pt x="279" y="466" on="0"/>
        <pt x="244" y="457" on="0"/>
        <pt x="213" y="430" on="0"/>
        <pt x="190" y="383" on="0"/>
        <pt x="190" y="344" on="1"/>
        <pt x="190" y="302" on="0"/>
        <pt x="215" y="253" on="0"/>
        <pt x="249" y="228" on="0"/>
        <pt x="283" y="221" on="0"/>
      </contour>
      <contour>
        <pt x="226" y="-4" on="1"/>
        <pt x="196" y="-4" on="0"/>
        <pt x="158" y="-19" on="0"/>
        <pt x="136" y="-39" on="0"/>
        <pt x="128" y="-60" on="0"/>
        <pt x="128" y="-67" on="1"/>
        <pt x="128" y="-84" on="0"/>
        <pt x="158" y="-117" on="0"/>
        <pt x="211" y="-143" on="0"/>
        <pt x="285" y="-158" on="0"/>
        <pt x="328" y="-158" on="1"/>
        <pt x="372" y="-158" on="0"/>
        <pt x="445" y="-142" on="0"/>
        <pt x="497" y="-116" on="0"/>
        <pt x="527" y="-84" on="0"/>
        <pt x="527" y="-68" on="1"/>
        <pt x="527" y="-53" on="0"/>
        <pt x="506" y="-31" on="0"/>
        <pt x="472" y="-17" on="0"/>
        <pt x="432" y="-9" on="0"/>
        <pt x="394" y="-5" on="0"/>
        <pt x="363" y="-4" on="0"/>
        <pt x="356" y="-4" on="1"/>
      </contour>
    </TTGlyph>
    <TTGlyph name="germandbls" xMin="45" yMin="-14" xMax="612" yMax="823">
      <contour>
        <pt x="441" y="476" on="1"/>
        <pt x="479" y="458" on="0"/>
        <pt x="542" y="402" on="0"/>
        <pt x="587" y="330" on="0"/>
        <pt x="612" y="247" on="0"/>
        <pt x="612" y="202" on="1"/>
        <pt x="612" y="154" on="0"/>
        <pt x="574" y="75" on="0"/>
        <pt x="510" y="18" on="0"/>
        <pt x="428" y="-14" on="0"/>
        <pt x="384" y="-14" on="1"/>
        <pt x="358" y="-14" on="0"/>
        <pt x="316" y="3" on="0"/>
        <pt x="286" y="30" on="0"/>
        <pt x="270" y="64" on="0"/>
        <pt x="270" y="82" on="1"/>
        <pt x="270" y="108" on="0"/>
        <pt x="300" y="132" on="0"/>
        <pt x="319" y="132" on="1"/>
        <pt x="337" y="132" on="0"/>
        <pt x="367" y="107" on="0"/>
        <pt x="367" y="83" on="1"/>
        <pt x="367" y="66" on="0"/>
        <pt x="358" y="53" on="0"/>
        <pt x="353" y="48" on="1"/>
        <pt x="355" y="44" on="0"/>
        <pt x="367" y="31" on="0"/>
        <pt x="383" y="31" on="1"/>
        <pt x="398" y="31" on="0"/>
        <pt x="434" y="48" on="0"/>
        <pt x="465" y="89" on="0"/>
        <pt x="487" y="154" on="0"/>
        <pt x="487" y="202" on="1"/>
        <pt x="487" y="241" on="0"/>
        <pt x="471" y="327" on="0"/>
        <pt x="433" y="401" on="0"/>
        <pt x="371" y="451" on="0"/>
        <pt x="325" y="455" on="1"/>
        <pt x="320" y="456" on="0"/>
        <pt x="306" y="467" on="0"/>
        <pt x="306" y="477" on="1"/>
        <pt x="306" y="493" on="0"/>
        <pt x="327" y="499" on="0"/>
        <pt x="334" y="500" on="1"/>
        <pt x="362" y="502" on="0"/>
        <pt x="405" y="528" on="0"/>
        <pt x="435" y="569" on="0"/>
        <pt x="450" y="621" on="0"/>
        <pt x="450" y="649" on="1"/>
        <pt x="450" y="682" on="0"/>
        <pt x="431" y="731" on="0"/>
        <pt x="401" y="762" on="0"/>
        <pt x="363" y="778" on="0"/>
        <pt x="343" y="778" on="1"/>
        <pt x="330" y="778" on="0"/>
        <pt x="292" y="766" on="0"/>
        <pt x="257" y="736" on="0"/>
        <pt x="233" y="685" on="0"/>
        <pt x="233" y="645" on="1"/>
        <pt x="233" y="0" on="1"/>
        <pt x="216" y="2" on="0"/>
        <pt x="187" y="3" on="0"/>
        <pt x="156" y="3" on="1"/>
        <pt x="137" y="3" on="0"/>
        <pt x="111" y="3" on="0"/>
        <pt x="88" y="2" on="0"/>
        <pt x="63" y="1" on="0"/>
        <pt x="45" y="0" on="1"/>
        <pt x="45" y="45" on="1"/>
        <pt x="69" y="45" on="0"/>
        <pt x="98" y="48" on="0"/>
        <pt x="113" y="59" on="0"/>
        <pt x="118" y="80" on="0"/>
        <pt x="118" y="97" on="1"/>
        <pt x="118" y="455" on="1"/>
        <pt x="45" y="455" on="1"/>
        <pt x="45" y="500" on="1"/>
        <pt x="118" y="500" on="1"/>
        <pt x="118" y="644" on="1"/>
        <pt x="118" y="687" on="0"/>
        <pt x="157" y="753" on="0"/>
        <pt x="221" y="799" on="0"/>
        <pt x="302" y="823" on="0"/>
        <pt x="344" y="823" on="1"/>
        <pt x="393" y="823" on="0"/>
        <pt x="477" y="796" on="0"/>
        <pt x="539" y="748" on="0"/>
        <pt x="575" y="685" on="0"/>
        <pt x="575" y="649" on="1"/>
        <pt x="575" y="619" on="0"/>
        <pt x="553" y="566" on="0"/>
        <pt x="516" y="521" on="0"/>
        <pt x="468" y="487" on="0"/>
      </contour>
    </TTGlyph>
    <TTGlyph name="grave" xMin="140" yMin="576" xMax="393" yMax="815">
      <contour>
        <pt x="168" y="704" on="1"/>
        <pt x="151" y="717" on="0"/>
        <pt x="140" y="742" on="0"/>
        <pt x="140" y="753" on="1"/>
        <pt x="140" y="778" on="0"/>
        <pt x="178" y="815" on="0"/>
        <pt x="201" y="815" on="1"/>
        <pt x="219" y="815" on="0"/>
        <pt x="241" y="797" on="0"/>
        <pt x="246" y="792" on="1"/>
        <pt x="393" y="630" on="1"/>
        <pt x="344" y="576" on="1"/>
      </contour>
    </TTGlyph>
    <TTGlyph name="h" xMin="50" yMin="0" xMax="678" yMax="809">
      <contour>
        <pt x="605" y="128" on="1"/>
        <pt x="605" y="98" on="0"/>
        <pt x="607" y="65" on="0"/>
        <pt x="621" y="48" on="0"/>
        <pt x="651" y="45" on="0"/>
        <pt x="678" y="45" on="1"/>
        <pt x="678" y="0" on="1"/>
        <pt x="653" y="1" on="0"/>
        <pt x="622" y="2" on="0"/>
        <pt x="597" y="3" on="0"/>
        <pt x="569" y="3" on="0"/>
        <pt x="546" y="3" on="1"/>
        <pt x="523" y="3" on="0"/>
        <pt x="495" y="3" on="0"/>
        <pt x="470" y="2" on="0"/>
        <pt x="440" y="1" on="0"/>
        <pt x="414" y="0" on="1"/>
        <pt x="414" y="45" on="1"/>
        <pt x="438" y="45" on="0"/>
        <pt x="467" y="48" on="0"/>
        <pt x="482" y="59" on="0"/>
        <pt x="487" y="80" on="0"/>
        <pt x="487" y="97" on="1"/>
        <pt x="487" y="374" on="1"/>
        <pt x="487" y="429" on="0"/>
        <pt x="455" y="469" on="0"/>
        <pt x="420" y="469" on="1"/>
        <pt x="403" y="469" on="0"/>
        <pt x="343" y="458" on="0"/>
        <pt x="284" y="427" on="0"/>
        <pt x="241" y="370" on="0"/>
        <pt x="241" y="325" on="1"/>
        <pt x="241" y="97" on="1"/>
        <pt x="241" y="80" on="0"/>
        <pt x="246" y="59" on="0"/>
        <pt x="261" y="48" on="0"/>
        <pt x="290" y="45" on="0"/>
        <pt x="314" y="45" on="1"/>
        <pt x="314" y="0" on="1"/>
        <pt x="289" y="1" on="0"/>
        <pt x="258" y="2" on="0"/>
        <pt x="233" y="3" on="0"/>
        <pt x="205" y="3" on="0"/>
        <pt x="182" y="3" on="1"/>
        <pt x="159" y="3" on="0"/>
        <pt x="131" y="3" on="0"/>
        <pt x="106" y="2" on="0"/>
        <pt x="76" y="1" on="0"/>
        <pt x="50" y="0" on="1"/>
        <pt x="50" y="45" on="1"/>
        <pt x="74" y="45" on="0"/>
        <pt x="103" y="48" on="0"/>
        <pt x="118" y="59" on="0"/>
        <pt x="123" y="80" on="0"/>
        <pt x="123" y="97" on="1"/>
        <pt x="123" y="687" on="1"/>
        <pt x="123" y="710" on="0"/>
        <pt x="117" y="737" on="0"/>
        <pt x="101" y="750" on="0"/>
        <pt x="73" y="754" on="0"/>
        <pt x="50" y="754" on="1"/>
        <pt x="50" y="799" on="1"/>
        <pt x="238" y="809" on="1"/>
        <pt x="238" y="441" on="1"/>
        <pt x="264" y="468" on="0"/>
        <pt x="356" y="514" on="0"/>
        <pt x="427" y="514" on="1"/>
        <pt x="462" y="514" on="0"/>
        <pt x="529" y="502" on="0"/>
        <pt x="557" y="481" on="1"/>
        <pt x="574" y="468" on="0"/>
        <pt x="593" y="437" on="0"/>
        <pt x="603" y="407" on="0"/>
        <pt x="605" y="384" on="0"/>
        <pt x="605" y="380" on="1"/>
      </contour>
    </TTGlyph>
    <TTGlyph name="hungarumlaut" xMin="151" yMin="585" xMax="552" yMax="817">
      <contour>
        <pt x="214" y="585" on="1"/>
        <pt x="151" y="621" on="1"/>
        <pt x="216" y="776" on="1"/>
        <pt x="218" y="781" on="0"/>
        <pt x="225" y="795" on="0"/>
        <pt x="237" y="808" on="0"/>
        <pt x="256" y="817" on="0"/>
        <pt x="269" y="817" on="1"/>
        <pt x="295" y="817" on="0"/>
        <pt x="333" y="782" on="0"/>
        <pt x="333" y="758" on="1"/>
        <pt x="333" y="736" on="0"/>
        <pt x="317" y="717" on="1"/>
      </contour>
      <contour>
        <pt x="433" y="585" on="1"/>
        <pt x="370" y="621" on="1"/>
        <pt x="435" y="776" on="1"/>
        <pt x="437" y="781" on="0"/>
        <pt x="444" y="795" on="0"/>
        <pt x="456" y="808" on="0"/>
        <pt x="475" y="817" on="0"/>
        <pt x="488" y="817" on="1"/>
        <pt x="514" y="817" on="0"/>
        <pt x="552" y="782" on="0"/>
        <pt x="552" y="758" on="1"/>
        <pt x="552" y="736" on="0"/>
        <pt x="536" y="717" on="1"/>
      </contour>
    </TTGlyph>
    <TTGlyph name="hyphen" xMin="15" yMin="196" xMax="363" yMax="303">
      <contour>
        <pt x="15" y="196" on="1"/>
        <pt x="15" y="303" on="1"/>
        <pt x="363" y="303" on="1"/>
        <pt x="363" y="196" on="1"/>
      </contour>
    </TTGlyph>
    <TTGlyph name="i" xMin="51" yMin="0" xMax="305" yMax="783">
      <contour>
        <pt x="239" y="715" on="1"/>
        <pt x="239" y="689" on="0"/>
        <pt x="201" y="648" on="0"/>
        <pt x="171" y="648" on="1"/>
        <pt x="145" y="648" on="0"/>
        <pt x="104" y="686" on="0"/>
        <pt x="104" y="716" on="1"/>
        <pt x="104" y="742" on="0"/>
        <pt x="142" y="783" on="0"/>
        <pt x="172" y="783" on="1"/>
        <pt x="198" y="783" on="0"/>
        <pt x="239" y="745" on="0"/>
      </contour>
      <contour>
        <pt x="239" y="510" on="1"/>
        <pt x="239" y="96" on="1"/>
        <pt x="239" y="79" on="0"/>
        <pt x="243" y="59" on="0"/>
        <pt x="257" y="48" on="0"/>
        <pt x="283" y="45" on="0"/>
        <pt x="305" y="45" on="1"/>
        <pt x="305" y="0" on="1"/>
        <pt x="285" y="1" on="0"/>
        <pt x="253" y="2" on="0"/>
        <pt x="225" y="3" on="0"/>
        <pt x="196" y="3" on="0"/>
        <pt x="179" y="3" on="1"/>
        <pt x="158" y="3" on="0"/>
        <pt x="130" y="3" on="0"/>
        <pt x="104" y="2" on="0"/>
        <pt x="74" y="1" on="0"/>
        <pt x="51" y="0" on="1"/>
        <pt x="51" y="45" on="1"/>
        <pt x="75" y="45" on="0"/>
        <pt x="104" y="48" on="0"/>
        <pt x="119" y="59" on="0"/>
        <pt x="124" y="80" on="0"/>
        <pt x="124" y="97" on="1"/>
        <pt x="124" y="388" on="1"/>
        <pt x="124" y="411" on="0"/>
        <pt x="118" y="438" on="0"/>
        <pt x="103" y="451" on="0"/>
        <pt x="76" y="455" on="0"/>
        <pt x="55" y="455" on="1"/>
        <pt x="55" y="500" on="1"/>
      </contour>
    </TTGlyph>
    <TTGlyph name="j" xMin="-57" yMin="-205" xMax="283" yMax="783">
      <contour>
        <pt x="283" y="715" on="1"/>
        <pt x="283" y="689" on="0"/>
        <pt x="245" y="648" on="0"/>
        <pt x="215" y="648" on="1"/>
        <pt x="189" y="648" on="0"/>
        <pt x="148" y="686" on="0"/>
        <pt x="148" y="716" on="1"/>
        <pt x="148" y="742" on="0"/>
        <pt x="186" y="783" on="0"/>
        <pt x="216" y="783" on="1"/>
        <pt x="242" y="783" on="0"/>
        <pt x="283" y="745" on="0"/>
      </contour>
      <contour>
        <pt x="283" y="510" on="1"/>
        <pt x="283" y="-36" on="1"/>
        <pt x="283" y="-77" on="0"/>
        <pt x="250" y="-140" on="0"/>
        <pt x="197" y="-183" on="0"/>
        <pt x="129" y="-205" on="0"/>
        <pt x="93" y="-205" on="1"/>
        <pt x="62" y="-205" on="0"/>
        <pt x="8" y="-193" on="0"/>
        <pt x="-33" y="-170" on="0"/>
        <pt x="-57" y="-134" on="0"/>
        <pt x="-57" y="-110" on="1"/>
        <pt x="-57" y="-78" on="0"/>
        <pt x="-18" y="-50" on="0"/>
        <pt x="2" y="-50" on="1"/>
        <pt x="25" y="-50" on="0"/>
        <pt x="61" y="-81" on="0"/>
        <pt x="61" y="-109" on="1"/>
        <pt x="61" y="-128" on="0"/>
        <pt x="46" y="-149" on="0"/>
        <pt x="46" y="-150" on="1"/>
        <pt x="57" y="-155" on="0"/>
        <pt x="74" y="-160" on="0"/>
        <pt x="94" y="-160" on="1"/>
        <pt x="113" y="-160" on="0"/>
        <pt x="141" y="-140" on="0"/>
        <pt x="159" y="-106" on="0"/>
        <pt x="168" y="-61" on="0"/>
        <pt x="168" y="-37" on="1"/>
        <pt x="168" y="387" on="1"/>
        <pt x="168" y="410" on="0"/>
        <pt x="162" y="437" on="0"/>
        <pt x="144" y="451" on="0"/>
        <pt x="113" y="455" on="0"/>
        <pt x="88" y="455" on="1"/>
        <pt x="88" y="500" on="1"/>
      </contour>
    </TTGlyph>
    <TTGlyph name="k" xMin="45" yMin="0" xMax="656" yMax="809">
      <contour>
        <pt x="550" y="107" on="1"/>
        <pt x="567" y="87" on="0"/>
        <pt x="592" y="62" on="0"/>
        <pt x="616" y="49" on="0"/>
        <pt x="641" y="45" on="0"/>
        <pt x="656" y="45" on="1"/>
        <pt x="656" y="0" on="1"/>
        <pt x="627" y="2" on="0"/>
        <pt x="562" y="3" on="0"/>
        <pt x="541" y="3" on="1"/>
        <pt x="519" y="3" on="0"/>
        <pt x="492" y="3" on="0"/>
        <pt x="468" y="2" on="0"/>
        <pt x="439" y="1" on="0"/>
        <pt x="413" y="0" on="1"/>
        <pt x="413" y="45" on="1"/>
        <pt x="417" y="45" on="0"/>
        <pt x="431" y="52" on="0"/>
        <pt x="431" y="63" on="1"/>
        <pt x="431" y="72" on="0"/>
        <pt x="401" y="117" on="0"/>
        <pt x="358" y="172" on="0"/>
        <pt x="309" y="230" on="0"/>
        <pt x="289" y="253" on="1"/>
        <pt x="229" y="210" on="1"/>
        <pt x="229" y="97" on="1"/>
        <pt x="229" y="80" on="0"/>
        <pt x="234" y="59" on="0"/>
        <pt x="249" y="48" on="0"/>
        <pt x="278" y="45" on="0"/>
        <pt x="302" y="45" on="1"/>
        <pt x="302" y="0" on="1"/>
        <pt x="279" y="1" on="0"/>
        <pt x="249" y="2" on="0"/>
        <pt x="223" y="3" on="0"/>
        <pt x="195" y="3" on="0"/>
        <pt x="173" y="3" on="1"/>
        <pt x="152" y="3" on="0"/>
        <pt x="124" y="3" on="0"/>
        <pt x="98" y="2" on="0"/>
        <pt x="68" y="1" on="0"/>
        <pt x="45" y="0" on="1"/>
        <pt x="45" y="45" on="1"/>
        <pt x="69" y="45" on="0"/>
        <pt x="98" y="48" on="0"/>
        <pt x="113" y="59" on="0"/>
        <pt x="118" y="80" on="0"/>
        <pt x="118" y="97" on="1"/>
        <pt x="118" y="687" on="1"/>
        <pt x="118" y="710" on="0"/>
        <pt x="112" y="737" on="0"/>
        <pt x="96" y="750" on="0"/>
        <pt x="68" y="754" on="0"/>
        <pt x="45" y="754" on="1"/>
        <pt x="45" y="799" on="1"/>
        <pt x="233" y="809" on="1"/>
        <pt x="233" y="303" on="1"/>
        <pt x="329" y="372" on="1"/>
        <pt x="329" y="372" on="0"/>
        <pt x="350" y="389" on="0"/>
        <pt x="374" y="412" on="0"/>
        <pt x="394" y="438" on="0"/>
        <pt x="394" y="448" on="1"/>
        <pt x="394" y="454" on="0"/>
        <pt x="388" y="455" on="1"/>
        <pt x="388" y="500" on="1"/>
        <pt x="420" y="499" on="0"/>
        <pt x="457" y="498" on="0"/>
        <pt x="483" y="497" on="0"/>
        <pt x="504" y="497" on="0"/>
        <pt x="521" y="497" on="1"/>
        <pt x="531" y="497" on="0"/>
        <pt x="559" y="497" on="0"/>
        <pt x="588" y="498" on="0"/>
        <pt x="616" y="499" on="0"/>
        <pt x="627" y="500" on="1"/>
        <pt x="627" y="455" on="1"/>
        <pt x="597" y="453" on="0"/>
        <pt x="529" y="423" on="0"/>
        <pt x="486" y="395" on="1"/>
        <pt x="484" y="393" on="0"/>
        <pt x="450" y="369" on="0"/>
        <pt x="411" y="342" on="0"/>
        <pt x="379" y="318" on="0"/>
        <pt x="379" y="316" on="1"/>
        <pt x="379" y="315" on="0"/>
        <pt x="385" y="308" on="0"/>
        <pt x="386" y="307" on="1"/>
      </contour>
    </TTGlyph>
    <TTGlyph name="l" xMin="51" yMin="0" xMax="312" yMax="809">
      <contour>
        <pt x="239" y="97" on="1"/>
        <pt x="239" y="80" on="0"/>
        <pt x="244" y="59" on="0"/>
        <pt x="259" y="48" on="0"/>
        <pt x="288" y="45" on="0"/>
        <pt x="312" y="45" on="1"/>
        <pt x="312" y="0" on="1"/>
        <pt x="289" y="1" on="0"/>
        <pt x="260" y="2" on="0"/>
        <pt x="234" y="3" on="0"/>
        <pt x="205" y="3" on="0"/>
        <pt x="181" y="3" on="1"/>
        <pt x="159" y="3" on="0"/>
        <pt x="130" y="3" on="0"/>
        <pt x="104" y="2" on="0"/>
        <pt x="74" y="1" on="0"/>
        <pt x="51" y="0" on="1"/>
        <pt x="51" y="45" on="1"/>
        <pt x="75" y="45" on="0"/>
        <pt x="104" y="48" on="0"/>
        <pt x="119" y="59" on="0"/>
        <pt x="124" y="80" on="0"/>
        <pt x="124" y="97" on="1"/>
        <pt x="124" y="687" on="1"/>
        <pt x="124" y="710" on="0"/>
        <pt x="118" y="737" on="0"/>
        <pt x="102" y="750" on="0"/>
        <pt x="74" y="754" on="0"/>
        <pt x="51" y="754" on="1"/>
        <pt x="51" y="799" on="1"/>
        <pt x="239" y="809" on="1"/>
      </contour>
    </TTGlyph>
</ttFont>
